<?xml version="1.0" standalone="no"?>
<!DOCTYPE svg PUBLIC "-//W3C//DTD SVG 1.1//EN" "http://www.w3.org/Graphics/SVG/1.1/DTD/svg11.dtd" >
<svg xmlns="http://www.w3.org/2000/svg" xmlns:xlink="http://www.w3.org/1999/xlink" version="1.1">
<metadata>
Created by FontForge 20170924 at Fri Jan  1 08:00:00 1904
 By www-data
</metadata>
<defs>
<font id="ScrapbookChinese" horiz-adv-x="2161" >
  <font-face 
    font-family="Scrapbook Chinese"
    font-weight="400"
    font-stretch="normal"
    units-per-em="2048"
    panose-1="2 11 6 3 5 3 2 2 2 4"
    ascent="1638"
    descent="-410"
    x-height="1860"
    cap-height="1897"
    bbox="4.83582 82.2105 2043.93 1966.13"
    underline-thickness="0"
    underline-position="0"
    unicode-range="U+001D-FB02"
  />
<missing-glyph horiz-adv-x="2048" 
d="M189 1023h1442q25 0 45 17q7 6 13.5 13t13.5 13q41 40 86 3q12 -11 28.5 -25t28.5 -24q20 -18 25.5 -30.5t-33.5 -12.5q-36 0 -250 -0.5t-467.5 -1.5t-478 -1.5t-281.5 -0.5q-62 0 -91 -5l-35 -6q-21 -4 -30 11q-6 8 -11.5 16.5t-11.5 17.5q-10 16 7 16z" />
    <glyph glyph-name=".notdef" unicode="&#xfb;" horiz-adv-x="2048" 
d="M189 1023h1442q25 0 45 17q7 6 13.5 13t13.5 13q41 40 86 3q12 -11 28.5 -25t28.5 -24q20 -18 25.5 -30.5t-33.5 -12.5q-36 0 -250 -0.5t-467.5 -1.5t-478 -1.5t-281.5 -0.5q-62 0 -91 -5l-35 -6q-21 -4 -30 11q-6 8 -11.5 16.5t-11.5 17.5q-10 16 7 16z" />
    <glyph glyph-name=".notdef" unicode="&#xf9;" horiz-adv-x="2048" 
d="M189 1023h1442q25 0 45 17q7 6 13.5 13t13.5 13q41 40 86 3q12 -11 28.5 -25t28.5 -24q20 -18 25.5 -30.5t-33.5 -12.5q-36 0 -250 -0.5t-467.5 -1.5t-478 -1.5t-281.5 -0.5q-62 0 -91 -5l-35 -6q-21 -4 -30 11q-6 8 -11.5 16.5t-11.5 17.5q-10 16 7 16z" />
    <glyph glyph-name=".notdef" unicode="&#xea;" horiz-adv-x="2048" 
d="M189 1023h1442q25 0 45 17q7 6 13.5 13t13.5 13q41 40 86 3q12 -11 28.5 -25t28.5 -24q20 -18 25.5 -30.5t-33.5 -12.5q-36 0 -250 -0.5t-467.5 -1.5t-478 -1.5t-281.5 -0.5q-62 0 -91 -5l-35 -6q-21 -4 -30 11q-6 8 -11.5 16.5t-11.5 17.5q-10 16 7 16z" />
    <glyph glyph-name=".notdef" unicode="&#xe8;" horiz-adv-x="2048" 
d="M189 1023h1442q25 0 45 17q7 6 13.5 13t13.5 13q41 40 86 3q12 -11 28.5 -25t28.5 -24q20 -18 25.5 -30.5t-33.5 -12.5q-36 0 -250 -0.5t-467.5 -1.5t-478 -1.5t-281.5 -0.5q-62 0 -91 -5l-35 -6q-21 -4 -30 11q-6 8 -11.5 16.5t-11.5 17.5q-10 16 7 16z" />
    <glyph glyph-name=".notdef" unicode="&#xe9;" horiz-adv-x="2048" 
d="M189 1023h1442q25 0 45 17q7 6 13.5 13t13.5 13q41 40 86 3q12 -11 28.5 -25t28.5 -24q20 -18 25.5 -30.5t-33.5 -12.5q-36 0 -250 -0.5t-467.5 -1.5t-478 -1.5t-281.5 -0.5q-62 0 -91 -5l-35 -6q-21 -4 -30 11q-6 8 -11.5 16.5t-11.5 17.5q-10 16 7 16z" />
    <glyph glyph-name=".notdef" unicode="&#xe7;" horiz-adv-x="2048" 
d="M189 1023h1442q25 0 45 17q7 6 13.5 13t13.5 13q41 40 86 3q12 -11 28.5 -25t28.5 -24q20 -18 25.5 -30.5t-33.5 -12.5q-36 0 -250 -0.5t-467.5 -1.5t-478 -1.5t-281.5 -0.5q-62 0 -91 -5l-35 -6q-21 -4 -30 11q-6 8 -11.5 16.5t-11.5 17.5q-10 16 7 16z" />
    <glyph glyph-name=".notdef" unicode="&#xc5;" horiz-adv-x="2048" 
d="M189 1023h1442q25 0 45 17q7 6 13.5 13t13.5 13q41 40 86 3q12 -11 28.5 -25t28.5 -24q20 -18 25.5 -30.5t-33.5 -12.5q-36 0 -250 -0.5t-467.5 -1.5t-478 -1.5t-281.5 -0.5q-62 0 -91 -5l-35 -6q-21 -4 -30 11q-6 8 -11.5 16.5t-11.5 17.5q-10 16 7 16z" />
    <glyph glyph-name=".notdef" unicode="&#xc4;" horiz-adv-x="2048" 
d="M189 1023h1442q25 0 45 17q7 6 13.5 13t13.5 13q41 40 86 3q12 -11 28.5 -25t28.5 -24q20 -18 25.5 -30.5t-33.5 -12.5q-36 0 -250 -0.5t-467.5 -1.5t-478 -1.5t-281.5 -0.5q-62 0 -91 -5l-35 -6q-21 -4 -30 11q-6 8 -11.5 16.5t-11.5 17.5q-10 16 7 16z" />
    <glyph glyph-name=".notdef" horiz-adv-x="2048" 
d="M189 1023h1442q25 0 45 17q7 6 13.5 13t13.5 13q41 40 86 3q12 -11 28.5 -25t28.5 -24q20 -18 25.5 -30.5t-33.5 -12.5q-36 0 -250 -0.5t-467.5 -1.5t-478 -1.5t-281.5 -0.5q-62 0 -91 -5l-35 -6q-21 -4 -30 11q-6 8 -11.5 16.5t-11.5 17.5q-10 16 7 16z" />
    <glyph glyph-name=".notdef" horiz-adv-x="2048" 
d="M189 1023h1442q25 0 45 17q7 6 13.5 13t13.5 13q41 40 86 3q12 -11 28.5 -25t28.5 -24q20 -18 25.5 -30.5t-33.5 -12.5q-36 0 -250 -0.5t-467.5 -1.5t-478 -1.5t-281.5 -0.5q-62 0 -91 -5l-35 -6q-21 -4 -30 11q-6 8 -11.5 16.5t-11.5 17.5q-10 16 7 16z" />
    <glyph glyph-name=".notdef" horiz-adv-x="2048" 
d="M189 1023h1442q25 0 45 17q7 6 13.5 13t13.5 13q41 40 86 3q12 -11 28.5 -25t28.5 -24q20 -18 25.5 -30.5t-33.5 -12.5q-36 0 -250 -0.5t-467.5 -1.5t-478 -1.5t-281.5 -0.5q-62 0 -91 -5l-35 -6q-21 -4 -30 11q-6 8 -11.5 16.5t-11.5 17.5q-10 16 7 16z" />
    <glyph glyph-name=".notdef" horiz-adv-x="2048" 
d="M189 1023h1442q25 0 45 17q7 6 13.5 13t13.5 13q41 40 86 3q12 -11 28.5 -25t28.5 -24q20 -18 25.5 -30.5t-33.5 -12.5q-36 0 -250 -0.5t-467.5 -1.5t-478 -1.5t-281.5 -0.5q-62 0 -91 -5l-35 -6q-21 -4 -30 11q-6 8 -11.5 16.5t-11.5 17.5q-10 16 7 16z" />
    <glyph glyph-name=".notdef" horiz-adv-x="2048" 
d="M189 1023h1442q25 0 45 17q7 6 13.5 13t13.5 13q41 40 86 3q12 -11 28.5 -25t28.5 -24q20 -18 25.5 -30.5t-33.5 -12.5q-36 0 -250 -0.5t-467.5 -1.5t-478 -1.5t-281.5 -0.5q-62 0 -91 -5l-35 -6q-21 -4 -30 11q-6 8 -11.5 16.5t-11.5 17.5q-10 16 7 16z" />
    <glyph glyph-name=".notdef" horiz-adv-x="2048" 
d="M189 1023h1442q25 0 45 17q7 6 13.5 13t13.5 13q41 40 86 3q12 -11 28.5 -25t28.5 -24q20 -18 25.5 -30.5t-33.5 -12.5q-36 0 -250 -0.5t-467.5 -1.5t-478 -1.5t-281.5 -0.5q-62 0 -91 -5l-35 -6q-21 -4 -30 11q-6 8 -11.5 16.5t-11.5 17.5q-10 16 7 16z" />
    <glyph glyph-name=".notdef" horiz-adv-x="2048" 
d="M189 1023h1442q25 0 45 17q7 6 13.5 13t13.5 13q41 40 86 3q12 -11 28.5 -25t28.5 -24q20 -18 25.5 -30.5t-33.5 -12.5q-36 0 -250 -0.5t-467.5 -1.5t-478 -1.5t-281.5 -0.5q-62 0 -91 -5l-35 -6q-21 -4 -30 11q-6 8 -11.5 16.5t-11.5 17.5q-10 16 7 16z" />
    <glyph glyph-name=".notdef" horiz-adv-x="2048" 
d="M189 1023h1442q25 0 45 17q7 6 13.5 13t13.5 13q41 40 86 3q12 -11 28.5 -25t28.5 -24q20 -18 25.5 -30.5t-33.5 -12.5q-36 0 -250 -0.5t-467.5 -1.5t-478 -1.5t-281.5 -0.5q-62 0 -91 -5l-35 -6q-21 -4 -30 11q-6 8 -11.5 16.5t-11.5 17.5q-10 16 7 16z" />
    <glyph glyph-name=".notdef" horiz-adv-x="2048" 
d="M189 1023h1442q25 0 45 17q7 6 13.5 13t13.5 13q41 40 86 3q12 -11 28.5 -25t28.5 -24q20 -18 25.5 -30.5t-33.5 -12.5q-36 0 -250 -0.5t-467.5 -1.5t-478 -1.5t-281.5 -0.5q-62 0 -91 -5l-35 -6q-21 -4 -30 11q-6 8 -11.5 16.5t-11.5 17.5q-10 16 7 16z" />
    <glyph glyph-name=".notdef" horiz-adv-x="2048" 
d="M189 1023h1442q25 0 45 17q7 6 13.5 13t13.5 13q41 40 86 3q12 -11 28.5 -25t28.5 -24q20 -18 25.5 -30.5t-33.5 -12.5q-36 0 -250 -0.5t-467.5 -1.5t-478 -1.5t-281.5 -0.5q-62 0 -91 -5l-35 -6q-21 -4 -30 11q-6 8 -11.5 16.5t-11.5 17.5q-10 16 7 16z" />
    <glyph glyph-name=".notdef" horiz-adv-x="2048" 
d="M189 1023h1442q25 0 45 17q7 6 13.5 13t13.5 13q41 40 86 3q12 -11 28.5 -25t28.5 -24q20 -18 25.5 -30.5t-33.5 -12.5q-36 0 -250 -0.5t-467.5 -1.5t-478 -1.5t-281.5 -0.5q-62 0 -91 -5l-35 -6q-21 -4 -30 11q-6 8 -11.5 16.5t-11.5 17.5q-10 16 7 16z" />
    <glyph glyph-name=".notdef" horiz-adv-x="2048" 
d="M189 1023h1442q25 0 45 17q7 6 13.5 13t13.5 13q41 40 86 3q12 -11 28.5 -25t28.5 -24q20 -18 25.5 -30.5t-33.5 -12.5q-36 0 -250 -0.5t-467.5 -1.5t-478 -1.5t-281.5 -0.5q-62 0 -91 -5l-35 -6q-21 -4 -30 11q-6 8 -11.5 16.5t-11.5 17.5q-10 16 7 16z" />
    <glyph glyph-name=".notdef" horiz-adv-x="2048" 
d="M189 1023h1442q25 0 45 17q7 6 13.5 13t13.5 13q41 40 86 3q12 -11 28.5 -25t28.5 -24q20 -18 25.5 -30.5t-33.5 -12.5q-36 0 -250 -0.5t-467.5 -1.5t-478 -1.5t-281.5 -0.5q-62 0 -91 -5l-35 -6q-21 -4 -30 11q-6 8 -11.5 16.5t-11.5 17.5q-10 16 7 16z" />
    <glyph glyph-name=".notdef" horiz-adv-x="2048" 
d="M189 1023h1442q25 0 45 17q7 6 13.5 13t13.5 13q41 40 86 3q12 -11 28.5 -25t28.5 -24q20 -18 25.5 -30.5t-33.5 -12.5q-36 0 -250 -0.5t-467.5 -1.5t-478 -1.5t-281.5 -0.5q-62 0 -91 -5l-35 -6q-21 -4 -30 11q-6 8 -11.5 16.5t-11.5 17.5q-10 16 7 16z" />
    <glyph glyph-name=".notdef" horiz-adv-x="2048" 
d="M189 1023h1442q25 0 45 17q7 6 13.5 13t13.5 13q41 40 86 3q12 -11 28.5 -25t28.5 -24q20 -18 25.5 -30.5t-33.5 -12.5q-36 0 -250 -0.5t-467.5 -1.5t-478 -1.5t-281.5 -0.5q-62 0 -91 -5l-35 -6q-21 -4 -30 11q-6 8 -11.5 16.5t-11.5 17.5q-10 16 7 16z" />
    <glyph glyph-name=".notdef" horiz-adv-x="2048" 
d="M189 1023h1442q25 0 45 17q7 6 13.5 13t13.5 13q41 40 86 3q12 -11 28.5 -25t28.5 -24q20 -18 25.5 -30.5t-33.5 -12.5q-36 0 -250 -0.5t-467.5 -1.5t-478 -1.5t-281.5 -0.5q-62 0 -91 -5l-35 -6q-21 -4 -30 11q-6 8 -11.5 16.5t-11.5 17.5q-10 16 7 16z" />
    <glyph glyph-name=".notdef" horiz-adv-x="2048" 
d="M189 1023h1442q25 0 45 17q7 6 13.5 13t13.5 13q41 40 86 3q12 -11 28.5 -25t28.5 -24q20 -18 25.5 -30.5t-33.5 -12.5q-36 0 -250 -0.5t-467.5 -1.5t-478 -1.5t-281.5 -0.5q-62 0 -91 -5l-35 -6q-21 -4 -30 11q-6 8 -11.5 16.5t-11.5 17.5q-10 16 7 16z" />
    <glyph glyph-name=".notdef" horiz-adv-x="2048" 
d="M189 1023h1442q25 0 45 17q7 6 13.5 13t13.5 13q41 40 86 3q12 -11 28.5 -25t28.5 -24q20 -18 25.5 -30.5t-33.5 -12.5q-36 0 -250 -0.5t-467.5 -1.5t-478 -1.5t-281.5 -0.5q-62 0 -91 -5l-35 -6q-21 -4 -30 11q-6 8 -11.5 16.5t-11.5 17.5q-10 16 7 16z" />
    <glyph glyph-name=".notdef" horiz-adv-x="2048" 
d="M189 1023h1442q25 0 45 17q7 6 13.5 13t13.5 13q41 40 86 3q12 -11 28.5 -25t28.5 -24q20 -18 25.5 -30.5t-33.5 -12.5q-36 0 -250 -0.5t-467.5 -1.5t-478 -1.5t-281.5 -0.5q-62 0 -91 -5l-35 -6q-21 -4 -30 11q-6 8 -11.5 16.5t-11.5 17.5q-10 16 7 16z" />
    <glyph glyph-name=".notdef" horiz-adv-x="2048" 
d="M189 1023h1442q25 0 45 17q7 6 13.5 13t13.5 13q41 40 86 3q12 -11 28.5 -25t28.5 -24q20 -18 25.5 -30.5t-33.5 -12.5q-36 0 -250 -0.5t-467.5 -1.5t-478 -1.5t-281.5 -0.5q-62 0 -91 -5l-35 -6q-21 -4 -30 11q-6 8 -11.5 16.5t-11.5 17.5q-10 16 7 16z" />
    <glyph glyph-name=".notdef" unicode="&#xa;" horiz-adv-x="2048" 
d="M189 1023h1442q25 0 45 17q7 6 13.5 13t13.5 13q41 40 86 3q12 -11 28.5 -25t28.5 -24q20 -18 25.5 -30.5t-33.5 -12.5q-36 0 -250 -0.5t-467.5 -1.5t-478 -1.5t-281.5 -0.5q-62 0 -91 -5l-35 -6q-21 -4 -30 11q-6 8 -11.5 16.5t-11.5 17.5q-10 16 7 16z" />
    <glyph glyph-name=".notdef" horiz-adv-x="2048" 
d="M189 1023h1442q25 0 45 17q7 6 13.5 13t13.5 13q41 40 86 3q12 -11 28.5 -25t28.5 -24q20 -18 25.5 -30.5t-33.5 -12.5q-36 0 -250 -0.5t-467.5 -1.5t-478 -1.5t-281.5 -0.5q-62 0 -91 -5l-35 -6q-21 -4 -30 11q-6 8 -11.5 16.5t-11.5 17.5q-10 16 7 16z" />
    <glyph glyph-name=".notdef" horiz-adv-x="2048" 
d="M189 1023h1442q25 0 45 17q7 6 13.5 13t13.5 13q41 40 86 3q12 -11 28.5 -25t28.5 -24q20 -18 25.5 -30.5t-33.5 -12.5q-36 0 -250 -0.5t-467.5 -1.5t-478 -1.5t-281.5 -0.5q-62 0 -91 -5l-35 -6q-21 -4 -30 11q-6 8 -11.5 16.5t-11.5 17.5q-10 16 7 16z" />
    <glyph glyph-name=".notdef" horiz-adv-x="2048" 
d="M189 1023h1442q25 0 45 17q7 6 13.5 13t13.5 13q41 40 86 3q12 -11 28.5 -25t28.5 -24q20 -18 25.5 -30.5t-33.5 -12.5q-36 0 -250 -0.5t-467.5 -1.5t-478 -1.5t-281.5 -0.5q-62 0 -91 -5l-35 -6q-21 -4 -30 11q-6 8 -11.5 16.5t-11.5 17.5q-10 16 7 16z" />
    <glyph glyph-name=".notdef" horiz-adv-x="2048" 
d="M189 1023h1442q25 0 45 17q7 6 13.5 13t13.5 13q41 40 86 3q12 -11 28.5 -25t28.5 -24q20 -18 25.5 -30.5t-33.5 -12.5q-36 0 -250 -0.5t-467.5 -1.5t-478 -1.5t-281.5 -0.5q-62 0 -91 -5l-35 -6q-21 -4 -30 11q-6 8 -11.5 16.5t-11.5 17.5q-10 16 7 16z" />
    <glyph glyph-name=".notdef" horiz-adv-x="2048" 
d="M189 1023h1442q25 0 45 17q7 6 13.5 13t13.5 13q41 40 86 3q12 -11 28.5 -25t28.5 -24q20 -18 25.5 -30.5t-33.5 -12.5q-36 0 -250 -0.5t-467.5 -1.5t-478 -1.5t-281.5 -0.5q-62 0 -91 -5l-35 -6q-21 -4 -30 11q-6 8 -11.5 16.5t-11.5 17.5q-10 16 7 16z" />
    <glyph glyph-name=".notdef" horiz-adv-x="2048" 
d="M189 1023h1442q25 0 45 17q7 6 13.5 13t13.5 13q41 40 86 3q12 -11 28.5 -25t28.5 -24q20 -18 25.5 -30.5t-33.5 -12.5q-36 0 -250 -0.5t-467.5 -1.5t-478 -1.5t-281.5 -0.5q-62 0 -91 -5l-35 -6q-21 -4 -30 11q-6 8 -11.5 16.5t-11.5 17.5q-10 16 7 16z" />
    <glyph glyph-name=".notdef" horiz-adv-x="2048" 
d="M189 1023h1442q25 0 45 17q7 6 13.5 13t13.5 13q41 40 86 3q12 -11 28.5 -25t28.5 -24q20 -18 25.5 -30.5t-33.5 -12.5q-36 0 -250 -0.5t-467.5 -1.5t-478 -1.5t-281.5 -0.5q-62 0 -91 -5l-35 -6q-21 -4 -30 11q-6 8 -11.5 16.5t-11.5 17.5q-10 16 7 16z" />
    <glyph glyph-name="uni001D" horiz-adv-x="0" 
 />
    <glyph glyph-name="uni001D" horiz-adv-x="0" 
 />
    <glyph glyph-name="uni001D" horiz-adv-x="0" 
 />
    <glyph glyph-name="uni00A0" unicode="&#xa0;" horiz-adv-x="2048" 
 />
    <glyph glyph-name="uni00A0" unicode="&#xd;" horiz-adv-x="2048" 
 />
    <glyph glyph-name="space" unicode=" " horiz-adv-x="788" 
 />
    <glyph glyph-name="space" unicode="&#x9;" horiz-adv-x="788" 
 />
    <glyph glyph-name="one" unicode="1" 
d="M189 1023h1442q25 0 45 17q7 6 13.5 13t13.5 13q41 40 86 3q12 -11 28.5 -25t28.5 -24q20 -18 25.5 -30.5t-33.5 -12.5q-36 0 -250 -0.5t-467.5 -1.5t-478 -1.5t-281.5 -0.5q-62 0 -91 -5l-35 -6q-21 -4 -30 11q-6 8 -11.5 16.5t-11.5 17.5q-10 16 7 16z" />
    <glyph glyph-name="two" unicode="2" 
d="M174 479h1472q25 0 45 17q7 6 13.5 13t13.5 13q41 40 86 3q12 -11 28.5 -25t28.5 -24q20 -18 25.5 -30.5t-33.5 -12.5q-36 0 -254.5 -0.5t-478 -1.5t-489 -1.5t-286.5 -0.5q-61 0 -90 -5l-35 -6q-21 -4 -31 11q-20 30 -22 34q-12 16 7 16zM375 1567h1079q25 0 45 17
l27 27q41 39 86 2q12 -11 28.5 -25t28.5 -24q20 -18 25.5 -30.5t-33.5 -12.5q-36 0 -193.5 -0.5t-343 -1.5t-353.5 -1h-225q-25 -1 -47 -2t-44 -4l-35 -6q-21 -4 -30 11q-6 8 -11.5 16.5t-10.5 17.5q-11 16 7 16z" />
    <glyph glyph-name="three" unicode="3" 
d="M189 373h1442q25 0 45 17l27 27q41 40 86 2q12 -11 28.5 -25t28.5 -24q20 -18 25.5 -30.5t-33.5 -12.5q-36 0 -250 -0.5t-467.5 -1.5t-478 -1h-281.5t-91 -6l-35 -6q-21 -4 -30 12q-6 8 -11.5 16t-11.5 17q-10 16 7 16zM442 1086h955q26 0 45 17q10 9 28 27q41 41 85 2
q12 -11 28.5 -25t28.5 -24q50 -43 -8 -43q-36 0 -174 -0.5t-300.5 -1.5t-311 -1.5t-205.5 -0.5q-61 0 -90 -5l-35 -6q-22 -4 -31 11q-6 9 -11.5 17t-10.5 17q-11 16 7 16zM325 1672h1203q24 0 45 18q10 8 28 26q40 40 85 3q12 -11 28.5 -25t28.5 -24q20 -18 25.5 -30.5
t-33.5 -12.5q-36 0 -213 -0.5t-386 -1.5t-396 -1.5t-244 -0.5q-61 0 -90 -5l-36 -7q-21 -3 -30 12q-11 17 -22 33t7 16z" />
    <glyph glyph-name="four" unicode="4" 
d="M440 1722h1104q12 15 31.5 40t24.5 31q11 16 34 1q18 -12 61 -38t58 -36q16 -11 3 -28q-8 -9 -17 -19t-15 -17q-11 -13 -11 -30l-2 -1268q0 -34 -12 -43q-15 -12 -40.5 -27.5t-44.5 -18.5q-23 -5 -23 30l1 165h-1188v-135q0 -27 -26 -46q-38 -28 -68 -36q-25 -8 -25 30
l1 1507q0 28 24 14q40 -21 72 -41t58 -35zM1203 943l3.5 -29.5t45.5 -28.5q53 1 94.5 8t68.5 11q52 6 70 -8q20 -17 32 -34.5t18 -27.5q23 -42 -42 -46t-81 -4q-37 -3 -105 -3t-114 2q-25 0 -70 14.5t-45 116.5v770h-205q-28 -25 -28 -58v-328q0 -73 -6 -135t-30 -133
q-50 -140 -159.5 -258.5t-245.5 -200.5v-68h1188l4 1181h-393v-741zM404 628q97 79 184.5 208t111.5 264q24 130 24 266v318h-285q-12 -9 -22.5 -22.5t-10.5 -46.5z" />
    <glyph glyph-name="five" unicode="5" 
d="M271 1742h1290q24 0 45 18q5 4 27 26q41 40 86 3q12 -11 28.5 -25.5t28.5 -24.5q20 -18 25.5 -30t-33.5 -12q-41 0 -273.5 -1t-484.5 -1l-77 -514h449q21 34 51 76q11 17 31 1q12 -11 50 -46t62 -58q13 -14 3 -25q-9 -9 -19.5 -17.5t-27.5 -23.5q-15 -13 -16 -28
l-62 -757h198q26 0 46 18q9 8 27 26q41 40 86 2q12 -11 28 -25t29 -24q20 -18 25 -30.5t-34 -12.5q-36 0 -256.5 -0.5t-482 -1.5t-493 -1h-288.5q-61 0 -90 -6l-35 -6q-21 -3 -31 12q-6 8 -11.5 16t-10.5 17q-11 16 7 16h508l117 830q-75 0 -130.5 -0.5t-79.5 -0.5
q-62 0 -91 -5l-35 -7q-21 -3 -30 12q-6 8 -11.5 16.5t-10.5 17.5q-11 15 7 15h388l72 513q-153 0 -271 -0.5t-158 -0.5q-62 0 -91 -5l-35 -7q-21 -3 -30 12q-6 8 -11.5 16t-10.5 17q-11 16 6 16zM803 303h516l70 831q-117 0 -237 -0.5t-226 -0.5z" />
    <glyph glyph-name="six" unicode="6" 
d="M179 1384h1462q26 0 45 17q7 6 13.5 13t14.5 13q40 40 85 3q12 -11 28.5 -25t28.5 -24q50 -43 -8 -43q-36 0 -253 -0.5t-474.5 -1.5t-485 -1.5t-284.5 -0.5q-62 0 -91 -5l-35 -6q-21 -4 -30 11q-6 8 -11.5 16.5t-11.5 17.5q-11 16 7 16zM735 1100q12 37 41 23
q20 -10 67 -39.5t59 -38.5q21 -18 -1 -29q-18 -9 -37 -21t-37 -39q-57 -88 -182.5 -290t-425.5 -457q-17 -14 -24.5 -6t8.5 27q93 117 276 381t256 489zM826 1845q174 -79 233.5 -148t60.5 -122q0 -31 -27 -86t-69 -47q-32 5 -39 46t-19 81q-39 124 -159 247q-21 20 -7 27
t26 2zM1195 1103q81 -58 194.5 -161t212.5 -214q63 -72 116 -139t74 -127q24 -72 3 -119t-37 -62q-14 -12 -32.5 -20.5t-36.5 16.5q-27 39 -46.5 107.5t-76.5 162.5q-46 75 -144.5 231t-244.5 300q-20 18 -10 27.5t28 -2.5z" />
    <glyph glyph-name="seven" unicode="7" 
d="M188 1038l650 134l1 618q0 61 37 44l134 -67q33 -19 9 -41t-36.5 -37t-12.5 -57l-1 -433l660 137q25 4 41 26q6 7 10.5 15t10.5 16q33 48 84 20q13 -8 32 -18.5t34 -18.5q23 -13 30.5 -24t-30.5 -19q-41 -9 -312 -66t-560 -117l-1 -606q0 -92 6 -147.5t125 -60.5
q22 -1 93 -1.5t149.5 0t143.5 1t76 2.5q60 7 89 49.5t44 99.5q21 87 23 149q0 45 15.5 51t15.5 -61q0 -114 12.5 -167t33.5 -73q40 -37 27 -58q-43 -67 -90 -93t-154 -26l-531 -1q-117 0 -162.5 50.5t-45.5 187.5v677q-171 -36 -302 -63.5t-170 -35.5q-24 -6 -45.5 -10.5
t-42.5 -12.5l-33 -14q-20 -7 -32 5q-9 10 -28 29q-15 13 3 17z" />
    <glyph glyph-name="eight" unicode="8" 
d="M1103 1787q9 -3 54.5 -26t53.5 -26q29 -17 6 -40q-12 -12 -20 -19.5t-11 -10.5t-11.5 -13t-5.5 -39q42 -408 194 -662.5t296 -386.5q125 -115 248 -145q42 -12 33 -21.5t-41 -8.5q-72 2 -114.5 -25.5t-54.5 -42.5q-21 -25 -43 -4q-108 102 -232 264t-199 360
q-63 163 -112.5 390t-65.5 433q-3 33 25 23zM750 1590q36 -21 77.5 -47.5t49.5 -31.5q30 -17 7 -33q-13 -10 -28 -21.5t-22 -41.5q-52 -216 -123.5 -399t-174.5 -333q-78 -114 -176.5 -211t-223.5 -208q-15 -13 -26.5 -5.5t9.5 29.5q119 121 229 278t187 327
q76 170 120.5 344.5t56.5 333.5q3 39 38 19z" />
    <glyph glyph-name="nine" unicode="9" 
d="M272 1430l481 12q1 146 2 277.5t1 162.5q0 41 35 29q9 -4 74 -35.5t76 -36.5q35 -18 8 -42q-33 -30 -46 -45t-13 -60q0 -64 -0.5 -125.5t-0.5 -121.5l325 9q14 15 30 33.5t40 41.5q22 20 42 5q39 -32 59.5 -52.5t37.5 -36.5q25 -24 7 -40q-33 -31 -37 -35
q-18 -19 -19 -69l-11 -746q0 -34 0.5 -57t0.5 -29q8 -93 39 -105t91 -11l158 2q71 0 93 49t34 111q17 84 19 169q0 45 14 51.5t14 -60.5q-2 -120 18 -188.5t41 -88.5l27 -27t0 -31q-43 -68 -90 -93.5t-153 -25.5q-48 -1 -123 -1.5t-87 0.5q-126 2 -174 45.5t-50 205.5
l10 937l-357 -13q-7 -237 -39.5 -433t-122.5 -354q-162 -281 -557 -467q-27 -13 -36.5 -3.5t13.5 24.5q316 201 458 466t148 698q1 21 1 65l-293 -10q-25 -1 -55 -2t-51 -5l-36 -6q-21 -3 -30 12q-6 8 -12 16.5t-11 17.5q-11 16 7 16z" />
    <glyph glyph-name="zero" unicode="0" 
d="M211 1208h723q0 218 0.5 397.5t0.5 253.5q0 36 7 38.5t18 -0.5q22 -9 69 -27t62 -25q33 -16 10 -46q-19 -27 -28 -44t-9 -56q0 -28 0.5 -167t0.5 -324h544q26 0 46 18q9 8 27 26q41 40 86 2q12 -11 28 -25t28 -24q50 -43 -8 -43q-38 0 -265 -0.5t-486 -0.5
q-1 -283 -1 -566v-351q0 -34 -27 -55q-30 -23 -74 -37q-30 -10 -30 31q0 100 0.5 388t0.5 589q-195 0 -350.5 -0.5t-201.5 -0.5q-61 0 -90 -6l-35 -6q-21 -3 -31 12q-14 22 -22 33q-11 16 7 16z" />
    <glyph glyph-name="hyphen" unicode="-" 
d="M168 1777h1484q25 0 46 18q9 8 27 26q41 40 86 2q12 -10 28 -24.5t29 -24.5q20 -18 25 -30.5t-34 -12.5q-37 0 -267.5 -0.5t-499.5 -0.5q-25 -57 -91.5 -184.5t-84.5 -161.5h497q11 12 25.5 28.5t26.5 28.5q22 24 39 12l60 -44t54 -40q16 -16 4 -30q-8 -9 -21.5 -24
t-19.5 -22q-7 -9 -7 -23l-2 -954q-2 -35 -12 -43q-15 -12 -51 -27.5t-55 -18.5q-23 -6 -23 30l1 168h-765l-1 -127q0 -26 -19 -40q-17 -12 -45.5 -29.5t-46.5 -22.5q-26 -8 -26 30l1 1193q0 24 22 17q3 -2 25 -9.5t35 -12.5q9 -5 39 -18.5t48 -21.5h142q19 45 49 139.5
t39 205.5q-210 0 -376.5 -0.5t-213.5 -0.5q-61 0 -90 -5l-36 -7q-20 -3 -30 12q-14 22 -22 33q-11 16 7 16zM667 463h765l2 425h-767v-425zM667 926h767l2 420h-755q-13 -23 -13 -54z" />
    <glyph glyph-name="equal" unicode="=" 
d="M202 1168h766v484q-138 -21 -293.5 -35t-338.5 -19q-31 -1 -30 14.5t30 19.5q340 42 668.5 116.5t471.5 155.5q30 17 38.5 12t17.5 -17q12 -18 42.5 -70t35.5 -64q10 -32 -15 -25q-73 16 -163 0q-30 -6 -119.5 -26t-209.5 -41v-505h515q26 0 46 17l13 13t14 13
q40 40 86 3q12 -11 28 -25t28 -25q51 -42 -8 -42l-722 -2v-898q0 -33 -27 -55q-19 -15 -69 -31q-40 -14 -40 30l1 954l-595 -2q-61 0 -90 -5l-35 -6q-21 -4 -31 11q-20 30 -22 34q-11 16 7 16z" />
    <glyph glyph-name="exclam" unicode="!" 
d="M932 1788h441q11 14 23.5 30.5t19.5 25.5q15 18 38 2q17 -13 51 -42t43 -37q14 -15 -4 -32q-12 -10 -17.5 -14.5t-11.5 -10.5q-14 -12 -14 -33v-405q0 -28 -16 -40q-11 -9 -39.5 -22t-36.5 -14q-21 -4 -19 25v31l-983 -1q-1 -29 -24 -43q-23 -16 -64 -25q-24 -6 -24 23
l1 583q0 19 21 12q17 -6 47.5 -18t60.5 -24q74 24 146.5 61t123.5 65q9 5 24.5 14t27.5 -8q12 -18 33.5 -47t27.5 -38q15 -25 -22 -28q-9 0 -24 1t-31 1q-53 -4 -148.5 -29t-174.5 -40l-1 -167h233q26 0 46 18q9 8 27 26q41 40 86 2q13 -11 44 -48q31 -38 -8 -39l-428 -2
v-206h983l1 206l-243 -1q-62 0 -91 -5l-35 -12q-21 -3 -30 12q-6 8 -11.5 16t-10.5 17q-11 16 7 16h414l1 201l-289 -1q-68 -3 -90 -6l-36 -11q-21 -4 -30 12q-6 8 -11.5 16t-10.5 17q-11 16 7 16zM1351 1133q21 -9 61 -32t52 -29q20 -13 4 -36q-12 -16 -25.5 -26t-13.5 -43
q0 -76 -2 -153.5t15 -151.5q15 -75 53 -177t114 -154q27 -19 41 -12.5t26 18.5q26 30 40 87.5t29 119.5q6 30 17.5 33t7.5 -38q-4 -42 -10 -126t-1 -136q4 -59 24.5 -76t-8.5 -41q-36 -30 -108 1q-65 26 -129.5 82t-97.5 110q-59 93 -88.5 218.5t-28.5 236.5l1 296
q0 39 27 29zM342 1100q21 -9 56 -28.5t47 -25.5q22 -10 6 -32q-16 -23 -22 -35t-6 -45l-1 -609q62 32 143.5 65t135.5 56q26 12 41.5 6t-20.5 -30q-81 -56 -182.5 -123t-176.5 -142q-18 -17 -30 -3q-13 14 -33.5 38.5t-34.5 46.5q-13 19 2 32q6 6 20.5 19t27.5 25v756
q0 39 27 29zM877 1158q21 -9 56 -28.5t47 -24.5q21 -11 6 -33q-16 -22 -22.5 -34.5t-6.5 -45.5v-644q56 31 113 59t113 55q25 12 40 6t-20 -31q-80 -57 -151.5 -119.5t-146.5 -137.5q-16 -16 -30 -4q-10 9 -35.5 42t-31.5 39q-18 15 2 33q24 21 39 36l1 803q0 40 27 29z
M545 1036q54 -5 124 -32.5t80 -90.5q7 -56 -14 -81q-25 -28 -56 8q-21 22 -40.5 63t-113.5 103q-21 13 -10.5 22.5t30.5 7.5zM1055 1036q54 -5 124 -32.5t80 -90.5q7 -56 -14 -81q-24 -27 -57 8q-20 22 -39.5 63t-113.5 103q-21 13 -10.5 22.5t30.5 7.5zM545 752
q54 -6 124 -33.5t80 -90.5q8 -57 -14 -81q-25 -28 -56 8q-21 22 -40.5 63t-113.5 103q-21 12 -10.5 22t30.5 9zM1055 752q54 -6 124 -33.5t80 -90.5q8 -57 -14 -81q-24 -27 -57 8q-20 22 -39.5 63t-113.5 103q-21 12 -10.5 22t30.5 9z" />
    <glyph glyph-name="at" unicode="@" 
d="M198 900h766l-1 481q-108 0 -212.5 -0.5t-191.5 -0.5q-57 -100 -130.5 -211.5t-139.5 -170.5q-27 -24 -33 -15t16 36q73 95 170 320t123 370q6 34 19.5 29l13.5 -5q12 -8 56.5 -38t55.5 -37q23 -17 -1 -37q-34 -28 -50 -55q-4 -8 -23.5 -45.5t-49.5 -91.5h377v418
q0 36 9 37t20 -2q22 -9 63.5 -32t56.5 -30q28 -17 8 -44q-19 -26 -27 -44.5t-8 -58.5v-244h364q25 0 45 17l27 27q41 39 86 2q12 -11 28.5 -25t28.5 -24q20 -18 25.5 -30.5t-33.5 -12.5q-33 0 -199 -0.5t-372 -0.5v-482h537q26 0 46 18q9 8 27 26q41 40 86 2q12 -11 28 -25
t29 -24q20 -18 25 -30.5t-34 -12.5q-37 0 -261 -0.5t-483 -0.5v-610q0 -27 -30 -47q-34 -20 -62 -30q-28 -11 -29 29v657q-209 0 -378 -0.5t-217 -0.5q-61 0 -90 -6l-36 -6q-21 -3 -30 12q-6 8 -11.5 16t-10.5 17q-11 16 7 16z" />
    <glyph glyph-name="numbersign" unicode="#" 
d="M684 1727h207v190q0 40 27 29q21 -9 58 -28t49 -25q21 -11 7 -33q-16 -22 -25 -34.5t-9 -45.5v-53h401q26 0 45 17q10 9 28 27q41 41 86 2q10 -11 44 -48q32 -39 -8 -39l-596 -3v-168h584l33.5 33.5t23.5 22.5q19 16 32 10q14 -7 75 -54.5t66 -57.5q9 -23 -18 -23
q-79 0 -144 -46t-84 -60q-18 -14 -29 -11.5t-1 23.5q12 23 30 60t30 62l-706 -2q22 -12 56.5 -33.5t44.5 -27.5q22 -16 5 -37q-13 -16 -22.5 -24.5t-9.5 -41.5l-1 -62l240 33q25 2 42 23l24 30q34 46 85 14q21 -15 50 -42q36 -34 -3 -39l-438 -63l-1 -78q0 -75 78 -76h432
q64 0 85.5 81t22.5 114q2 49 16 47.5t14 -43.5q-2 -127 42 -164q25 -23 13 -45q-10 -18 -37 -47t-109 -29h-528q-70 3 -102 32t-31 124v69l-164 -23q-63 -10 -88 -18l-34 -16q-21 -7 -32 7q-16 19 -26 31q-14 14 5 16l339 47l1 214q0 21 2 27l-378 -1q-18 -18 -27 -26
t-9 -39v-499q0 -80 -3.5 -158.5t-16.5 -153.5q-48 -261 -202 -460q-34 -44 -46.5 -38t10.5 53q108 228 135 444q9 71 11 146t2 153l1 645q0 39 27 29q19 -9 54 -27t50 -25h421v168h-35q-24 -1 -46.5 -2t-43.5 -4l-35 -11q-21 -3 -31 12q-14 22 -22 33q-11 16 7 16zM329 164
q229 70 322.5 158t120.5 236q11 62 13 138.5t8 167.5q1 35 8 27t17 -11q6 -4 42.5 -24.5t60.5 -33.5h265q6 11 24 35.5t22 30.5q12 16 23 8q8 -7 52 -44t50 -42q17 -16 8 -27q-6 -6 -18.5 -19.5t-15.5 -16.5q-11 -14 -11 -26v-308q-2 -69 69 -69h242q50 0 67 27
q30 48 39.5 162.5t9.5 151.5q0 45 12 42t12 -42q0 -156 27 -219t60 -87q19 -15 11 -41q-4 -12 -38.5 -62t-122.5 -50l-362 -1q-68 0 -105 26t-37 104v424v0v1l-276 -2l-10 -8l-9.5 -10t-9.5 -20q-6 -142 -36.5 -263.5t-150.5 -207.5q-64 -45 -156 -81.5t-223 -48.5
q-32 -3 -25.5 9t21.5 16z" />
    <glyph glyph-name="dollar" unicode="$" 
d="M1426 1385q17 24 34.5 48.5t23.5 32.5q22 26 42 10q15 -14 45.5 -43t47.5 -45q24 -25 8 -47q-9 -9 -16 -16.5t-15 -16.5q-18 -18 -18 -31v-382q1 -28 -16 -40q-10 -9 -42.5 -24.5t-40.5 -16.5q-20 -4 -20 25l1 64h-293v-463q0 -63 37 -90t67 -27l311 -1q66 -2 104 34
q29 27 38.5 132.5t11.5 142.5q1 39 12.5 37.5t11.5 -37.5q0 -152 28.5 -196t58.5 -67q19 -16 11 -41q-4 -12 -47 -74.5t-152 -62.5l-433 -2q-85 0 -137.5 32.5t-52.5 122.5v560h-20q-75 -291 -254.5 -479t-521.5 -297q-48 -15 -45 1.5t41 32.5q398 207 566 510
q60 108 96 232h-317l-1 -38q0 -31 -24 -47q-21 -16 -61 -25q-24 -6 -24 24l1 552q-68 -59 -133 -109.5t-116 -81.5q-33 -20 -37 -7t23 37q171 151 335.5 359t223.5 330q21 44 43 19q15 -17 52 -52.5t46 -44.5q19 -23 -15 -45q-6 -4 -62 -60h368q22 22 50 48t34 31
q19 14 33 0q10 -10 56 -59.5t52 -56.5q19 -28 -5 -33q-15 -3 -56.5 -20t-59.5 -35q-45 -45 -101.5 -102t-103.5 -102h327zM1077 1333q-15 -222 -49 -378h432l1 378h-384zM912 955q42 168 46 378h-350q-26 -22 -26 -43l-1 -335h331zM1195 1662h-414q-39 -39 -86.5 -86
t-99.5 -95q-35 -33 -51 -47q26 -23 55 -49h422q69 85 103.5 148t70.5 129zM1346 743q-23 28 -8.5 38.5t41.5 -5.5q42 -26 90 -56t79 -66q44 -52 33 -134q-12 -69 -46 -83q-39 -16 -56 42q-8 27 -19.5 81.5t-113.5 182.5z" />
    <glyph glyph-name="percent" unicode="%" 
d="M158 1725h339v157q0 34 23 25q18 -8 50.5 -25t43.5 -21q18 -10 5 -29q-14 -19 -21.5 -29.5t-7.5 -39.5v-38h170q23 0 41 16q16 16 25 24q36 36 77 2q11 -9 25.5 -22t26.5 -22q44 -39 -7 -39l-634 -3q-56 0 -82 -5l-32 -6q-20 -3 -28 11q-6 7 -10.5 14.5t-9.5 15.5
q-10 14 6 14zM613 1342q57 93 84 173.5t30 92.5q6 21 27 19q9 -3 59 -26t57 -26q23 -14 -2 -28q-14 -9 -29.5 -17.5t-30.5 -26.5q-13 -16 -52.5 -72t-73.5 -89h144q23 0 41 16q9 8 25 24q37 36 78 2q10 -9 25 -22t26 -22q44 -39 -7 -39l-740 -3q-23 -1 -43 -1.5t-40 -3.5
l-31 -6q-20 -3 -28 10q-11 17 -20 31q-10 14 6 14h495zM1203 1222h472l1 210h-482v-14v-13q0 -26 -23 -34q-9 -3 -23 -7.5t-29 -9.5q-22 -8 -22 23q0 131 1 248t1 248q-1 35 18 28q16 -6 50.5 -19.5t46.5 -19.5q19 -9 5 -27q-27 -38 -25 -80v-26.5v-31.5h407q23 0 41 16
q16 16 25 24q36 36 77 2q11 -9 25.5 -22t26.5 -22q44 -39 -7 -39l-595 -1v-91.5v-93.5h467q12 12 30 29t24 22q20 15 37 1q15 -13 39 -36t29 -28q13 -14 1 -25q-7 -7 -19 -17t-15 -13q-12 -12 -12 -24l-2 -215q0 -24 -8 -30q-9 -7 -38 -14.5t-36 -7.5q-16 -4 -16 21v46h-483
v-179h320q23 0 41 16q4 3 25 24q37 36 78 2q10 -10 24.5 -23t26.5 -22q45 -38 -7 -39l-508 -1v-188h331q23 0 42 16l12 12l12 12q37 36 78 2q11 -9 25.5 -22t26.5 -22q18 -17 23 -28t-31 -11l-519 -1l-1 -193h347q22 0 41 16q16 16 25 24q36 36 77 2q16 -13 52 -44
q44 -39 -7 -39l-535 -1v-90q0 -107 128 -113l386 -2q63 0 88 32t37 83q21 86 27 138q4 37 17.5 42t9.5 -51q-9 -99 1.5 -147.5t35.5 -68.5q32 -28 6 -61q-30 -38 -68 -49t-121 -11l-464 2q-75 2 -126.5 43t-53.5 134l3 870q-2 37 28 24q6 -3 31.5 -18t46.5 -27zM341 640h429
v206h-429v-206zM771 600h-430v-391q0 -29 -24 -45q-16 -11 -54 -24q-24 -8 -24 26l1 992q0 42 23 26q13 -9 43 -26.5t48 -26.5h396q4 6 9 11q9 9 24.5 27.5t28.5 32.5q14 14 28 1q15 -15 34.5 -30t41.5 -40q22 -26 3 -42q-17 -17 -33 -29q-18 -14 -18 -37v-655
q0 -39 -2 -81.5t-23 -69.5q-9 -12 -21 -24t-42 -27q-54 -26 -69.5 -27t-12.5 28q2 42 -56 74t-98 44q-44 13 -49.5 23t39.5 4q53 -9 105 -15q42 -5 87 -2.5t45 63.5v240zM341 886h429l-1 206h-428v-206zM328 1603q60 -45 103.5 -98t10.5 -110q-17 -29 -43 -19
q-36 13 -31 55.5t-61 135.5q-28 38 -18 47.5t39 -11.5z" />
    <glyph glyph-name="asciicircum" unicode="^" 
d="M1258 1894q94 -41 150 -91q45 -41 62 -105.5t-40 -113.5q-26 -23 -45 -6.5t-27 44.5q-9 33 -24 90.5t-108 156.5q-25 26 -12 31.5t44 -6.5zM716 641q151 -110 183.5 -189t17.5 -135q-18 -65 -42.5 -62t-42.5 32q-9 13 -18.5 46t-18.5 69q-2 -1 -18 -5q-19 -6 -103 -35.5
t-181 -65t-181.5 -67.5t-103.5 -42q-29 -15 -43 7q-8 12 -21 46t-21 48q-13 25 24 34q16 3 109 19t203 36v465h-132v-118q0 -33 -24 -46q-30 -20 -56 -25q-24 -6 -24 23l1 785q0 25 21 13q18 -12 39.5 -24.5t51.5 -31.5h124v374q0 40 27 31q20 -7 64.5 -22t56.5 -21
q22 -11 6 -33t-30 -38t-14 -49v-242h121q12 14 25 32t21 27q19 23 38 6q12 -13 42.5 -48t37.5 -43q14 -19 0 -31q-10 -11 -14.5 -14t-7.5 -7q-14 -14 -14 -27v-489q0 -27 -16 -40q-11 -9 -38 -21t-36 -12q-19 -4 -19 25v66h-140v-445q70 12 125.5 22.5t77.5 16.5q5 1 13 3
q-2 4 -3.5 9t-2.5 10q-12 40 -37.5 85t-50.5 79q-19 24 -6.5 27.5t30.5 -8.5zM570 1376v-492h140l2 492h-142zM459 884l1 492h-107q-1 -2 -2.5 -3t-1.5 -2q-21 -20 -21 -39l-1 -448h132zM1011 1506h718q38 50 44 58q3 4 10 11.5t24 -6.5q16 -15 62.5 -63t53.5 -57
q18 -30 -12 -34q-17 -2 -41 -6.5t-43 -19.5q-81 -63 -145 -159q-10 -16 -23 -16.5t-5 24.5q9 30 35.5 103t42.5 115h-715q3 -39 3.5 -84t-8.5 -72q-26 -74 -79 -92q-12 -4 -36 -1t-38 24q-29 38 6 71q87 78 99 177q3 28 0.5 58.5t-2.5 37.5q-3 16 8 17.5t19 -18.5
q5 -14 11 -28t11 -40zM1250 781q106 77 209 184t121 134q32 45 55 23l47 -47t42 -44q16 -26 -14 -34q-21 -6 -46 -13.5t-47 -22.5q-14 -10 -153 -104.5t-214 -132.5l-1 -390q0 -69 72 -69h352q19 0 43 5.5t34 21.5q30 48 42 136.5t15 135.5q3 44 14 41.5t11 -41.5
q0 -157 14 -203.5t47 -70.5q21 -17 9 -42q-7 -15 -37.5 -58t-115.5 -43l-468 -1q-68 -1 -105 25t-37 104l2 989q0 40 26 29q21 -9 57.5 -28.5t48.5 -24.5q21 -12 6 -33q-16 -22 -22.5 -34.5t-6.5 -45.5v-346z" />
    <glyph glyph-name="ampersand" unicode="&#x26;" 
d="M1068 1774v-259h303q25 0 45 17l27 27q41 39 86 2q12 -11 28.5 -25t28.5 -24q20 -18 25.5 -30.5t-33.5 -12.5l-510 -2v-275h300q26 0 46 18q9 8 27 26q41 41 86 2q12 -10 28 -24.5t29 -24.5q20 -18 25.5 -30.5t-33.5 -12.5l-508 -1v-268h638q13 14 25 28.5t20 21.5
q21 24 53 3q55 -39 90 -75q18 -22 3 -34q-7 -5 -21.5 -14.5t-26.5 -22.5q-18 -20 -20 -48q-15 -130 -38.5 -242.5t-45.5 -176.5q-23 -65 -71 -96.5t-102 -50.5q-55 -21 -69.5 -15t-23.5 33q-20 51 -83 75.5t-118 42.5q-50 15 -42 32t60 6q50 -13 135 -22q42 -6 77 -6t52 2
q15 1 45 20t45 61q12 34 38 167t34 265l-1228 -3v-46q0 -29 -24 -45q-16 -11 -54 -24q-24 -9 -24 26l1 1123q0 40 23 27q13 -9 44 -32.5t51 -35.5h954q25 0 45 17l13 13l14 14q41 40 86 2q12 -10 28.5 -24.5t28.5 -24.5q20 -18 25.5 -30.5t-33.5 -12.5zM940 668
q-20 24 -19 35t51 -13q57 -27 140.5 -106t52.5 -158q-20 -47 -57 -32q-41 14 -47.5 75t-120.5 199zM1292 714q-23 20 -21 32.5t53 -9.5q58 -27 124.5 -80.5t51.5 -128.5q-6 -32 -29.5 -42t-43.5 11q-31 30 -37.5 82.5t-97.5 134.5zM618 654q-13 27 -5.5 37.5t43.5 -29.5
q57 -65 82.5 -142.5t18.5 -130.5q-8 -59 -43.5 -61.5t-52.5 32.5q-19 38 -6 110t-37 184zM322 663q5 30 17.5 34t18.5 -50q7 -86 -19 -193t-63 -146q-39 -40 -72.5 -38t-48.5 14q-36 27 5 66q75 69 109 129.5t53 183.5zM494 877h488v268l-488 -2v-266zM494 1192h488v275
l-488 -1v-274zM494 1515h488v258l-482 -1q-6 -14 -6 -42v-215z" />
    <glyph glyph-name="asterisk" unicode="*" 
d="M302 1506h804l0.5 1t0.5 2q6 12 37.5 71t67.5 126t66 123.5t34 64.5q12 28 39 18q12 -5 72 -46t69 -47q28 -21 -8 -36q-21 -9 -43 -16t-45 -28q-24 -21 -121 -116.5t-109 -110.5q-2 -2 -3 -3.5t-2 -2.5h338q25 0 45 18q10 8 28 26q40 40 85 2q12 -10 28.5 -24.5
t28.5 -24.5q21 -18 26 -30.5t-34 -12.5l-610 -1q-30 -26 -30 -51v-299h359q25 0 46 18q9 8 27 26q41 40 86 2q12 -10 28 -24.5t29 -24.5q20 -18 25.5 -30t-33.5 -12l-567 -2v-347h590q25 0 46 18q9 8 27 26q41 40 86 3q12 -11 28.5 -25.5t28.5 -24.5q20 -18 25.5 -30
t-33.5 -12l-798 -2l-1 -460q0 -31 -24 -47q-6 -4 -38.5 -14t-47.5 -13q-24 -6 -24 24v509l-596 -1q-61 0 -91 -5l-35 -7q-21 -3 -30 12q-6 8 -11.5 16t-10.5 17q-11 16 7 16h767v346l-396 -1q-62 0 -91 -5l-35 -7q-21 -3 -31 12q-14 22 -22 33q-11 16 7 16h568l1 349
l-458 -1q-62 0 -91 -5l-35 -7q-21 -3 -30 12q-8 11 -22 33q-11 16 6 16zM605 1908q43 -21 132.5 -71t122.5 -122q24 -52 2.5 -96.5t-39.5 -58.5q-43 -37 -74 22q-15 29 -35.5 109.5t-131.5 183.5q-23 21 -12 32.5t35 0.5z" />
    <glyph glyph-name="parenleft" unicode="(" 
d="M999 1441h510q6 34 28 147t33 159l-303 -1q-24 -1 -46.5 -2t-43.5 -4l-35 -11q-22 -4 -31 11q-6 8 -11.5 16.5t-10.5 17.5q-11 16 7 16h467q15 25 33 52q14 25 30 12q13 -13 44.5 -45.5t37.5 -40.5q11 -14 -7 -28q-10 -9 -16 -13t-12 -10q-15 -11 -17 -27
q-5 -21 -24.5 -114t-28.5 -135h111q26 0 46 18q9 8 27 26q41 40 86 2q13 -11 44 -48q31 -38 -8 -39l-739 -3q-61 0 -90 -5l-35 -12q-21 -3 -30 12q-6 8 -11.5 16t-11.5 17q-11 16 7 16zM887 1894q4 32 29 20q10 -6 47.5 -34.5t46.5 -34.5q19 -17 4 -34q-9 -11 -27 -28.5
t-27 -49.5q-37 -132 -106 -300q19 -12 39 -25t29 -18q20 -13 6 -31q-29 -40 -27 -88q0 -29 -0.5 -180.5t-0.5 -331.5v-341v-208q0 -29 -24 -38q-9 -3 -25 -8l-32 -10q-24 -9 -24 25v201v306t0.5 332.5t0.5 281.5q-43 -95 -87 -177t-82 -133q-6 -8 -17 -22q5 -152 -1.5 -311
t-25.5 -267q-37 -207 -163 -255q-33 -12 -39 -3.5t-12 31.5q-20 73 -65.5 109t-80.5 51q-36 14 -24.5 20t38.5 0q27 -7 78 -14t84 -4q32 2 54.5 19t34.5 81q22 112 30 283.5t-6 346.5q-44 -89 -162 -258t-194 -236q-42 -38 -42 -20.5t21 44.5q141 177 236 386.5t117 320.5
q-18 88 -56 176q-58 -60 -114.5 -114.5t-117.5 -100.5q-35 -27 -37.5 -10t15.5 35q111 111 220 260q-65 116 -154 212q-25 24 -18.5 37.5t42.5 -8.5q107 -101 170 -185q52 75 92 143t65 120q9 19 18 33.5t27 -5.5q18 -21 42 -51.5t30 -37.5q5 -7 6 -22.5t-12 -18.5
q-3 0 -19.5 -5.5t-26.5 -17.5q-36 -42 -80 -97t-95 -111q49 -86 84 -205q24 -87 36 -263q2 3 4 7.5t5 8.5q19 37 59.5 133.5t83 217t79.5 247t51 224.5zM1493 765q43 -142 135.5 -243.5t265.5 -191.5q48 -26 31.5 -33t-30.5 -8q-68 -4 -110 -42q-33 -30 -52 -9
q-218 217 -284 527l-23 -1q-42 -175 -155 -331.5t-301 -258.5q-24 -13 -31 -1t11 28q93 78 184.5 180.5t160.5 266.5q18 44 32 116l-219 -1q-62 0 -91 -5l-35 -12q-21 -3 -30 12q-6 8 -11.5 16t-10.5 17q-11 16 7 16h398q1 10 2 20.5t3 21.5q6 59 8.5 127t5.5 137l-195 -1
v44h422q26 0 46 18q9 8 27 26q41 40 86 2q12 -11 22.5 -23.5t21.5 -24.5q31 -38 -8 -39l-306 -1q-20 -33 -20 -67q-3 -63 -4.5 -124.5t-10.5 -115.5h260q25 0 45 18q9 8 27 26q41 40 86 2q14 -12 44 -48q31 -38 -8 -38z" />
    <glyph glyph-name="parenright" unicode=")" 
d="M153 662h345q4 71 -1 150q-2 29 29 19q6 -3 42.5 -18t49.5 -20q30 -17 7 -31q-34 -21 -38 -71q0 -8 -0.5 -15t-0.5 -14h193q23 0 41 16q4 3 25 24q37 36 78 2q11 -10 25.5 -23t26.5 -22q18 -16 23 -27t-31 -11l-384 -3q-2 -24 -10 -68q119 -54 237.5 -125.5t114.5 -144.5
q-2 -48 -51 -46q-36 0 -100 91.5t-211 185.5q-27 -95 -89 -169q-72 -83 -159 -112.5t-153 -45.5q-34 -9 -38.5 2.5t24.5 23.5q120 47 220 131.5t125 276.5l-185 -1q-56 0 -82 -4l-32 -6q-20 -4 -28 10l-20 30q-10 15 7 15zM386 1771q136 18 250.5 54.5t162.5 63.5
q32 18 57 9q17 -7 54.5 -33t51.5 -35q22 -16 11 -28t-31 -12q-67 0 -109 -11q-21 -6 -188 -29.5t-263 -20.5q-14 -93 -80.5 -202.5t-134.5 -178.5q-25 -26 -31.5 -7.5t8.5 41.5q14 22 69.5 130.5t57.5 282.5l5.5 10t17.5 7q13 -4 40.5 -13.5t40.5 -13.5q11 -5 11 -14z
M798 949q3 0 7 0.5t7 1.5q-27 44 -56 83q-29 36 -21.5 44.5t36.5 -12.5q64 -46 128 -111.5t33 -122.5q-16 -32 -42 -24q-23 6 -27 29t-32 79q-14 -4 -25 -5q-174 -31 -275 -50.5t-161 -31.5q-68 -15 -87.5 -26.5t-31.5 -19.5q-29 -22 -43 11q-6 12 -22.5 44t-21.5 46
q-10 26 27 30q8 0 42 1.5t82 4.5q39 34 74 66t67 63q-29 4 -52 50.5t-131 130.5q-38 28 -32 39.5t39 -3.5q14 -7 29 -14l30 -14q33 44 55.5 89t40.5 91q20 51 46 37q16 -9 53 -29.5t52 -30.5q23 -19 -3 -36q-18 -12 -45 -27.5t-52 -38.5q-15 -14 -40 -35t-55 -47
q46 -27 78.5 -56.5t29.5 -62.5q100 106 155 209q25 48 46 38q15 -9 58.5 -32t52.5 -31q23 -19 -3 -36q-18 -12 -43 -25.5t-50 -36.5q-38 -35 -136 -114.5t-177 -138.5q117 6 238.5 13t157.5 11zM1567 1852q8 39 35 29q8 -4 50.5 -24t53.5 -25q10 -6 15.5 -18t-13.5 -20
q-15 -6 -36 -23t-39 -57q-17 -36 -46 -84.5t-70 -91.5h148q25 0 45 18q10 8 28 26q41 41 86 2q12 -10 28 -24.5t28 -24.5q21 -18 26 -30.5t-34 -12.5l-351 -1v-315h107q24 0 45 18q9 8 27 26q41 40 86 2q12 -10 28.5 -24.5t28.5 -24.5q20 -18 25.5 -30.5t-33.5 -12.5h-314
v-327h127q24 0 45 18q7 6 13.5 13t13.5 13q41 40 86 3q12 -11 28.5 -25t28.5 -24q20 -18 25.5 -30.5t-33.5 -12.5l-334 -1v-378h162q25 0 46 18l13 13l14 14q41 39 86 2q12 -11 28 -25t28 -24q21 -18 26.5 -30.5t-33.5 -12.5l-740 -2v-114q0 -29 -24 -45q-20 -15 -46 -24
q-24 -9 -24 25l1 1197q-83 -110 -163 -179q-59 -51 -67.5 -31.5t33.5 65.5q162 179 236.5 343t107.5 299q8 39 35 29q8 -4 50.5 -24t53.5 -25q10 -6 15.5 -18t-13.5 -20q-15 -6 -36 -22.5t-39 -57.5q-50 -109 -100 -192h277q55 93 78 167.5t41 146.5zM539 1661
q56 -42 98.5 -93.5t10.5 -108.5q-17 -29 -44 -19q-35 13 -30 56.5t-58 131.5q-28 39 -17.5 46.5t40.5 -13.5zM785 1704q71 -38 144 -92t50 -115q-12 -35 -38 -30q-34 3 -49 51.5t-118 149.5q-34 33 -28 42.5t39 -6.5zM1440 379v378l-289 -1v-377h289zM1440 803v326h-289
v-326h289zM1440 1176v315l-289 -1v-314h289z" />
    <glyph glyph-name="underscore" unicode="_" 
d="M1385 1241q12 14 25.5 32.5t21.5 27.5q20 23 38 6q13 -12 46 -44.5t40 -40.5q13 -19 0 -31q-32 -32 -27 -26q-15 -15 -15 -28l1 -539q0 -27 -16 -40q-11 -9 -38 -21t-36 -13q-19 -4 -19 26v139h-338v-125q0 -33 -24 -46q-26 -20 -56 -25q-24 -6 -24 23l1 785q0 27 21 13
q20 -13 43.5 -31t59.5 -42h296zM1076 1890q16 51 43 38q24 -12 59 -33.5t48 -30.5q29 -21 -2 -39q-33 -18 -44 -46q-7 -16 -19.5 -40t-24.5 -48q-14 -27 -29 -56t-32 -59h624q22 21 38 37t29 27q14 13 31 0q12 -12 45 -40t47 -40q14 -15 -1 -30q-16 -16 -31 -34
q-17 -21 -17 -49l-16 -857q-3 -122 -29.5 -235t-140.5 -177q-45 -25 -73.5 -35t-31.5 22q-7 63 -82.5 105t-121.5 57q-50 15 -55.5 29.5t46.5 5.5q27 -6 82 -15.5t87 -12.5q111 -12 154 43q29 37 36.5 89t7.5 87l14 970h-674q-57 -95 -121 -185.5t-119 -144.5
q-31 -30 -35.5 -17.5t7.5 32.5q167 273 218 423.5t83 258.5zM1095 1202q-26 -20 -26 -45l-1 -429h338l2 474h-313zM600 1272q-1 6 -5 20q-20 80 -62 161q-64 -54 -135.5 -108.5t-148.5 -104.5q-36 -24 -37.5 -6.5t18.5 32.5q69 55 136 121t128 134q-81 129 -200 227l-1 25
t40 -2q127 -97 210 -194q126 149 196 263q6 9 15.5 24.5t30.5 -2.5q19 -18 46 -44.5t33 -32.5q28 -32 -3 -39q-3 -1 -23.5 -9.5t-31.5 -20.5q-88 -98 -210 -209q63 -96 93 -198q50 -174 56 -454t-35 -465q-48 -222 -189 -268q-35 -12 -42 -3t-14 32q-26 79 -84.5 112
t-93.5 48q-36 15 -27.5 20t37.5 -1q28 -7 98.5 -14.5t103.5 -4.5q32 2 55.5 19t41.5 80q9 32 29 232.5t4 387.5q-47 -78 -194.5 -251t-237.5 -230q-48 -30 -46.5 -12.5t25.5 41.5q163 163 280 380t144 314z" />
    <glyph glyph-name="plus" unicode="+" 
d="M775 1270h418v275l-117 -1q-59 0 -87 -5l-33 -6q-21 -4 -30 11q-6 8 -11 15.5t-10 16.5q-10 16 7 16h281v280q0 43 34 28q23 -10 56 -26t45 -22q21 -11 6 -32q-29 -42 -29 -94v-134h32q24 0 44 16l26 26q38 38 83 2q11 -10 26.5 -24t27.5 -23l20 -20q72 108 114 192
q19 39 28 39t20 -7q10 -9 43.5 -38t40.5 -36q23 -24 -3 -42q-9 -6 -27 -19t-35 -38q-45 -66 -117 -157.5t-160 -192.5h207q26 0 46 17l13 13t14 13q40 40 86 3q12 -11 28 -25t29 -25q20 -18 25 -30t-34 -12l-456 -2q-24 -27 -48.5 -53t-48.5 -52q-79 -82 -172 -170h395
q7 8 33 35.5t35 36.5q22 23 43 4q12 -12 38 -45.5t32 -42.5q12 -19 1 -29q-8 -9 -16.5 -16.5t-11.5 -11.5q-15 -13 -15 -27l1 -621q0 -27 -17 -40q-10 -9 -40 -24.5t-38 -16.5q-21 -4 -19 25v129h-468v-86q0 -31 -24 -47q-21 -16 -61 -25q-24 -6 -24 24l1 641
q-175 -148 -291 -206q-10 -110 -28 -189q-48 -222 -189 -268q-35 -12 -42 -3t-14 32q-26 79 -84.5 112.5t-93.5 48.5q-36 14 -27.5 19t37.5 -1q28 -6 98.5 -14t103.5 -5q32 3 55.5 20t41.5 80q9 33 33 230t4 383q-16 -31 -66.5 -98.5t-115 -142.5t-131.5 -142t-115 -97
t-46.5 -12.5t25.5 41.5q161 161 274.5 372.5t143.5 311.5v0v1q-24 85 -69 171q-136 -116 -279 -209q-37 -24 -38 -6.5t18 32.5q127 102 260 250q-84 127 -194 217l-1 25t40 -2q124 -94 202 -185q63 75 113 143t80 116q6 10 15.5 25.5t30.5 -2.5q19 -18 46 -44.5t33 -32.5
q29 -32 -3 -40q-3 0 -23.5 -8.5t-31.5 -20.5q-81 -92 -206 -204q69 -102 100 -209q36 -126 47.5 -305.5t-0.5 -347.5q130 89 287 243v133q0 22 21 13q27 -15 75 -48q102 107 207 235l-359 -2q-61 0 -90 -5l-35 -6q-21 -4 -31 11q-20 30 -22 34q-11 16 7 16zM1304 1270h40
q108 134 206 278q-3 0 -6.5 -0.5t-7.5 -0.5l-231 -1zM1578 342l1 282h-468l-1 -282h468zM1579 663l1 245h-466q-2 -2 -2 -3l-1 -242h468z" />
    <glyph glyph-name="Q" unicode="Q" 
d="M650 1718h671q12 10 34.5 29t31.5 26q26 21 43 9q14 -12 62 -49t56 -44q18 -19 2 -35q-10 -10 -20 -18.5t-14 -13.5q-17 -17 -17 -33t-0.5 -205t-1 -411.5t-0.5 -409v-197.5q0 -33 -12 -42q-12 -10 -52.5 -20t-50.5 -12q-25 -4 -23 30v54t1 128h-734q0 -62 -0.5 -105
t-0.5 -59q-1 -31 -11 -39.5t-17 -13.5q-9 -6 -34.5 -14.5t-43.5 -12.5q-29 -7 -29 28v233v499t0.5 501t1.5 239q0 23 21 17q25 -9 58 -23q30 -13 79 -36zM626 542h734v257.5t1 292.5h-735q1 -310 0 -550zM626 1130h735q0 196 0.5 353.5t0.5 196.5h-720q-15 -23 -16 -57
v-154.5v-338.5z" />
    <glyph glyph-name="W" unicode="W" 
d="M1464 1788q11 11 28.5 32.5t32.5 36.5q15 17 32 1t39.5 -33t47.5 -47q28 -32 2 -48q-18 -12 -29 -21t-11 -37q-4 -298 -2 -597t5 -596q0 -44 0.5 -92t-26.5 -84q-26 -34 -81 -60q-62 -30 -79.5 -28.5t-14.5 34.5q3 48 -67.5 84.5t-116.5 50.5q-50 15 -56.5 26.5t45.5 4.5
q21 -3 54 -8t66 -8q48 -6 98.5 -3.5t52.5 72.5q4 253 6 468h-640q-18 -250 -135.5 -433.5t-291.5 -303.5q-42 -30 -37 -8t38 53q137 130 224.5 350.5t87.5 455.5v183v260v233v101q0 32 31 15q7 -4 45.5 -24t62.5 -37h582l2.5 2.5zM852 974h638v183v184h-637v-187v-136
q0 -12 -0.5 -23t-0.5 -21zM853 1381h637q-1 86 -2 175.5t-2 184.5h-595l-24 -20q-11 -9 -12 -42q-1 -9 -1.5 -98t-0.5 -200z" />
    <glyph glyph-name="E" unicode="E" 
d="M1215 871q98 -195 245 -314t390 -200q54 -18 32.5 -31.5t-39.5 -16.5q-12 -3 -48 -14.5t-66 -47.5q-26 -33 -54 -13q-168 109 -317 248.5t-228 381.5q-23 68 -45.5 199.5t-40.5 256.5q-10 -148 -33 -298.5t-76 -275.5q-74 -175 -228 -295q-132 -104 -268.5 -168.5
t-236.5 -94.5q-38 -11 -40 5q-1 9 46 32q97 46 224 132q132 90 238.5 195t164.5 258q24 64 46.5 176t33.5 243q16 199 15.5 383.5t-0.5 222.5q0 26 16.5 28.5t26.5 -0.5q10 -4 69 -26t70 -28q10 -6 20 -19.5t-10 -26.5q-24 -14 -38.5 -34t-18.5 -73q-4 -41 -6.5 -85.5
t-5.5 -92.5q13 -156 53.5 -298.5t73.5 -226.5q86 95 188 243.5t131 229.5q17 48 45 24q7 -7 52 -44.5t54 -46.5q26 -29 -7 -39q-58 -18 -106 -70t-102 -104q-58 -56 -116 -115.5t-124 -115.5q12 -28 20 -44zM568 1364q3 -12 9 -57.5t9 -100.5q3 -88 -15.5 -150.5
t-36.5 -86.5q-32 -44 -79 -64q-22 -9 -52 -10t-46 20q-30 38 -3 87q17 30 46.5 46.5t52.5 42.5q55 64 76 165q6 30 7 66.5t2 44.5q0 18 13.5 12.5t16.5 -15.5z" />
    <glyph glyph-name="R" unicode="R" 
d="M1271 1066q96 -174 259 -343.5t324 -221.5q55 -18 31.5 -28t-41.5 -12q-40 -6 -66 -14.5t-59 -42.5q-28 -30 -54 -8q-159 123 -267.5 281t-202.5 401q-21 52 -44.5 127t-44.5 152q-1 -228 -1.5 -507.5t1.5 -434.5q0 -43 0.5 -91t-26.5 -85q-26 -34 -80 -60
q-63 -30 -80 -28t-14 35q3 48 -68 84t-116 51q-51 15 -57.5 26t45.5 4q22 -3 54.5 -8t65.5 -8q48 -6 99 -3t52 72q7 365 3 731t-7 730q-2 42 34 30q9 -5 68 -27t70 -27q10 -6 20 -20t-9 -26q-46 -26 -50 -66q-2 -22 -2 -64.5v-64.5q0 -12 -0.5 -26t-0.5 -29
q26 -117 58.5 -215.5t60.5 -164.5q112 90 217.5 207.5t136.5 167.5q25 40 42 25q8 -8 52.5 -45t53.5 -46q24 -30 -7 -40q-56 -18 -106 -50.5t-98 -63.5q-71 -47 -140 -91.5t-142 -83.5q18 -45 36 -79zM660 1332q16 17 39 43t29 33q17 21 36 11q15 -9 67 -55l52 -46l6 -7.5
t-6 -19.5t-32.5 -19t-32.5 -51q-36 -130 -84 -235.5t-104 -203.5q-78 -136 -181 -252.5t-235 -202.5q-49 -33 -56 -20.5t33 47.5q145 124 221 236.5t124 207.5q42 83 90 257.5t55 227.5q-93 0 -163.5 -0.5t-100.5 -0.5q-61 0 -90 -5l-35 -6q-21 -4 -31 11q-20 30 -22 34
q-11 16 7 16h414z" />
    <glyph glyph-name="T" unicode="T" 
d="M268 1429h693v261.5v168.5q0 36 7 38.5t19 -0.5q21 -9 68 -27t63 -25q25 -14 7 -37q-36 -50 -34 -109v-92v-178h474q26 0 46 17l27 27q40 39 86 2q12 -11 28 -25t28 -24q50 -43 -8 -43q-36 0 -219.5 -1t-403.5 -1q28 -92 54.5 -157.5t41.5 -93.5q91 -176 270 -338.5
t340 -214.5q55 -19 31.5 -28.5t-41.5 -11.5q-40 -6 -65.5 -15t-53.5 -37t-55 -8q-167 121 -284.5 272t-211.5 394q-18 44 -36 107t-34 131h-7.5h-6.5q0 -151 -0.5 -335.5t-0.5 -354v-299.5v-171q0 -26 -2.5 -31.5t-27.5 -15.5q-12 -4 -31 -10t-39 -12q-31 -10 -31 31
q0 106 0.5 419.5t1.5 628.5q-45 -102 -131.5 -225.5t-192.5 -242.5t-219.5 -218.5t-213.5 -152.5q-34 -18 -45 -10t22 35q239 201 425 444t287 520q-160 -1 -286 -1.5t-168 -0.5q-61 0 -90 -5l-35 -6q-21 -4 -31 11q-20 30 -22 34q-11 16 7 16z" />
    <glyph glyph-name="Y" unicode="Y" 
d="M579 1143h616q25 0 45 17l13 13l14 14q41 40 86 2q12 -11 28.5 -25t28.5 -24q20 -18 25.5 -30.5t-33.5 -12.5q-40 0 -138 -1t-207 -1v-308h370q25 0 46 18q9 8 27 26q41 40 86 3q12 -11 28.5 -25t28.5 -25q20 -18 25.5 -30t-33.5 -12q-39 -1 -211.5 -1.5t-366.5 -0.5
v-491h100q63 90 121.5 211.5t73.5 175.5q12 47 34 33q9 -6 56 -33.5t57 -34.5q20 -17 -10 -40q-37 -27 -76 -80q-18 -24 -95 -116t-91 -109q-2 -2 -3.5 -4t-2.5 -3h369q25 0 46 18q9 8 27 26q40 40 86 3q12 -11 28 -25t28 -25q21 -18 26 -30t-34 -12q-36 -1 -237 -1.5
t-439.5 -1t-450.5 -1t-269 -0.5q-61 0 -90 -5l-36 -7q-21 -3 -30 12q-14 22 -22 33q-11 16 7 16h699v491q-131 -1 -236.5 -1.5t-147.5 -0.5q-61 0 -91 -5l-35 -7q-21 -3 -30 12q-6 8 -11.5 16t-10.5 17q-11 16 7 16h555v308q-54 -1 -100 -1h-79q-25 -1 -47 -2t-43 -4l-36 -6
q-20 -4 -30 11q-12 18 -22 34q-11 16 7 16zM1067 1739q115 -199 312.5 -340.5t448.5 -218.5q55 -18 40.5 -24t-26.5 -10q-12 -5 -50.5 -24.5t-53.5 -39.5q-22 -31 -52 -18q-168 66 -348 227.5t-295 398.5q-5 7 -7 14q-162 -183 -346 -363t-473 -339q-22 -13 -32 0
q-19 21 5 33q111 69 244 190t248 256q81 95 144 186.5t102 163.5q22 38 50 20q18 -12 62 -37.5l44 -25.5l2 -11t-19 -38zM552 658q11 -6 50 -31.5t80 -62.5q76 -68 88 -134q9 -51 -4 -80t-22 -41q-13 -20 -33 -18q-23 2 -33.5 27.5t-13.5 43.5q-10 49 -25.5 94.5t-45.5 93.5
q-44 66 -63 89q-13 12 0 18t22 1z" />
    <glyph glyph-name="U" unicode="U" 
d="M311 1221l647 2v565q0 38 35 27q28 -9 82 -31t69 -29q26 -13 -6 -40q-25 -21 -36.5 -38.5t-11.5 -56.5v-397l424 1q26 0 46 17l13 13l14 14q40 40 85 2q12 -11 28.5 -25t28.5 -24q50 -43 -8 -43q-38 0 -226 -1t-405 -2v-883h543q25 0 46 18q9 8 27 26q40 40 86 3
q12 -11 28 -25t29 -25q20 -18 25 -30t-34 -12q-36 -1 -250.5 -1.5t-469 -1t-480 -1t-282.5 -0.5q-61 0 -90 -5l-36 -7q-21 -3 -30 12q-14 22 -22 33q-11 16 7 16h770v883q-164 -2 -296.5 -2.5t-178.5 -0.5q-61 0 -90 -5l-36 -7q-21 -3 -30 12q-14 22 -22 33q-11 16 7 16z
" />
    <glyph glyph-name="I" unicode="I" 
d="M1315 549q0 -78 1 -87q6 -72 29 -92.5t100 -23.5q45 -3 115.5 -2t91.5 4q70 9 92.5 57t34.5 110q7 40 16.5 92.5t14.5 84.5q6 45 20.5 46.5t10.5 -64.5q-8 -117 7.5 -190t36.5 -93q15 -14 27 -26.5t0 -31.5q-43 -68 -90 -93t-153 -26q-48 -1 -156 -1.5t-120 0.5
q-108 1 -153.5 48t-47.5 190l1 1403q0 56 33 43q33 -14 59 -28.5t58 -30.5q34 -19 10 -40q-37 -34 -37 -102v-551q116 97 221 229q48 60 86.5 117.5t58.5 91.5q24 44 47 24q7 -8 49 -45.5t50 -46.5q26 -30 -5 -40q-48 -15 -76.5 -44t-88.5 -77q-64 -54 -164.5 -140
t-177.5 -131zM699 576l1 741q-122 0 -211 -0.5t-122 -0.5q-61 0 -91 -5l-35 -6q-21 -4 -30 11q-6 8 -11.5 16.5t-10.5 17.5q-11 16 7 16h504v492q0 36 7 38.5t19 -0.5q22 -9 69 -35t62 -32q26 -14 8 -40q-20 -27 -27.5 -42t-7.5 -55v-1438q0 -35 -30 -56q-11 -7 -30.5 -23
t-40.5 -23q-30 -10 -30 32v355q-2 0 -3 -1q-27 -4 -99 -26.5t-150 -49t-143 -50t-77 -27.5q-26 -11 -32 -5t-14 20q-9 14 -24 42t-24 51q-10 21 9 24t37 5q7 0 70.5 6.5t147 15.5t168 17.5t134.5 14.5z" />
    <glyph glyph-name="O" unicode="O" 
d="M166 1625h794q8 84 15 153t8 80q1 46 25 39q18 -7 60 -34t51 -33q21 -16 -4 -43q-27 -27 -32 -53q-1 -7 -4.5 -37t-8.5 -72h584q25 0 45 17l27 27q41 39 86 2q12 -11 28.5 -25t28.5 -24q50 -43 -8 -43q-38 0 -279 -1t-517 -1q-7 -64 -14 -128.5t-10 -96.5h509
q12 18 32.5 48t23.5 36q14 25 31 6l50 -60t44 -53q13 -17 2 -29q-4 -5 -31 -32q-7 -7 -7 -21v-830q0 -44 -0.5 -96t-23.5 -83q-10 -13 -30 -32.5t-35 -27.5q-60 -34 -65.5 -29t-7.5 38q-4 51 -55 106t-96 72q-43 15 -51.5 31t44.5 7q18 -3 54 -11t69 -11q48 -5 63 9t15 84
l3 819h-1062q-8 -6 -10 -8q-23 -23 -23 -67l-2 -924q0 -30 -8.5 -37.5t-17.5 -16.5q-19 -18 -56 -39q-27 -16 -27 28l1 1199q0 33 21 17q29 -21 60 -46.5t61 -46.5h415q3 27 9.5 89.5t14.5 135.5q-218 -1 -393.5 -1.5t-223.5 -0.5q-62 0 -91 -5l-35 -6q-21 -4 -31 11
q-20 30 -22 34q-11 16 7 16zM741 1238q197 -95 201 -171t-32 -101q-12 -7 -13 -8h133q41 60 92.5 159.5t60.5 135.5q8 34 33 25q17 -7 52 -33t44 -32q23 -17 -7 -27q-24 -8 -43 -29q-26 -28 -78.5 -86.5t-100.5 -112.5h107q22 0 42 17q4 3 25 24q39 36 79 2q11 -10 26 -23
t27 -22q45 -40 -8 -40q-37 0 -130 -1t-197 -1v-204h219q24 0 42 16q9 8 25 24q38 37 80 2q25 -21 52 -45q45 -39 -7 -40q-38 0 -158.5 -0.5t-252.5 -0.5l-1 -298q0 -34 -11 -43q-29 -23 -78 -34q-23 -4 -23 31v343q-72 0 -131.5 -0.5t-92.5 -0.5q-57 0 -84 -5l-33 -6
q-19 -3 -28 11q-11 17 -20 31q-10 15 6 15h383v204q-50 -1 -93 -1h-73q-57 0 -84 -5l-32 -6q-20 -3 -28 11q-14 20 -21 31q-10 14 7 14h237q-10 11 -13 31q-4 24 -27.5 94t-89.5 127q-21 18 -11 27t28 1z" />
    <glyph glyph-name="braceleft" unicode="{" 
d="M188 1723h1444q25 0 46 18q9 8 27 26q41 40 86 2q12 -10 28.5 -24.5t28.5 -24.5q20 -18 25.5 -30t-33.5 -12q-31 -1 -194.5 -1.5t-374.5 -0.5v-294h281q12 16 33.5 44t27.5 34q14 14 35 1q18 -12 52.5 -44t47.5 -44q16 -16 0 -32q-8 -9 -20 -19t-18 -16q-10 -13 -10 -30
l-2 -929q0 -34 -12 -43q-42 -33 -83 -41q-23 -5 -23 29v139h-1075v-89q0 -28 -26 -46q-37 -29 -63 -36q-26 -8 -26 30l1 1128q1 26 25 14q28 -15 52 -27.5t45 -22.5h268v293q-153 0 -268.5 -0.5t-153.5 -0.5q-61 0 -91 -5l-35 -7q-21 -3 -30 12q-6 8 -11.5 16t-10.5 17
q-11 16 7 16zM1203 1676q-72 0 -144 -0.5t-142 -0.5q-18 -22 -18 -47v-246h252v291zM1271 917l4.5 -32t46.5 -30q53 1 75 6.5t49 14.5q36 9 53 -7q43 -42 58 -66q13 -27 -27 -32q-52 -6 -147.5 -4.5t-106.5 1.5q-24 1 -74.5 15.5t-50.5 105.5v455h-252v-44
q0 -73 -9.5 -164.5t-33.5 -161.5q-50 -144 -158.5 -230t-192.5 -119v-156h1075l1 875h-310v-427zM505 666q137 98 191 204.5t78 230.5q9 51 8.5 116.5t-0.5 126.5h-251q-25 -23 -25 -63z" />
    <glyph glyph-name="P" unicode="P" 
d="M199 1609h748v149v101t7 38.5t18 -0.5q22 -9 69 -27t62 -25q26 -12 8 -37q-19 -27 -27 -48t-8 -61q0 -9 0.5 -32.5t0.5 -57.5h526q24 0 45 18q9 8 27 26q41 40 86 2q12 -10 28.5 -24.5t28.5 -24.5q20 -18 25.5 -30.5t-33.5 -12.5q-38 0 -258 -0.5t-475 -0.5v-91.5v-106.5
h343q10 9 35 30t35 29q27 20 43 9q14 -12 57 -49t51 -45q18 -19 2 -35q-26 -24 -34 -32q-17 -17 -17 -33t-0.5 -85.5t-1 -149t-0.5 -147v-78.5q0 -34 -12 -43q-12 -10 -47.5 -20t-45.5 -11q-25 -4 -23 30q0 6 0.5 34t0.5 70h-338q13 -20 27 -36q119 -135 326.5 -270.5
t372.5 -165.5q56 -11 34.5 -23.5t-39.5 -17.5q-72 -17 -110 -66q-25 -31 -52 -14q-180 97 -332 229.5t-270 330.5q-2 4 -6 10v-377v-217q0 -26 -2.5 -31.5t-27.5 -15.5q-12 -4 -31 -10t-40 -12q-30 -10 -30 31q0 68 0.5 227t0.5 357q-144 -175 -356.5 -350t-383.5 -240
q-36 -14 -46 -5t26 32q421 275 663 634h-286q-1 -34 -1 -83q-1 -30 -11.5 -39t-17.5 -14q-26 -16 -68 -24q-28 -7 -28 28v115v238.5v240t1 120.5q2 27 22 17q48 -20 67 -30q18 -11 38 -23t36 -20h346v102v95q-202 0 -365.5 -0.5t-211.5 -0.5q-61 0 -90 -5l-35 -7
q-21 -3 -31 12q-14 22 -22 33q-11 16 7 16zM1465 1320h-388v-96.5v-100.5h387q0 64 0.5 117t0.5 80zM1464 1078h-387q0 -48 -0.5 -97.5t-0.5 -97.5h387q0 44 0.5 94.5t0.5 100.5zM946 883v97v98h-383v-99v-96h383zM946 1123q0 50 0.5 99.5t0.5 97.5h-378q-5 -17 -6 -36v-54
v-107h383z" />
    <glyph glyph-name="braceright" unicode="}" 
d="M747 1591q114 -207 293 -350q93 78 177.5 176.5t120.5 173.5h-591zM567 539q290 -42 530.5 -108.5t270.5 -201.5q16 -77 -20.5 -105.5t-74.5 10.5q-69 69 -256 188.5t-454 182.5q-55 12 -47 26t51 8zM898 858q-28 24 -18.5 33t44.5 -4q48 -18 99.5 -39.5t88.5 -52.5
q66 -59 66 -118q0 -29 -28 -67t-67 -11q-45 29 -44 79t-141 180zM1340 1649q24 18 50.5 38t32.5 25t20.5 13t29.5 -10q15 -20 52.5 -64t44.5 -50q18 -19 -6 -32q-14 -8 -38.5 -19.5t-38.5 -26.5q-93 -105 -177.5 -192t-169.5 -161q145 -94 334.5 -162.5t431.5 -120.5
q50 -11 36.5 -22.5t-38.5 -14.5q-78 -12 -132 -78q-11 -13 -19.5 -17.5t-38.5 7.5q-165 58 -343 142.5t-319 195.5q-198 -153 -406.5 -241.5t-470.5 -162.5q-72 -21 -70.5 -3.5t55.5 37.5q204 73 417.5 197t384.5 253q-68 71 -138.5 178.5t-112.5 197.5q-2 4 -2 5
q-92 -122 -215 -249t-261 -230q-26 -19 -33 -7.5t17 36.5q180 176 323.5 385.5t218.5 413.5q14 42 43 19q12 -12 65 -36.5t77 -38.5q22 -15 7.5 -21.5t-28.5 -12.5q-12 -6 -40.5 -21t-49.5 -52q-26 -45 -61 -98h568z" />
    <glyph glyph-name="A" unicode="A" 
d="M280 1700h614q23 100 38 194q7 49 38 37q9 -4 59.5 -27.5t63.5 -29.5q36 -21 0 -39q-18 -9 -31 -23.5t-30 -71.5q-8 -26 -11 -40h458q26 0 46 17l13 13l14 14q41 41 86 2q12 -11 28.5 -25t28.5 -24q20 -18 25.5 -30.5t-33.5 -12.5q-40 0 -246.5 -1t-434.5 -1
q-27 -88 -55 -162h388q26 0 45 17q10 9 28 27q41 39 85 2q12 -11 28.5 -25t28.5 -24q50 -43 -8 -43q-43 0 -231 -1t-383 -1q-40 -94 -88 -177h746q26 0 46 17l13 13l14 14q41 41 86 2q12 -11 28.5 -25t28.5 -24q20 -18 25.5 -30.5t-33.5 -12.5q-32 0 -192.5 -0.5
t-365.5 -0.5q120 -153 279.5 -221.5t330.5 -101.5q58 -12 34 -23.5t-42 -14.5q-40 -8 -68 -16t-58 -45q-15 -19 -51 -2q-148 69 -271.5 182t-209.5 242q-93 -1 -187.5 -1h-182.5q-91 -142 -212 -256q20 -13 48.5 -32t52.5 -34h571q12 15 30.5 37.5t21.5 27.5q15 17 31 9
q13 -7 55 -38.5l54 -40.5q14 -13 -2 -26q-8 -7 -16 -13.5l-8 -6.5q-12 -16 -12 -42l-1 -595q0 -26 -14 -35q-34 -23 -77 -36q-27 -9 -27 15v139h-632v-90q0 -31 -10.5 -39.5t-17.5 -13.5q-8 -6 -28 -17.5t-38 -14.5q-28 -7 -28 28l1 777q-160 -139 -370 -241
q-22 -11 -26.5 -2t16.5 24q152 103 286 224.5t238 291.5q-119 -1 -206 -1.5t-119 -0.5q-61 0 -90 -5l-36 -6q-21 -4 -30 11q-12 18 -22 34q-11 16 7 16h524q43 76 85 176q-95 0 -169 -0.5t-109 -0.5q-62 0 -91 -5l-35 -6q-21 -4 -31 11q-20 30 -22 34q-11 16 7 16h468
q28 76 51 162q-150 0 -269 -0.5t-161 -0.5q-25 -1 -47.5 -2t-43.5 -4l-35 -6q-21 -3 -30 11q-19 28 -23 34q-10 16 7 16zM1309 335v238h-632v-238h632zM1309 618v236h-613q0 -2 -2 -2q-10 -11 -13.5 -23.5t-3.5 -51.5v-159h632z" />
    <glyph glyph-name="S" unicode="S" 
d="M285 1806h1318q26 0 46 17l13 13t14 13q41 40 86 3q12 -11 28 -25t29 -24q20 -18 25 -30.5t-34 -12.5t-268 -1t-482 -1q-19 -24 -60 -75.5t-62 -76.5h474q10 12 27 32t26 29q22 22 40 9q15 -12 51 -40.5t45 -37.5q17 -18 2 -35l-23 -23q-10 -10 -10 -58l-2 -501
q0 -32 -13 -43q-9 -7 -42 -18t-42 -13q-23 -4 -23 30v68h-557q24 -17 29 -21t12 -8q21 -14 4 -30q-15 -13 -52 -52t-46 -49q-5 -6 -8 -10t-5 -7h463q10 12 28 30.5l18 18.5l8.5 10t29.5 1q19 -11 72.5 -45.5t64.5 -43.5q28 -24 -5 -32q-18 -5 -51.5 -23.5t-54.5 -42.5
q-105 -119 -237 -211q9 -5 18 -9l18 -8q135 -58 305.5 -93t317.5 -39q62 -2 45 -16.5t-43 -17.5q-75 -12 -115 -84q-18 -31 -51 -22q-268 66 -441 144q-85 37 -151 81q-187 -112 -400.5 -174.5t-423.5 -74.5q-53 -4 -59 8.5t57 24.5q161 30 283.5 68t221.5 81
q135 59 238 129q-125 105 -211 272q-76 -78 -139.5 -120t-160.5 -101q-35 -21 -38.5 -5.5t17.5 30.5q90 66 194 184.5t161 239.5q6 12 9 17h-168v-50q0 -31 -9 -36l-18 -10q-27 -16 -54 -22q-28 -6 -28 29l1 727q0 25 21 17q28 -12 53.5 -26t51.5 -28h214q7 20 19 61t20 91
q-163 -1 -290.5 -1.5t-169.5 -0.5q-61 0 -90 -5l-35 -7q-21 -3 -31 12q-20 30 -22 34q-11 16 7 16zM645 1050h803l-1 135h-801zM646 1231h801v143h-801v-143zM1447 1560h-800l-1 -140h801v140zM1276 778h-465q97 -143 247 -233q72 59 124 118.5t94 114.5z" />
    <glyph glyph-name="D" unicode="D" 
d="M159 1347h356v193.5v166.5q-96 -12 -183.5 -21t-155.5 -11q-30 -1 -25 9.5t22 13.5q261 45 366.5 83.5t243.5 89.5q45 18 55 10q11 -10 46.5 -57t39.5 -63q5 -22 -27 -20q-20 0 -43.5 4.5t-91.5 -4.5q-33 -5 -65 -9.5t-65 -8.5q0 -34 0.5 -136t0.5 -240h59q25 0 45 17
q7 6 13.5 13t14.5 14q40 40 85 2q12 -11 28.5 -25t28.5 -24q50 -43 -8 -43q-36 0 -109 -1t-157 -1q0 -49 -0.5 -101.5t-0.5 -105.5q35 -12 75 -32t83 -42q63 -33 99 -81t9 -109q-19 -47 -59 -45q-41 1 -56 45q-14 39 -27.5 78.5t-52.5 81.5q-15 16 -35 30.5t-36 26.5v-506
v-302q0 -36 -31 -57q-10 -7 -25.5 -18.5t-35.5 -20.5q-15 -8 -20.5 -6.5t-5.5 32.5v349.5t1 546.5q-58 -114 -138.5 -239t-230.5 -266q-37 -35 -41.5 -23t22.5 45q36 46 163 257t193 461h-83h-70q-24 -1 -46.5 -2t-43.5 -4l-35 -6q-21 -4 -31 11q-20 30 -22 34q-11 16 7 16z
M1374 1502q6 -96 15 -197t26 -201q75 73 156 193t112 189q17 37 40 17q15 -15 53 -51t49 -47q18 -18 -5 -27q-15 -6 -39 -17t-46 -28q-42 -33 -151.5 -139.5t-157.5 -152.5q45 -231 153 -421t334 -267q36 -13 29.5 -25t-28.5 -15q-23 -4 -68 -14.5t-78 -48.5
q-13 -15 -17.5 -22.5t-19.5 5.5q-62 52 -139 141t-131 244q-47 134 -78 288.5t-38 310.5q-1 -5 -1 -15q-9 -195 -40 -388.5t-118 -323.5q-66 -96 -155.5 -180t-212.5 -141q-28 -14 -37 -4.5t13 25.5q100 70 191 174q125 141 172.5 285.5t65.5 362.5q5 69 11.5 141.5
t8.5 174.5q2 166 -2.5 342t-4.5 214q0 25 16 28t27 0l69 -34.5t70 -35.5q10 -6 19.5 -19t-9.5 -26q-33 -25 -45 -42t-12 -61q0 -45 0.5 -93t1.5 -99h0.5h0.5zM1051 1410q0 31 13 37.5t26 -49.5q17 -76 12.5 -203.5t-44.5 -168.5q-41 -41 -84.5 -43t-60.5 8q-39 21 -5 62
q69 82 104 154t39 203z" />
    <glyph glyph-name="F" unicode="F" 
d="M180 1160h783q0 173 1.5 346t-1.5 347q0 36 8 41t20 2q21 -9 70.5 -34t64.5 -33q31 -19 9 -41q-6 -6 -14.5 -12t-16.5 -12q-23 -23 -23 -69v-114.5v-151v-133.5v-62q0 -32 -23 -50l-33 -24h585q25 0 45 17l13 13l14 14q41 40 86 2q12 -11 28.5 -25t28.5 -24
q20 -18 25.5 -30.5t-33.5 -12.5q-30 0 -187 -0.5t-361 -0.5q0 -43 -0.5 -143.5t-1 -206.5t0 -192t2.5 -99q6 -72 28.5 -99t97.5 -30q44 -2 141 -0.5t118 4.5q68 8 89 54t30 108q5 39 10 79.5t5 71.5q-1 44 14.5 52t17.5 -58q4 -225 69 -271q35 -25 19 -51q-63 -97 -238 -98
q-47 -1 -182 -1.5t-147 0.5q-88 2 -141 34.5t-55 142.5q-2 46 -2 146t1 210t2 208t2 139q-65 -1 -130 -1h-127q15 -430 -144 -642q-108 -145 -290.5 -219t-279.5 -98q-25 -6 -43.5 0t29.5 27q149 63 277 134.5t209 200.5q125 195 115 597q-150 -1 -263 -1h-150
q-25 -1 -47.5 -2t-43.5 -4l-35 -6q-21 -4 -30 11q-19 28 -23 34q-10 16 7 16zM1259 1288q84 114 169 252t112 195q19 40 39 24q8 -7 58 -44t62 -46q34 -26 -5 -40q-53 -18 -92.5 -53.5t-93.5 -88.5q-63 -61 -114.5 -115t-112.5 -108q-14 -13 -23 -4q-12 10 1 28zM380 1719
q42 -21 176 -96.5t168 -135.5q32 -57 16 -109.5t-31 -70.5q-12 -16 -30 -27.5t-40 12.5q-33 33 -44 86.5t-77 147.5q-28 39 -61 79t-94 89q-19 15 -6.5 22.5t23.5 2.5z" />
    <glyph glyph-name="G" unicode="G" 
d="M211 1770h1398q26 0 46 17l27 27q41 39 86 2q12 -11 28.5 -25t28.5 -24q20 -18 25.5 -30.5t-33.5 -12.5t-264 -1t-483 -1v-262h441q11 11 28 32t32 36q16 16 32 1q17 -16 48.5 -34.5t56.5 -47.5q27 -33 2 -48q-18 -12 -29 -21t-11 -38l3 -863q0 -44 0.5 -92t-26.5 -85
q-26 -34 -81 -60q-62 -30 -79.5 -28t-14.5 35q3 48 -67.5 84t-116.5 51q-50 15 -57 26.5t46 3.5q21 -3 54 -8t66 -8q47 -6 95.5 -3t48.5 73l-1 951h-470l-1 -1087q-1 -30 -11 -39t-17 -14q-9 -5 -31 -16.5t-40 -15.5q-28 -6 -28 28l1 1144h-439q-10 -22 -10 -47l-2 -1063
q0 -31 -10.5 -39.5t-17.5 -13.5q-30 -21 -75 -32q-29 -7 -29 28l1 1257q0 24 22 17q4 -2 23 -9.5t32 -12.5q10 -5 42 -20t49 -22h414v262q-198 -1 -356 -1.5t-205 -0.5q-61 0 -91 -5l-35 -6q-21 -4 -30 11q-11 17 -22 33q-11 17 7 17zM640 860q48 -15 107.5 -50t67.5 -93
q5 -44 -4 -70t-17 -40q-24 -41 -59 4q-16 20 -25 61.5t-37 79.5q-45 57 -65 78q-18 17 -2 26.5t34 3.5zM1218 860q48 -15 107.5 -50t66.5 -93q6 -44 -3 -70t-17 -40q-24 -41 -59 4q-16 20 -25.5 61.5t-36.5 79.5q-45 57 -65 78q-18 17 -2.5 26.5t34.5 3.5zM640 1238
q48 -15 107.5 -50.5t67.5 -92.5q5 -45 -4 -70.5t-17 -39.5q-24 -41 -59 4q-16 19 -25 61t-37 79q-29 37 -42.5 53.5t-22.5 25.5q-18 16 -2 25.5t34 4.5zM1218 1238q48 -15 107.5 -50.5t66.5 -92.5q6 -45 -3 -70.5t-17 -39.5q-24 -41 -59 4q-16 19 -25.5 61t-36.5 79
q-29 37 -42.5 53.5t-22.5 25.5q-18 16 -2.5 25.5t34.5 4.5z" />
    <glyph glyph-name="H" unicode="H" 
d="M330 1881q59 -14 160 -63q66 -33 106.5 -80t8.5 -113q-22 -45 -60 -43q-31 0 -49 48q-23 69 -105 151q-54 51 -80 70q-21 13 -12.5 24.5t31.5 5.5zM976 868h216l1 417h-218zM1192 826h-216v-129q0 -18 -17 -26q-24 -13 -79 -28q-27 -9 -27 28v683q0 33 34 16l87 -43h189
q10 12 28.5 32.5t28.5 30.5q23 23 40 13q14 -9 55 -37t50 -35q16 -15 -2 -33q-9 -10 -17.5 -16.5t-13.5 -11.5q-15 -15 -15 -36l-2 -466q0 -36 -11 -41q-14 -7 -47.5 -18t-43.5 -12q-22 -6 -22 29zM745 1746h936q25 0 45 17l13 13l14 14q41 39 86 2q12 -11 28.5 -25
t28.5 -24q20 -18 25.5 -30.5t-33.5 -12.5q-23 0 -86 -0.5t-149 -0.5q-1 -23 -1 -46v-37q-1 -91 -2 -249t-1 -331.5v-337.5t2 -267q0 -44 -3 -92.5t-34 -78.5q-12 -12 -33 -29t-55 -33q-108 -52 -110 -6q-3 57 -95.5 91.5t-138.5 49.5q-50 15 -56.5 27.5t45.5 5.5
q22 -3 83 -10.5t94 -9.5q53 -4 109.5 0t58.5 74q6 318 3 638.5t-6 640.5l-354 -2t-242 -1q-62 0 -91 -5l-35 -7q-21 -3 -30 12q-3 4 -22 34q-11 16 6 16zM673 1551q23 74 45 76.5t-4 -81.5q-9 -28 -41 -144.5t-68.5 -249.5t-68.5 -247t-40 -136q-9 -27 -18.5 -64t-9.5 -75
q0 -30 5 -129.5t8 -169.5q0 -18 2.5 -51t1.5 -55q-2 -42 -31 -55q-20 -9 -60.5 2.5t-55.5 34.5q-17 21 -22 66t2 71q6 25 20 92t17 118q0 15 -6 40.5t-31 43.5q-62 41 -146 60q-41 7 -38 20q1 10 31 9q44 -3 75 -4t68 1q18 0 34.5 2.5t36.5 40.5q129 246 190 446.5
t104 337.5zM159 1457q62 -17 160 -64q66 -33 106.5 -80t8.5 -113q-22 -45 -60 -43q-32 1 -49 48q-24 70 -105 151q-54 51 -80 70q-21 14 -12.5 25t31.5 6z" />
    <glyph glyph-name="J" unicode="J" 
d="M771 1305q119 186 186.5 336t82.5 237q8 47 39 30q9 -6 58 -28.5t58 -28.5q31 -25 2 -41q-42 -24 -69.5 -71.5t-57.5 -100.5h533q23 0 41 16q9 8 25 24q39 37 79 2q25 -21 52 -45q46 -39 -7 -39q-36 0 -263.5 -1t-485.5 -1q-1 -2 -2.5 -4t-1.5 -3q-48 -72 -120 -157
t-135 -155q-21 -23 -25 -8t11 38zM723 1471q31 97 53 93q21 -6 -7 -96q-9 -28 -44 -142.5t-75 -242t-73 -232.5t-37 -114q-9 -20 -17 -58t-8 -77q0 -30 2 -130.5t5 -170.5q0 -18 2.5 -41t1.5 -45q-4 -42 -32 -55q-19 -9 -62 2.5t-59 33.5q-36 51 -20 118q6 25 20 92t17 118
q0 15 -5.5 40t-30.5 43q-27 18 -81.5 39t-81.5 25q-40 7 -38 20q2 10 29 9q48 -5 85 -7t76 1q18 0 34.5 2.5t37.5 40.5q129 244 197 420.5t111 313.5zM176 1390q47 -7 165 -49q70 -26 113.5 -65.5t24.5 -111.5q-18 -63 -60 -68q-36 -5 -58 48q-17 40 -42.5 78.5t-70.5 74.5
q-27 20 -52 39t-40 27q-18 9 -11 19.5t31 7.5zM358 1808q47 -7 165 -49q69 -26 113 -65.5t25 -111.5q-16 -56 -55 -60q-38 -5 -59 44q-38 86 -117 149q-27 20 -52 39t-40 27q-18 9 -11 19.5t31 7.5zM1189 889q9 -7 41 -32.5t65 -61.5q41 -48 56.5 -95.5t-28.5 -91.5
q-31 -31 -61 -17q-25 12 -27 53q-4 44 -5.5 71.5t-19.5 73.5q-12 26 -24 54t-15 34q-10 12 -0.5 14.5t18.5 -2.5zM1210 1299q9 -6 43 -29t69 -58q44 -45 62.5 -91.5t-21.5 -93.5q-29 -33 -61 -20q-22 8 -30 50q-7 45 -10 72t-25 71q-12 25 -26 53t-18 33q-11 12 -1.5 15
t18.5 -2zM1050 1265l-11.5 -86.5t-26.5 -203.5h543q8 116 15.5 217t10.5 146h-490q-12 -12 -18 -16q-12 -10 -17.5 -34.5t-5.5 -22.5zM1090 1378h441q36 31 51 57q18 30 53 6q20 -15 55 -46t45 -37q21 -16 6 -27q-10 -9 -29.5 -21.5t-19.5 -37.5q-1 -11 -6.5 -95.5
t-12.5 -201.5h10q22 0 42 17q6 5 12 11.5t13 12.5q37 36 79 2q10 -10 25 -23t27 -22q44 -39 -8 -40h-72.5h-130.5q-7 -104 -14.5 -212.5t-13.5 -196.5q19 0 37 16q4 3 25 24q37 36 79 2q10 -10 25 -23t27 -22q44 -39 -8 -39q-15 -1 -64.5 -1h-123.5q-8 -107 -13 -145
q-10 -72 -55.5 -119.5t-99.5 -66.5q-54 -20 -64.5 -11.5t-14.5 26.5q-13 47 -67 73.5t-111 40.5q-51 12 -56.5 26.5t46.5 7.5q22 -3 54.5 -8.5t65.5 -8.5q44 -6 58 -6.5t30 2.5q15 3 41 10.5t39 37.5q11 24 18.5 69t10.5 72q-129 0 -283 -0.5t-300 -0.5q-25 -38 -48 -54
q-16 -13 -34 8q-7 7 -23 27t-25 31q-11 9 -5.5 19l5.5 10l12 13t20 22q6 7 10 23l4 16q3 18 16 115t29 220h-9.5h-7.5q-56 0 -82 -5l-33 -5q-19 -4 -28 10q-11 17 -20 31q-10 14 6 14h181q20 155 38 291.5t20 154.5q2 29 35 17q16 -7 43.5 -24t47.5 -36zM951 524h572
q3 50 11 165t18 244q-138 -1 -289 -1.5t-257 -0.5q-17 -124 -32.5 -241.5t-22.5 -165.5z" />
    <glyph glyph-name="K" unicode="K" 
d="M251 1756h1381q26 0 46 17l13 13l14 14q41 41 86 2q12 -10 28 -24.5t29 -24.5q20 -18 25.5 -30.5t-33.5 -12.5t-269 -1t-489 -1q-33 -81 -120.5 -230.5t-210.5 -312.5q33 -15 27 -12h684q28 36 37 48q15 27 35 13q14 -12 60 -47.5t53 -42.5q15 -15 4 -26
q-10 -9 -21 -16.5t-15 -10.5q-18 -17 -18 -42q0 -43 -0.5 -158t-0.5 -237.5v-221v-108.5q0 -33 -11 -41q-12 -10 -41.5 -19.5t-38.5 -10.5q-24 -6 -22 29q0 6 0.5 51t0.5 114h-748v-82.5v-38.5q-3 -44 -16 -52q-27 -19 -69 -27q-27 -7 -27 28q0 4 -0.5 83.5t-0.5 194v243.5
v232q-92 -106 -194 -197t-207 -145q-31 -16 -45 -8.5t21 35.5q101 82 212 208.5t211 268t178.5 283.5t116.5 255q-176 0 -313.5 -0.5t-180.5 -0.5q-61 0 -90 -6l-35 -6q-21 -3 -31 12q-14 22 -22 33q-11 16 7 16zM1484 474q0 180 -0.5 394t-0.5 234h-738q-8 -12 -8 -26v-222
v-380h747z" />
    <glyph glyph-name="L" unicode="L" 
d="M978 1869q21 -9 72 -27.5t66 -25.5q25 -12 8 -37q-19 -27 -27 -48t-8 -61v-208v-381.5v-402.5v-271h498q0 244 0.5 575.5t0.5 475.5q0 36 7.5 38.5t18.5 -1.5q22 -8 73 -26.5t66 -25.5q25 -12 7 -37q-19 -27 -27 -48t-7 -61v-182v-318.5t-0.5 -330.5t-0.5 -217
q0 -25 -2 -31t-28 -15q-12 -5 -34.5 -11t-43.5 -12q-30 -10 -30 32v62.5v78.5h-1124q-15 -15 -34.5 -31t-28.5 -22q-19 -16 -43 6q-15 12 -34 26t-32 28q-20 19 -7 31q14 13 26 26q8 8 8 16q0 98 0.5 244.5t1 299.5t0.5 292v224q0 36 7 38.5t19 -1.5q21 -8 72 -26.5
t67 -25.5q25 -13 7 -37q-19 -27 -27 -48t-7 -61v-163.5t-0.5 -279.5t-0.5 -289v-193h493q0 112 0.5 317t1 423t0.5 409v275q0 36 7 38.5t19 -0.5z" />
    <glyph glyph-name="colon" unicode=":" 
d="M1865 1043q61 -9 45.5 -21.5t-43.5 -13.5q-40 -3 -98.5 -15t-91.5 -46q-30 -31 -62 -16q-235 102 -396 241t-247 261q-105 -124 -306.5 -279.5t-483.5 -308.5q-38 -21 -46 -11t34 39q320 219 502.5 425.5t255.5 314.5q21 33 46 16q13 -10 47.5 -33t56.5 -41
q21 -19 5.5 -24.5t-25.5 -10.5q-25 -13 -44 -34q126 -172 374.5 -290t476.5 -153zM623 411h642l1 420h-625q-17 -25 -17 -49zM1264 360h-641l-1 -135q0 -27 -9.5 -35t-15.5 -12q-19 -13 -69 -24q-25 -6 -25 25l1 737q0 22 19 15q3 -2 21 -8.5t30 -11.5q7 -3 27 -12.5
t38 -16.5h597q36 34 58 54q26 26 44 12q14 -12 57.5 -45.5t51.5 -40.5q17 -19 2 -34q-26 -24 -33 -31q-17 -17 -17 -32l-2 -530q0 -33 -11 -41q-12 -9 -51.5 -19t-48.5 -11q-22 -4 -22 29v167zM661 1873q23 31 46 16q13 -10 48 -33t56 -41q21 -19 6 -25t-26 -11
q-28 -14 -60 -45q-70 -66 -198 -158.5t-288 -176.5q-38 -21 -45 -10.5t32 43.5q215 176 287.5 260.5t141.5 180.5zM1147 1865q108 -26 221 -71.5t182 -103.5q45 -39 41 -88.5t-13 -68.5q-36 -73 -89 -37q-32 20 -79 95t-281 241q-21 15 -21 28.5t39 4.5z" />
    <glyph glyph-name="Z" unicode="Z" 
d="M335 1678h1166q25 0 46 18l13 13t14 13q40 40 86 3q12 -11 28 -25t28 -25q51 -42 -8 -42q-38 -1 -226 -1.5t-402 -0.5v-586h356q26 0 46 18q9 8 27 26q41 40 86 2q12 -11 28.5 -25t28.5 -24q20 -18 25.5 -30t-33.5 -12q-39 -1 -207 -1.5t-357 -0.5v-631h541q25 0 45 17
l27 27q41 40 86 2q12 -11 28.5 -25t28.5 -24q20 -18 25.5 -30.5t-33.5 -12.5q-36 0 -247 -0.5t-461 -1.5t-471.5 -1h-278.5q-24 -1 -46.5 -2t-43.5 -4l-35 -6q-21 -4 -31 11q-12 18 -22 34q-11 16 7 16h748v630q-120 0 -217 -0.5t-139 -0.5q-61 0 -90 -5l-35 -7
q-21 -3 -31 12q-14 22 -22 33q-11 16 7 16h527v586q-152 -1 -274 -1.5t-166 -0.5q-62 0 -91 -5l-35 -7q-21 -3 -30 12q-6 8 -11.5 16.5t-11.5 16.5q-10 16 7 16zM1229 794q15 -6 70.5 -24.5t103.5 -48.5q66 -42 97.5 -89.5t-19.5 -126.5q-18 -29 -42 -29q-41 -3 -51.5 66
t-91.5 150q-24 23 -48.5 49.5t-33.5 33.5q-15 11 -5.5 17t20.5 2z" />
    <glyph glyph-name="X" unicode="X" 
d="M183 1174h242l2 575q0 46 33 35q24 -10 61.5 -27.5t51.5 -23.5q25 -12 6 -38q-20 -26 -26.5 -37t-6.5 -71v-413h22q25 0 46 18q9 8 27 26q41 40 86 2q12 -10 28 -24.5t29 -24.5q20 -18 25 -30t-34 -12q-42 -1 -102 -1.5t-127 -0.5v-588v-0.5v-0.5q165 52 316 118
q21 9 34.5 -5t-15.5 -27q-15 -8 -116.5 -57.5t-218 -106.5t-213 -104t-102.5 -49q-31 -11 -41 6q-10 15 -31.5 48.5t-27.5 42.5q-18 25 20 32q153 31 272 65v0.5v0.5l2 623h-36h-35q-62 0 -91 -5l-35 -7q-21 -3 -30 12q-6 8 -11.5 16t-10.5 17q-11 16 7 16zM1578 1389
q15 22 38 56t29 43q14 22 37 6q8 -6 47 -37t49 -40q16 -15 5 -30q-1 -2 -13.5 -12t-21.5 -21q-12 -16 -13 -42l-13 -478q-4 -132 -63.5 -184t-81.5 -60q-33 -13 -35 3.5t-17 37.5q-18 22 -53.5 44t-60.5 34q-22 9 -21.5 20.5t30.5 6.5q81 -16 139 6t60 116l8 478v18
l-257 -118q0 -202 -0.5 -404.5t-0.5 -269.5q0 -41 -17 -53q-36 -28 -66 -37q-16 -5 -23 -2t-7 34q0 92 0.5 282.5t0.5 397.5l-194 -90l-1 -585q-2 -65 1 -84q6 -71 28.5 -91t97.5 -23q22 -1 95 -1.5t153.5 0t147.5 1t78 2.5q69 9 93.5 55.5t35.5 106.5q7 39 15.5 81.5
t13.5 73.5q6 44 23 53t13 -57q-15 -225 34 -270q14 -14 26 -26.5t0 -31.5q-63 -97 -238 -98q-24 -1 -109 -1.5t-179.5 -0.5h-171t-82.5 1q-191 6 -195 214v625l-188 -86q-22 -10 -45 15q-19 21 15 38l218 98l1 458q0 55 32 42q32 -14 57.5 -28t56.5 -30q33 -17 10 -39
q-36 -33 -36 -99v-250l194 88q0 176 0.5 330t0.5 233q0 36 7 38.5t18 -0.5q20 -7 63 -25.5t65 -27.5q31 -16 9 -45q-20 -26 -35.5 -43t-14.5 -57v-125.5v-227.5z" />
    <glyph glyph-name="w" unicode="w" 
d="M639 1887q12 -3 56 -18t93 -40q44 -24 76.5 -57t35.5 -63q2 -29 -13 -52.5t-30 -36.5h280q65 86 110 149.5t70 117.5q19 42 34 33q9 -6 56.5 -33.5t56.5 -34.5q30 -25 0 -40q-120 -60 -244 -192h300q25 0 45 18q5 4 27 26q41 40 86 2q12 -10 28.5 -24.5t28.5 -24.5
q20 -18 25.5 -30t-33.5 -12q-39 -1 -234 -1.5t-418 -0.5v-241h378q26 0 46 18q9 8 27 26q41 41 86 2q12 -10 28 -24.5t29 -24.5q20 -18 25 -30.5t-34 -12.5t-213 -0.5t-372 -0.5v-262h528q25 0 45 17q7 6 13.5 13t13.5 13q41 40 86 3q12 -11 28.5 -25t28.5 -24
q20 -18 25.5 -30.5t-33.5 -12.5t-266.5 -1t-485.5 -1q19 -11 33 -18q27 -15 4 -31q-26 -17 -35 -65q-17 -89 -41 -165h528q26 0 46 17l13 13t14 13q41 40 86 3q12 -11 28.5 -25t28.5 -25q52 -47 -8 -47q-38 0 -241.5 -1t-437.5 -1q120 -187 282.5 -260.5t413.5 -102.5
q57 -7 39.5 -26t-28.5 -25q-12 -6 -49 -28.5t-50 -43.5q-19 -33 -50 -23q-173 52 -314 143t-273 318q-11 16 -25 48h-11.5h-10.5q-88 -226 -263.5 -346t-446.5 -169q-39 -8 -39 10q0 16 47 31q243 77 369.5 173.5t198.5 299.5q-158 0 -280 -0.5t-164 -0.5q-62 0 -91 -5
l-35 -7q-21 -3 -30 12q-6 8 -11.5 19t-10.5 20q-11 16 7 16h632q15 48 30 112q6 27 13.5 82.5t11.5 84.5q-194 -1 -348.5 -1.5t-200.5 -0.5q-62 0 -91 -5l-35 -6q-21 -4 -30 11q-3 4 -22 34q-11 16 6 16h732v261q-137 0 -247.5 -0.5t-153.5 -0.5q-61 0 -90 -5l-36 -7
q-21 -3 -30 12q-6 8 -11.5 16t-10.5 17q-11 16 7 16h572v240q-167 0 -301.5 -0.5t-179.5 -0.5q-62 0 -91 -5l-35 -7q-21 -3 -30 12q-8 11 -22 33q-11 16 7 16h496q-18 45 -41.5 91t-51.5 79q-52 58 -78 72q-16 9 -5.5 18.5t22.5 6.5z" />
    <glyph glyph-name="C" unicode="C" 
d="M198 1239h707q8 103 9.5 219t1.5 248q-141 0 -253.5 -0.5t-155.5 -0.5q-61 0 -90 -5l-35 -7q-22 -3 -31 12q-6 8 -11.5 16t-10.5 17q-11 16 7 16h1117q25 0 46 18q9 8 27 26q40 40 85 2q12 -10 28.5 -24.5t28.5 -24.5q21 -18 26 -30t-34 -12q-39 -1 -220.5 -1.5
t-387.5 -0.5q-5 -130 -10 -246.5t-15 -221.5h589q25 0 46 18q9 8 27 26q41 40 86 3q12 -11 28.5 -25t28.5 -25q20 -18 25.5 -30t-33.5 -12q-37 0 -254 -1t-471 -1q90 -343 262 -529t483 -272q56 -16 35 -25t-45 -12q-40 -6 -81 -19.5t-74 -47.5q-24 -25 -54 -8
q-216 114 -366.5 341t-213.5 572h-11.5h-10.5q-40 -348 -202.5 -577t-616.5 -383q-36 -12 -38 3t28 31q391 204 534 418t173 508q-189 -1 -338 -1.5t-194 -0.5q-61 0 -90 -5l-35 -7q-21 -3 -31 12q-14 22 -22 33q-11 16 7 16z" />
    <glyph glyph-name="guillemotright" unicode="&#xbb;" 
d="M171 1111h572q44 110 80.5 192t69.5 262q1 8 4 12q-129 -1 -263.5 -1.5t-202.5 -0.5q-61 0 -90 -5l-35 -7q-22 -3 -31 12q-14 22 -22 33q-11 16 7 16h432q-27 16 -33.5 63.5t-30.5 85.5q-16 25 -33.5 52.5t-47.5 51.5q-15 12 -7 21t26 3q47 -18 115 -51.5t95 -81.5
q19 -36 11 -82.5t-43 -61.5h208q25 0 45 18q13 10 27 26q41 40 86 2q12 -10 28.5 -24.5t28.5 -24.5q20 -18 25.5 -30.5t-33.5 -12.5q-27 0 -87 -0.5t-136 -0.5q2 -1 11 -7q15 -13 44 -43.5t41 -48.5q14 -24 -19 -38q-25 -10 -45 -45q-9 -15 -70 -124t-91 -160h208
q25 0 46 18q9 8 27 26q40 40 86 3q12 -11 28 -25t28 -24q22 -21 25 -27l1 725q0 39 33 15q9 -8 38 -26t55 -35h302l56 65q13 15 32 1q78 -56 109 -94q18 -20 -2 -34q-12 -8 -25.5 -14t-26.5 -13q-28 -16 -39 -38l-202 -411q-14 -27 4 -39q178 -134 236 -258t42.5 -225
t-83.5 -172.5t-141 -98.5q-31 -12 -37 0t-13 28q-31 69 -80.5 101t-83.5 47q-21 9 -29 26t49 -1q142 -47 225 -16q80 29 80.5 118.5t-21.5 151.5q-61 167 -196 283q-13 10 -4 34q21 65 44 127.5t47 133.5q21 61 37.5 123t34.5 125h-304l-2.5 -2.5l-1.5 -1.5q-15 -19 -15 -52
l-2 -1422q0 -37 -13 -50q-12 -13 -35 -23.5t-37 -13.5q-33 -9 -33 41l1 886q-5 -7 -33 -7q-36 0 -156.5 -0.5t-262 -1.5t-272.5 -1.5t-188 -0.5q-62 0 -91 -5l-35 -7q-21 -3 -30 12q-6 8 -11.5 16.5t-11.5 16.5q-10 16 7 16zM439 1524q41 -28 113.5 -95t87.5 -120
q13 -49 -8 -83.5t-35 -45.5q-12 -10 -33.5 -13t-33.5 19q-18 30 -12.5 64t-26.5 116q-29 72 -73 138q-11 15 -2.5 22.5t23.5 -2.5zM484 400h405l2 433h-372q-33 -21 -33 -61zM889 349h-405v-107q0 -28 -9.5 -36t-15.5 -11q-7 -5 -30.5 -13t-39.5 -12q-25 -6 -25 26l1 731
q0 17 11.5 16.5t15.5 -1.5q29 -11 64 -28t64 -30h339q10 12 23 25.5t19 20.5q25 27 44 13q9 -7 31.5 -25l42.5 -34h1v-2q8 -6 19 -17q20 -20 4 -40q-20 -20 -21 -22q-16 -19 -16 -35l-2 -474q0 -31 -11 -41q-9 -8 -41 -23.5t-41 -17.5q-23 -4 -23 29z" />
    <glyph glyph-name="ellipsis" unicode="&#x2026;" 
d="M693 958h269v431q-1 -1 -1.5 -2l-0.5 -1q-155 -187 -396.5 -325t-377.5 -171q-39 -9 -38.5 6.5t34.5 32.5q228 114 391.5 247t252.5 241q-160 -1 -282 -1h-162q-24 -1 -46.5 -2t-43.5 -4l-35 -6q-21 -4 -31 11q-20 30 -22 34q-11 16 7 16h751v252q-176 -15 -339 -27.5
t-256 -12.5q-54 -1 -50 13.5t46 20.5q118 15 280 42.5t323.5 59t299.5 62.5t209 54q29 10 38 1t20 -18l42.5 -47.5t54.5 -64.5q14 -23 -30 -25q-39 -3 -189.5 -17t-337.5 -31v-262h542q26 0 45 17q7 6 13.5 13t14.5 14q39 39 85 2q12 -11 28.5 -25t28.5 -24q50 -43 -8 -43
q-34 0 -221.5 -0.5t-418.5 -0.5q89 -163 272.5 -251t405.5 -106q57 -6 37.5 -20t-36.5 -21q-37 -16 -60 -31.5t-44 -57.5q-20 -36 -51 -23q-175 73 -334.5 180t-252.5 329h-23.5h-22.5v-459h246q9 10 30 33.5t30 32.5q21 23 41 9q15 -12 53 -40.5t47 -37.5q18 -18 2 -34
l-12 -12l-11 -11q-10 -10 -10 -58l-2 -623q0 -33 -12 -43q-9 -7 -46 -23.5t-47 -17.5q-23 -4 -23 30l1 132h-675q0 -33 -0.5 -60t-0.5 -42q-1 -31 -11 -40t-17 -13q-22 -14 -68 -25q-28 -7 -28 28v136.5v287v288.5t1 142q1 28 21 17q39 -15 67 -30q32 -19 44 -26zM1360 340
l1 272h-676q1 -143 0 -272h675zM1361 657l1 257h-663q-13 -25 -13 -53q-1 -9 -1 -66.5v-137.5h676z" />
    <glyph glyph-name="glyph56" 
d="M1421 936q20 29 36 49q15 21 39 4q13 -11 47.5 -35.5t43.5 -30.5q20 -19 7 -32q-9 -9 -16 -15.5t-11 -10.5q-12 -12 -12 -32q0 -29 -1 -132t-1 -124q0 -32 -10 -39q-12 -9 -44.5 -18.5t-41.5 -10.5q-23 -4 -21 28q1 6 1 54h-452v-84q-2 -65 1 -84q6 -72 28.5 -90.5
t97.5 -21.5q22 -1 91.5 -1.5t146 -0.5h139.5t74 2q69 8 93.5 54.5t35.5 106.5q7 40 8 51.5t7 51.5q6 44 21.5 53.5t12.5 -56.5q-6 -111 13 -156t37 -63q13 -15 25.5 -26.5t0.5 -30.5q-62 -97 -238 -98q-24 -1 -105.5 -1.5t-171.5 -0.5h-163t-79 1q-184 4 -188 214l1 530
q0 36 9 38t21 -2q44 -18 85 -41h433zM1437 631q0 67 1 148.5t1 116.5h-453l-1 -265h452zM1905 939q52 -15 39.5 -22.5t-33.5 -10.5q-81 -8 -122 -53q-26 -28 -52 -10q-70 43 -117 83q-84 66 -148 144t-122 189q-64 -1 -128 -1h-124q-100 -168 -263.5 -290.5t-286.5 -185.5
q-35 -18 -47 -7.5t23 34.5q139 93 253 200t201 249q-83 -1 -145 -1h-89q-56 0 -83 -5l-32 -6q-19 -3 -28 11q-13 19 -11 17q-42 -158 -90 -346.5t-51 -199.5q-26 -93 -26 -173q0 -50 2.5 -128.5t5.5 -134.5q0 -18 2.5 -41t1.5 -45q-2 -42 -32 -55q-19 -9 -52 2.5t-48 33.5
q-38 51 -20 118q6 25 19.5 92t16.5 118q1 15 -5 40t-31 43q-56 39 -128 55q-42 9 -39 22q1 11 31 9q22 -2 50.5 -4t53.5 -2q68 1 93 50q43 86 71.5 162t52.5 143q45 129 72 230.5t54 191.5q27 88 52 101t-10 -108q-5 -15 -15 -53.5t-24 -92.5h353v119.5v113.5h-65.5h-46.5
q-56 0 -83 -5l-32 -6q-19 -3 -28 11l-20 30q-10 15 6 15h270q0 99 -0.5 174t-0.5 113q0 29 6 31.5t15 -0.5q18 -7 55.5 -21.5t50.5 -20.5q30 -17 11 -36q-34 -32 -32 -82v-54v-104h266v174v113q0 29 6 31.5t15 -0.5q18 -7 55.5 -21.5t50.5 -20.5q30 -17 11 -36
q-34 -32 -32 -82v-54v-104h141q23 0 42 16l12 12l12 12q39 37 79 2q11 -9 25.5 -22.5t26.5 -22.5q44 -39 -7 -39q-27 0 -120 -0.5t-211 -0.5v-111v-124h224q24 0 42 16l12 12t13 12q37 37 79 2l25 -22.5t27 -22.5q44 -39 -8 -39q-30 0 -159.5 -0.5t-291.5 -0.5
q132 -175 284.5 -236t229.5 -84zM1322 1302v120.5v114.5q-69 -1 -137.5 -1h-128.5v-111v-123h266zM135 1381q43 -11 151 -61q63 -31 94.5 -73.5t7.5 -108.5q-21 -56 -52 -56q-30 -1 -47 55q-28 84 -96 150q-23 21 -44.5 41.5t-35.5 29.5q-16 10 -8 19t30 4zM284 1797
q46 -12 151 -62q63 -30 100.5 -71.5t12.5 -107.5q-21 -51 -57 -51q-37 0 -52 47q-26 83 -96 151q-23 21 -44.5 41.5t-35.5 29.5q-17 9 -8.5 18.5t29.5 4.5z" />
    <glyph glyph-name="Agrave" unicode="&#xc0;" 
d="M567 1818h1108q25 0 45 17q7 6 13.5 13t14.5 14q40 40 85 2q12 -11 28.5 -25t28.5 -24q50 -43 -8 -43q-34 0 -204.5 -0.5t-379.5 -1t-408.5 -1t-291.5 -0.5q-20 -24 -33 -45t-13 -63l-6 -416q-6 -369 -98 -585.5t-277 -419.5q-24 -26 -35.5 -16t7.5 37q168 235 224 484
t58 550l2 562q0 35 34 21q7 -3 44 -24.5t62 -35.5zM1091 1498q20 84 26 147t6 74q2 34 27 25q24 -8 63 -26t46 -21q29 -15 -2 -30q-29 -14 -49 -57q-7 -15 -22 -47t-33 -65h419q10 15 19 30.5t17 25.5q21 27 43 10q18 -16 46 -42t35 -34q10 -15 -6 -30q-20 -20 -25 -27
q-14 -19 -14 -39v-495q0 -29 -16 -41q-34 -27 -61 -31q-19 -4 -19 23v62q-72 0 -155.5 -0.5t-170.5 -0.5q22 -14 16 -27q-8 -14 -17.5 -25.5t-9.5 -39.5v-402q0 -44 -3 -85t-26 -71q-10 -13 -30 -34.5t-47 -38.5q-63 -39 -73 11q-11 48 -67.5 81.5t-114.5 45.5
q-51 9 -55 22.5t50 8.5q70 -7 136 -7q62 -1 87.5 7.5t26.5 78.5l2 475q-76 0 -150 -0.5t-141 -0.5v-25q0 -27 -7 -34t-13 -11q-7 -4 -23.5 -14t-31.5 -13q-24 -6 -24 16l1 711q0 27 21 18q20 -11 42 -22.5t58 -35.5h219zM1593 1452q-154 0 -355 -1t-375 -1q-13 -15 -13 -34
v-187h742zM1592 1183q-158 0 -363 -1t-379 -1l-1 -225h742zM1448 721q52 -25 188 -106t171 -133q29 -43 16.5 -90t-24.5 -65q-10 -16 -30 -26.5t-38 25.5q-46 87 -88 160t-211 210q-23 17 -12 25t28 0zM478 289q83 80 178.5 205t164.5 246q22 38 48 18q9 -6 47 -36.5
t47 -38.5q28 -27 -8 -32q-19 -3 -32 -8t-53 -47q-53 -56 -132.5 -137t-243.5 -197q-15 -12 -26 -3t10 30z" />
    <glyph glyph-name="paragraph" unicode="&#xb6;" 
d="M169 783h360v479q0 55 40 33l114 -68l2 -2t3 -1h353v365h-233h-215q-66 -121 -136.5 -223t-187.5 -216q-33 -33 -41 -19t12 41q134 183 210 348.5t141 383.5q11 36 40 20q12 -8 62 -43t60 -44q18 -19 -11 -33q-44 -18 -59 -44q-18 -33 -34 -64t-31 -59h955q26 0 46 17
l13 13l14 14q41 40 86 2q12 -11 28.5 -25t28.5 -24q20 -18 25.5 -30.5t-33.5 -12.5q-33 0 -212.5 -0.5t-407.5 -0.5v-366h278q24 0 45 18q5 4 27 26q41 40 86 3q12 -11 28.5 -25t28.5 -25q20 -18 25.5 -30t-33.5 -12q-27 -1 -163.5 -1h-321.5v-395h490q25 0 46 18q9 8 27 26
q41 41 86 2q12 -10 28 -24.5t29 -24.5q20 -18 25 -30t-34 -12q-35 -1 -241 -1.5t-456 -0.5v-531q0 -25 -3.5 -29t-18.5 -15q-36 -28 -69 -38q-30 -10 -30 32l1 581q-241 -1 -444.5 -1.5t-256.5 -0.5q-61 0 -90 -5l-35 -7q-21 -3 -31 12q-14 22 -22 33q-11 16 7 16z
M1041 1177h-184h-182q-26 -25 -26 -71v-323h392v394z" />
    <glyph glyph-name="Atilde" unicode="&#xc3;" 
d="M1369 974q15 15 33.5 35.5t27.5 30.5q30 32 58 10q15 -13 52 -50.5t45 -44.5q18 -20 2 -36q-9 -9 -19 -18t-15 -14q-17 -17 -17 -33v-567q0 -33 -19 -48q-12 -9 -47.5 -28t-45.5 -21q-23 -4 -23 30l1 154h-774v-134q0 -31 -11 -41t-18 -15q-8 -5 -31.5 -15.5t-41.5 -13.5
q-28 -7 -28 28l1 861q0 30 25 15q36 -19 129 -85h716zM628 423h774l1 499h-747q-2 -2 -3 -2q-24 -24 -24 -68zM1569 1285q-12 14 -18 22q-57 67 -156.5 150t-171.5 128q-23 14 -14 24.5t24 5.5q102 -36 302 -141t241 -195q29 -65 7 -112q-12 -27 -45.5 -59t-65.5 -3
q-27 24 -35 54.5t-39 81.5q-75 -3 -333 -22t-470 -39q-121 -12 -225.5 -27t-169.5 -27q-21 -4 -26.5 0.5t-12.5 11.5q-9 6 -49 58t-52 65q-12 12 0.5 14.5t22.5 2.5h11h32q201 117 349 265t271 322q28 39 54 25q54 -32 119 -78q48 -37 -11 -45q-19 -3 -37.5 -10.5
t-60.5 -47.5q-60 -57 -226 -192t-358 -256q253 1 574 8.5t569 15.5z" />
    <glyph glyph-name="V" unicode="V" 
d="M1525 1683q11 15 20.5 31.5t18.5 27.5q19 26 43 10q18 -14 54 -38.5t50 -33.5q20 -16 0 -36q-22 -22 -24 -25q-14 -20 -14 -38l1 -1220q0 -28 -17 -40q-10 -9 -49 -20t-47 -12q-19 -4 -19 23v168q-231 0 -537 -1t-558 -1v-116q0 -26 -7 -33t-13 -11q-7 -4 -35 -14
t-43 -13q-24 -6 -24 16l1 1425q0 29 26 18q27 -12 62.5 -28t75.5 -39h1035zM925 1636q-119 -1 -235 -1h-219q-23 -22 -23 -45l-1 -488h478v534zM925 1055q-124 0 -245.5 -0.5t-232.5 -0.5v-527h478v528zM1046 527h496l1 529q-105 0 -233 -0.5t-263 -0.5zM1047 1102h496
l1 535q-97 0 -214 -0.5t-243 -0.5q-40 -25 -40 -58v-476z" />
    <glyph glyph-name="Otilde" unicode="&#xd5;" 
d="M513 1460h418v409q0 36 7 38.5t19 -1.5q21 -8 70 -26t64 -25q38 -19 14 -43q-24 -23 -35 -42.5t-11 -59.5v-250h451v0v0q4 5 8.5 11.5t10.5 12.5v0.5v0.5l0.5 0.5l0.5 0.5l0.5 0.5l0.5 0.5l1 1.5t2 2.5l0.5 0.5l0.5 0.5l4 6t5 6v0v0l0.5 0.5l1.5 1.5v0v1h0.5t0.5 1v0v0
l1 1.5t2 2.5h0.5t0.5 1q4 4 6 8q17 19 32 12q12 -7 65 -44.5t61 -43.5q16 -16 2 -30q-9 -9 -22.5 -25l-13.5 -16q-11 -16 -11 -42l-1 -473q0 -26 -14 -36q-12 -7 -51.5 -19t-53.5 -16q-27 -9 -27 15v112h-464v-692q0 -28 -31 -48q-33 -21 -69 -33q-29 -11 -29 31v742h-466
v-90q0 -30 -30 -43q-34 -14 -80 -25q-30 -8 -30 31l2 698q0 36 7.5 38t17.5 -1q22 -8 76 -26.5t69 -25.5q10 -5 17 -11zM1523 1415h-464v-455h464v455zM464 960h466l1 455h-435q-32 -36 -32 -88v-367z" />
    <glyph glyph-name="OE" unicode="&#x152;" 
d="M1884 692q55 -15 34.5 -27t-41.5 -14q-85 -10 -126 -55q-27 -29 -54 -11q-226 169 -363 377.5t-220 479.5h-17.5h-16.5v-359v-389h168q26 0 46 17l13 13t14 13q41 40 86 3q12 -11 28.5 -25t28.5 -24q20 -18 25.5 -30.5t-33.5 -12.5q-38 0 -145.5 -1t-230.5 -1v-278v-157
q0 -25 -2.5 -31t-27.5 -15q-20 -8 -65 -23q-30 -10 -30 31q0 57 0.5 183.5t0.5 289.5q-80 -1 -148.5 -1.5t-107.5 -0.5q-61 0 -91 -5l-35 -6q-21 -4 -30 11q-6 8 -11.5 16.5t-10.5 17.5q-11 16 7 16h427q0 162 0.5 340.5t0.5 340.5q-2 -5 -8 -17q-44 -99 -133.5 -223.5
t-199 -245t-227 -223.5t-216.5 -157q-34 -18 -45 -9t22 35q244 189 412 416.5t293 489.5q-171 0 -304.5 -0.5t-175.5 -0.5q-61 0 -91 -5l-35 -7q-21 -3 -30 12q-6 8 -11.5 16t-10.5 17q-11 16 7 16h753v231v149q0 36 7 38.5t18 -1.5q22 -8 68.5 -26t61.5 -25q38 -19 14 -43
q-24 -23 -35 -42.5t-11 -59.5v-75v-146h492q24 0 45 18q5 4 27 26q41 40 86 2q12 -10 28.5 -24.5t28.5 -24.5q21 -18 26 -30.5t-34 -12.5q-34 0 -216 -0.5t-405 -0.5q45 -150 164.5 -305.5t228.5 -255.5q93 -87 171 -124.5t162 -64.5z" />
    <glyph glyph-name="oe" unicode="&#x153;" 
d="M193 1623h854q-8 36 -36 101.5t-99 134.5q-49 49 21 39q156 -26 201.5 -87t34.5 -116q-10 -49 -31 -72h507q25 0 45 17l13 13l14 14q41 39 86 2q12 -11 28.5 -25t28.5 -24q20 -18 25.5 -30.5t-33.5 -12.5q-36 0 -251.5 -0.5t-471 -1.5t-482 -1.5t-283.5 -0.5
q-61 0 -90 -5l-36 -6q-21 -4 -30 11q-6 9 -11.5 17t-10.5 17q-11 16 7 16zM1133 896q-2 -309 0 -490q0 -44 -0.5 -96t-23.5 -83q-17 -22 -79 -50q-63 -30 -79.5 -28t-18.5 35q-3 51 -60 89t-102 53q-51 15 -56 29.5t48 6.5q22 -4 50 -11t60 -10q48 -6 95.5 4t49.5 80
q4 237 3 471h-353v-5v-3q-1 -31 -11 -40t-17 -13q-19 -14 -68 -25q-28 -7 -28 28v90v184v185.5t1 95.5q1 28 21 17q28 -11 67 -31q23 -13 54 -25h702q13 11 33 28t29 24q27 20 43 9q15 -12 57.5 -49t50.5 -44q19 -20 2 -35q-13 -14 -34 -32q-14 -14 -14 -33q0 -32 -1 -171.5
t-1 -162.5q0 -34 -12 -43q-12 -10 -49 -20t-47 -11q-25 -4 -23 30q1 6 1 52h-290zM1423 940q0 90 1 209.5t1 159.5h-728q-28 -31 -28 -52q-1 -19 -0.5 -122.5t-0.5 -194.5h755zM1358 698q105 -27 218 -85t177 -134q39 -47 31 -95t-19 -66q-20 -35 -54 -35q-46 1 -69 67
t-94 155q-73 89 -200 160q-24 12 -15 24t25 9zM171 228q51 45 129.5 117.5t162.5 160.5q92 96 127.5 135t63.5 76q27 36 42 27q9 -7 56.5 -38.5t56.5 -39.5q25 -26 -15 -39q-18 -7 -42.5 -19t-69.5 -48q-63 -52 -182 -139.5t-306 -210.5q-16 -11 -28 -4t5 22z" />
    <glyph glyph-name="endash" unicode="&#x2013;" 
d="M1645 1861l116 -53q32 -16 6 -40q-24 -22 -33 -34t-9 -52v-1445q0 -25 -2.5 -31t-27.5 -15q-12 -5 -26 -11t-35 -12q-30 -10 -30 32l1 1628q1 50 40 33zM874 1356q32 -34 95.5 -112t74.5 -132q9 -50 -10 -80t-43 -48q-12 -9 -37.5 -18t-34.5 18q-8 21 -7.5 50t1.5 60
q2 58 -16 121.5t-44 120.5q-9 16 -1 24.5t22 -4.5zM490 1364q18 -106 21 -219t-21 -162q-42 -84 -122 -88q-49 -4 -52 54q-3 51 34.5 68t71.5 111q12 34 27 89.5t18 145.5q0 18 9.5 18.5t13.5 -17.5zM1348 1361q32 -34 97 -110t76 -130q9 -50 -9.5 -79t-41.5 -47
q-12 -9 -32.5 -15t-30.5 18q-15 32 -2.5 64.5t-16.5 128.5q-11 34 -22 68.5t-38 82.5q-9 15 -1.5 24t21.5 -5zM706 1886l117 -53q31 -16 6 -40q-24 -22 -33 -34t-9 -52v-663q0 -168 -37.5 -292.5t-91.5 -216.5q-78 -132 -174 -218.5t-173 -148.5q-24 -18 -39 -13t16 38
q66 70 129.5 146.5t117.5 171.5q57 100 94.5 239t37.5 367v736q0 51 39 33zM1174 1819l116 -53q32 -15 6 -39q-24 -22 -33 -34t-9 -52v-1192q0 -25 -2.5 -31t-28.5 -15q-12 -5 -26 -11t-34 -12q-30 -10 -30 32l1 1374q0 52 40 33z" />
    <glyph glyph-name="emdash" unicode="&#x2014;" 
d="M299 1321h605q0 18 1.5 37.5t2.5 40.5q4 84 4.5 177t0.5 196q0 46 31 26q41 -24 74 -42.5t44 -24.5q26 -19 7 -37q-17 -15 -30 -34.5t-15 -72.5q-7 -162 -17 -266h463q26 0 46 17l13 13l14 14q39 39 86 2q12 -11 28 -25t28 -24q50 -43 -8 -43q-38 0 -220.5 -1t-392.5 -1
q10 -110 34 -197q54 -214 177 -378q69 -95 190.5 -173.5t259.5 -105.5q43 -9 36.5 -21t-39.5 -11q-97 0 -145 -54q-26 -28 -51 -10q-123 89 -219.5 182.5t-157.5 216.5q-38 75 -75 200.5t-53 350.5h-10h-9q-33 -316 -115 -503q-161 -366 -553 -521q-36 -15 -37.5 1t28.5 33
q367 212 487 541q66 180 88 449q-149 -1 -267.5 -1h-161.5q-25 -1 -47.5 -2t-43.5 -4l-35 -6q-21 -4 -30 11q-6 8 -11.5 16.5t-11.5 17.5q-10 16 7 16z" />
    <glyph glyph-name="quotedblright" unicode="&#x201d;" 
d="M1020 1230h447q26 0 46 17l13 13l14 14q40 40 85 2q12 -11 28.5 -25t28.5 -24q20 -18 25.5 -30t-33.5 -12q-72 -1 -268.5 -2.5t-311.5 -1.5q-51 0 -74 -3q-1 -228 -1 -484v-403h620q25 0 45 18q10 8 28 26q40 40 85 2q12 -11 28.5 -25t28.5 -24q20 -18 25.5 -30
t-33.5 -12q-36 -1 -252.5 -1.5t-473 -1t-484 -1t-284.5 -0.5q-61 0 -90 -5l-35 -7q-21 -3 -30 12q-6 8 -11.5 16t-10.5 17q-11 16 7 16h709q0 156 0.5 380t0.5 445.5t0.5 404.5t0.5 258q-1 36 6.5 38.5t18.5 -0.5q21 -8 72.5 -35.5t66.5 -33.5q28 -16 8 -39
q-22 -24 -34 -43.5t-12 -59.5q0 -23 0.5 -127t0.5 -249z" />
    <glyph glyph-name="quotedblleft" unicode="&#x201c;" 
d="M994 1863q0 45 28 33q57 -21 89 -36t48 -21q31 -16 3 -44q-27 -28 -31 -71q-3 -23 -3 -64l4 -1186q0 -43 -1.5 -120t-31.5 -112q-34 -39 -90 -64q-62 -30 -77 -28.5t-17 34.5q-4 63 -55 98t-120 55q-51 13 -58.5 28t44.5 8q52 -8 104 -20.5t106 -8.5q60 5 60 110z
M1363 1401q195 -180 334.5 -329t175.5 -239q23 -57 5 -119.5t-41 -86.5q-13 -14 -34 -26.5t-38 12.5q-28 39 -36 82t-52 160q-39 102 -125 245t-218 280q-22 22 -7 30.5t36 -9.5zM168 504q116 163 241.5 424t182.5 457q12 44 43 33q24 -8 72 -32t60 -29q39 -17 -2 -47
q-16 -11 -31.5 -16.5t-42.5 -57.5q-20 -38 -68 -130t-114.5 -202.5t-146.5 -223t-165 -190.5q-14 -13 -28 -8.5t-1 22.5z" />
    <glyph glyph-name="quoteleft" unicode="&#x2018;" 
d="M1194 744q90 -60 251 -196t178 -233q11 -73 -22 -113q-18 -23 -51.5 -44.5t-60.5 17.5q-23 30 -25.5 62t-23.5 94q-201 -11 -494 -49.5t-503 -75.5q-22 -4 -27.5 1t-12.5 11q-8 6 -30.5 52t-32.5 67q-12 24 19 24h17.5h17.5q80 57 155 150q114 141 208.5 329t154.5 336
q18 44 45 27q28 -19 49.5 -36.5t45.5 -35.5q40 -32 -5 -51q-18 -9 -29 -22t-43 -62q-45 -70 -165 -250t-315 -385q243 1 451.5 6.5t472.5 14.5q-4 10 -7 15q-38 78 -107.5 168.5t-127.5 151.5q-19 19 -8 27.5t25 -0.5zM754 1835q35 -24 67.5 -48.5t47.5 -36.5q23 -24 -1 -35
q-15 -7 -30 -15t-30 -35q-150 -271 -292 -443t-367 -361q-15 -13 -26.5 1.5t9.5 36.5q207 218 348 434.5t234 489.5q9 32 40 12zM1146 1891q9 -4 62.5 -20.5t61.5 -19.5q30 -16 7 -41q-12 -12 -20 -19t-11 -10q-4 -4 -13 -15.5t2 -38.5q92 -252 257 -425t402 -234
q42 -12 33 -21t-41 -8q-72 1 -114 -26t-54 -42q-18 -21 -43 -4q-199 126 -345 373t-209 528q-8 36 25 23z" />
    <glyph glyph-name="B" unicode="B" 
d="M1655 1877l115 -53q31 -15 7 -39q-24 -22 -33 -34t-9 -52l-1 -1440q0 -25 -2 -31t-28 -15q-12 -5 -26 -11t-34 -12q-30 -10 -30 31l1 1623q0 51 40 33zM612 1878l116 -53q31 -16 6 -40q-24 -22 -33 -33.5t-9 -51.5v-649q0 -297 -97 -499t-294 -375q-22 -20 -38 -14t15 39
q180 190 237 422t57 487l1 734q0 50 39 33zM1116 1824l116 -53q31 -15 7 -39q-24 -22 -33 -34t-9 -52l-1 -1304q0 -25 -2.5 -31t-27.5 -15q-12 -5 -26 -11t-34 -12q-30 -10 -30 32l1 1486q0 51 39 33z" />
    <glyph glyph-name="quoteright" unicode="&#x2019;" 
d="M558 988h614q26 0 46 17q9 8 27 26q40 40 85 2q35 -29 57 -49q20 -18 25.5 -30t-33.5 -12q-38 0 -129 -1t-195 -1v-233h369q26 0 46 17l13 13l14 14q40 39 85 2q12 -11 28.5 -25t28.5 -24q20 -18 25.5 -30.5t-33.5 -12.5t-210.5 -1t-365.5 -1v-405h121q58 79 112 191
t67 162q12 41 31 30q8 -6 50 -30.5t51 -30.5q18 -16 -9 -36q-31 -23 -68 -71q-16 -21 -85 -103.5t-81 -97.5q-4 -4 -7 -7.5t-6 -6.5h355q25 0 46 18q9 8 27 26q41 41 85 2q12 -10 28.5 -24.5t28.5 -24.5q20 -18 25.5 -30t-33.5 -12q-36 -1 -236.5 -1.5t-438.5 -1t-449 -1
t-268 -0.5q-61 0 -90 -5l-35 -6q-21 -4 -31 11q-20 30 -22 34q-11 15 7 15h479q-15 15 -25 60q-10 49 -25.5 94t-45.5 93q-18 27 -38 55t-25 34q-13 12 0 18t23 1q10 -6 49 -31.5t80 -61.5q76 -69 88 -134q8 -51 -4.5 -79.5t-21.5 -41.5q-2 -4 -5 -7h168v405
q-131 0 -236 -0.5t-147 -0.5q-61 0 -90 -6l-35 -6q-21 -3 -30 12q-8 11 -22 33q-11 16 7 16h553v232q-60 0 -111 -0.5t-87 -0.5q-61 0 -90 -5l-35 -6q-21 -4 -30 11q-3 4 -22 34q-11 16 6 16zM208 940q155 58 279.5 126t226.5 137q117 81 213 168q-115 102 -242 238
q-60 -49 -156 -108.5t-257 -128.5q-18 -7 -27.5 3t8.5 23q184 129 267 210t191 223q26 34 47 18q7 -8 43 -46t49 -52q22 -27 -19 -33q-11 -3 -27 -12t-54 -42q-7 -6 -30 -25q141 -120 270 -209q108 107 202 228q29 38 53 15q7 -8 41 -46t43 -50q21 -30 -8 -36
q-19 -5 -34.5 -12.5t-49.5 -35.5q-38 -31 -74.5 -63t-75.5 -64q387 -243 735 -251q50 -2 33.5 -18.5t-34.5 -21.5q-39 -12 -76.5 -39.5t-60.5 -54.5q-21 -25 -50 -17q-175 40 -330 129.5t-296 206.5q-68 -55 -154 -112q-123 -81 -259.5 -144t-369.5 -139q-27 -9 -34 8.5
t17 26.5zM1168 1825q99 -14 222 -46.5t192 -99.5q41 -40 52.5 -94t4.5 -88q-8 -37 -31.5 -36t-47.5 35q-79 111 -191.5 179t-208.5 112q-24 10 -20.5 25.5t28.5 12.5z" />
    <glyph glyph-name="divide" unicode="&#xf7;" 
d="M198 947q146 203 281.5 430t219.5 482q9 31 18.5 24t18.5 -14q18 -18 53 -53.5l35 -35.5l7.5 -14t-6.5 -21q-44 -24 -67 -64q-51 -89 -93.5 -168t-86.5 -152q27 -16 33 -18q24 -16 1 -39q-31 -31 -31 -75l-1 -965q0 -50 -30 -69q-23 -16 -58 -27q-30 -10 -30 33l1 986
q-97 -132 -235 -263q-27 -24 -39.5 -15.5t9.5 38.5zM714 1478h790q26 0 46 17l13 13l14 14q41 40 86 2q12 -10 28.5 -24.5t28.5 -24.5q50 -43 -8 -43q-36 0 -148.5 -0.5t-244 -1.5t-254.5 -1.5t-180 -0.5q-61 0 -91 -5l-35 -6q-21 -4 -30 11q-7 12 -23 34q-10 16 8 16z
M642 411h979q26 0 46 18q9 8 27 26q41 40 86 3q12 -11 28.5 -25.5t28.5 -24.5q20 -18 25.5 -30.5t-33.5 -12.5q-36 0 -177.5 -0.5t-308.5 -1.5t-319.5 -1h-209.5q-55 0 -91 -5l-35 -7q-22 -3 -31 12q-6 8 -11.5 16t-10.5 17q-11 16 7 16z" />
    <glyph glyph-name="N" unicode="N" 
d="M184 1395h318v293.5v185.5q0 35 7.5 38t31.5 -5q27 -10 69 -25.5t56 -21.5q27 -13 0 -40q-23 -22 -35.5 -33t-12.5 -51q0 -21 0.5 -114t0.5 -227h54q25 0 45 17l13 13l14 14q41 39 86 2q12 -11 28 -25t28 -24q50 -43 -8 -43q-39 0 -109.5 -1t-150.5 -1v-112v-118
q83 -4 159 -34q51 -21 82 -57.5t9 -90.5q-26 -58 -54 -55t-41 54q-11 39 -48 83t-107 59q-1 -289 -1 -561.5v-335.5q0 -26 -2.5 -31.5t-27.5 -15.5q-12 -4 -24.5 -10t-33.5 -12q-16 -6 -23 -3t-7 34q0 96 0.5 380t0.5 588q-54 -109 -131.5 -235.5t-216.5 -286.5
q-33 -38 -36.5 -26.5t17.5 48.5q39 70 153.5 284t189.5 453h-64.5h-57.5q-61 0 -90 -6l-35 -6q-21 -3 -31 12l-21 33q-11 16 6 16zM1898 651q53 -24 28 -31t-43 -7q-40 0 -67 -4.5t-59 -28.5q-36 -27 -57 3q-157 207 -202 380t-57 411q-11 0 -21.5 -0.5t-20.5 -0.5
q0 -164 -0.5 -357t-0.5 -366.5v-304v-170.5q0 -25 -2.5 -31t-27.5 -15q-12 -5 -24.5 -11t-33.5 -12q-30 -10 -30 32q0 96 0.5 388t0.5 604q-1 -3 -3 -7q-63 -126 -147 -280.5t-240 -325.5q-34 -38 -43.5 -25t17.5 46q36 46 166 297t201 538q-46 -1 -84 -1h-64q-61 0 -90 -5
l-35 -7q-21 -3 -30 12q-6 8 -11.5 16t-10.5 17q-11 16 7 16h368v298v187q-1 35 7 38t32 -5q27 -10 69 -25.5t56 -21.5q26 -14 0 -40q-23 -22 -35.5 -33t-11.5 -51v-115.5v-231.5h210q25 0 45 18q5 4 27 26q41 40 86 2q12 -11 28.5 -25t28.5 -24q20 -18 25.5 -30.5
t-33.5 -12.5q-36 0 -128 -0.5t-200 -0.5q14 -144 40 -232.5t65 -172.5q48 -105 119.5 -186t185.5 -132z" />
    <glyph glyph-name="lozenge" unicode="&#x25ca;" 
d="M778 1661h715q25 0 46 18q9 8 27 26q40 40 85 2q35 -29 57 -49q20 -18 25.5 -30t-33.5 -12q-36 0 -136.5 -0.5t-218 -1.5t-228.5 -1.5t-168 -0.5q-62 0 -91 -5l-35 -6q-21 -4 -30 11q-11 17 -22 33t7 16zM781 404q28 34 41 52q99 131 181 301.5t138 316.5
q-117 -1 -210.5 -1h-134.5q-24 -1 -46.5 -2t-43.5 -4l-35 -6q-21 -4 -30 11q-6 8 -11.5 16.5t-10.5 17.5q-11 16 7 16h1003q26 0 46 17l13 13t14 13q40 40 85 3q12 -11 28.5 -25t28.5 -24q20 -18 25.5 -30.5t-33.5 -12.5q-37 0 -187 -1t-324 -1q10 -17 -24 -32
q-17 -9 -28 -22.5t-41 -63.5q-37 -63 -128.5 -213t-238.5 -331q204 18 387 37.5t405 44.5q-42 75 -105.5 156.5t-117.5 137.5q-19 19 -8 27.5t25 -0.5q90 -60 251.5 -196t178.5 -233q11 -73 -22 -113q-19 -23 -52 -44.5t-61 17.5q-25 34 -26.5 73t-38.5 124
q-202 -31 -469 -88.5t-459 -108.5q-21 -6 -26.5 -1.5t-13.5 10.5q-9 5 -35 49.5t-37 63.5q-15 23 17 26q31 3 62 5t61 5zM173 933q113 222 212 465t144 506q5 33 15.5 27.5t19.5 -11.5q21 -15 61 -45l40 -30l9 -12.5t-4 -21.5q-41 -31 -56 -73q-33 -86 -61 -163.5
t-57 -149.5q43 -21 79 -41q25 -16 2 -39q-24 -22 -27.5 -36.5t-3.5 -38.5l-1 -1055q0 -49 -30 -69q-20 -14 -58 -26q-30 -10 -30 33l2 1116q-42 -85 -95 -172t-128 -182q-23 -28 -36.5 -21.5t3.5 39.5z" />
    <glyph glyph-name="q" unicode="q" 
d="M1813 278q62 -2 45 -16.5t-43 -17.5q-74 -12 -115 -84q-18 -31 -51 -22q-267 66 -439 143q-88 39 -152 81q-186 -111 -398.5 -174t-422.5 -75q-53 -3 -59 9.5t57 24.5q161 30 282.5 68t221.5 81q131 55 237 128q-121 101 -205 261q-68 -69 -138 -124q-74 -60 -161.5 -114
t-189.5 -114q-35 -20 -39 -3t18 32q90 62 175 133t156 147q66 71 115 135t93 145q0 2 1.5 4t2.5 5q-67 9 -103.5 35.5t-36.5 120.5l-1 219q0 36 34 29q18 -4 57 -12.5t50 -13.5q28 -15 3 -35q-30 -25 -36 -59q-5 -24 -5 -61.5v-69.5q0 -57 113 -66q45 -4 191.5 -9t167.5 -2
q70 6 87 84q6 28 11 60.5t7 42.5q4 36 21 35t15 -40q-4 -74 8.5 -106t39.5 -53q36 -31 10 -71q-30 -42 -186 -49q-71 -4 -171 0t-165 9q3 -3 6 -4.5t6 -3.5q22 -17 9 -34q-47 -60 -93 -114h439q10 12 28 30.5l18 18.5l8.5 10t28.5 1q20 -10 73.5 -45t64.5 -44q27 -24 -5 -32
q-18 -4 -51.5 -23t-54.5 -42q-104 -119 -237 -211q12 -6 36 -16q135 -59 305 -94t317 -38zM1268 1471q60 82 103 157t54 97q12 25 34 15q26 -14 59.5 -35t52.5 -34q26 -23 -13 -35q-24 -7 -34 -7.5t-26 -17.5q-15 -16 -59.5 -57.5t-89.5 -82.5h312q10 15 23 28q34 38 54 25
q21 -16 75.5 -57t68.5 -54q27 -28 -12 -30q-63 -3 -135.5 -47.5t-142.5 -109.5l-12 -9q82 -56 117 -103q28 -39 19.5 -84t-52.5 -44t-54 45t-40 86l-36 48t-79 84q-13 12 -6 22t26 4q33 -11 86 -45q28 42 60.5 96t54.5 99h-1273q3 -38 1 -70q-9 -117 -45 -157
q-34 -39 -57.5 -48.5t-56.5 -12.5q-14 -2 -40 4t-40 26q-14 18 -3.5 41t27.5 33q45 27 89 71.5t63 98.5q10 30 12 64.5t4 42.5q1 18 13.5 11.5t15.5 -16.5q6 -21 10 -42h232q-17 18 -26.5 56.5t-37.5 79.5q-16 23 -50.5 58t-64.5 56q-5 3 -9 9q-15 -1 -31 -1.5t-31 -0.5
q-36 -1 -31 9.5t26 13.5q546 61 795 114.5t308 65.5q49 8 60 -8q6 -10 33 -49t33 -49q16 -29 -27 -20q-46 9 -90 3q-66 -9 -187 -25t-336 -31q40 -30 83.5 -74t57.5 -86q21 -74 -31 -121h196zM923 1358q47 -15 111 -52.5t91 -73.5q28 -39 19.5 -84.5t-53.5 -43.5
q-44 0 -57 44.5t-42 86.5q-18 24 -37 50.5t-50 48.5q-15 10 -7.5 20t25.5 4zM911 1749q-177 -11 -409 -18q52 -21 118.5 -59.5t90.5 -75.5q51 -79 -11 -125h292q-18 22 -16 66t-10 83q-10 33 -22.5 67t-32.5 62zM526 1261q3 -18 6.5 -51.5t0.5 -78.5q-6 -70 -41 -114
q-44 -54 -91 -59q-12 -2 -32.5 1t-29.5 20q-18 31 7.5 54t44.5 36q24 17 50 42.5t41 64.5q9 24 10.5 52.5t2.5 34.5q1 14 14 14t17 -16zM807 713q96 -141 245 -232q73 59 124.5 118t93.5 114h-463z" />
    <glyph glyph-name="Ydieresis" unicode="&#x178;" 
d="M744 1563h281l1 338q0 33 34 21q16 -6 55.5 -22t55.5 -24q32 -17 9 -44q-21 -24 -26 -31.5t-5 -50.5l-1 -187h174v329q0 44 39 33q21 -7 57.5 -20t57.5 -23q30 -15 2 -38q-39 -32 -39 -80v-201h176l50 55q19 22 43 7q16 -11 44.5 -37t44.5 -38q14 -14 -2 -29
q-11 -12 -25.5 -27t-14.5 -39l-2 -289q0 -32 -11 -39q-8 -6 -41.5 -17.5t-42.5 -12.5q-23 -4 -23 29v65h-97.5h-98.5v-272h273q15 15 31 33t25 27q25 21 51 0q21 -18 48.5 -44.5t39.5 -37.5q21 -23 0 -39q-29 -21 -42 -31t-16 -48q-4 -46 -8.5 -119.5t-20.5 -124.5
q-21 -66 -56 -101t-85 -65q-47 -28 -65 31q-21 60 -53 76.5t-80 36.5q-33 12 -31.5 22t33.5 6q38 -5 74.5 -8t75.5 -1q77 2 91 118q7 57 9.5 118.5t5.5 103.5q-73 -1 -149 -1h-151v-661q0 -34 -23 -48q-16 -9 -66 -25q-30 -10 -30 33l1 701q-48 0 -94.5 -0.5t-89.5 -0.5
q-7 -86 -19 -150q-46 -220 -154 -353t-255 -247q-27 -21 -39.5 -9t11.5 34q82 81 177.5 214.5t140.5 365.5q12 67 18 145h-94.5h-76.5q-15 -14 -34.5 -31.5t-28.5 -23.5q-18 -12 -36 2q-9 5 -34 26.5t-33 29.5q-19 17 -2 32q13 12 31 22t18 25v320q0 40 36 25
q51 -20 112 -59h149l1 276q-36 0 -64 -0.5t-46 -0.5q-61 0 -90 -5l-35 -6q-22 -4 -31 11q-6 8 -11.5 16.5t-10.5 17.5q-11 16 7 16zM836 919h183q5 83 5 222v48h-89h-73q-24 -16 -25 -40zM138 939q113 222 212.5 466t144.5 508q5 33 15.5 27t19.5 -12q21 -15 61 -44.5
l40 -29.5l9 -12.5t-4 -21.5q-41 -34 -56 -74q-33 -87 -61.5 -165t-57.5 -150q22 -12 46.5 -25t33.5 -18q26 -15 2 -38t-27.5 -37.5t-3.5 -37.5l-1 -1058q0 -49 -30 -69q-20 -14 -58 -26q-30 -10 -30 32l1 1122q-41 -86 -94.5 -172.5t-128.5 -181.5q-23 -29 -36.5 -22.5
t3.5 39.5zM1321 1190h-89.5h-86.5v-58q0 -133 -5 -213h181v271zM1439 1515v-277h196v278q-52 0 -101.5 -0.5t-94.5 -0.5zM1321 1238l1 277q-49 0 -92.5 -0.5t-82.5 -0.5l-1 -276h175z" />
    <glyph glyph-name="fraction" unicode="&#x2044;" 
d="M370 1621h604v271q0 36 9.5 38t21.5 -1q23 -8 70.5 -28.5t65.5 -32.5q17 -12 0 -35q-19 -27 -34.5 -42t-15.5 -60v-110h401q26 0 46 17q18 18 27 26q41 40 86 3q12 -11 28.5 -25t28.5 -24q20 -18 25.5 -30.5t-33.5 -12.5t-220.5 -1t-388.5 -1v-299h564q25 0 45 17l27 27
q41 40 86 2q12 -11 28.5 -25t28.5 -24q20 -18 25.5 -30.5t-33.5 -12.5q-36 0 -254 -0.5t-476.5 -1.5t-487 -1h-285.5q-24 -1 -46.5 -2t-43.5 -4l-35 -6q-22 -4 -31 11q-12 18 -22 34q-11 16 7 16h786v299q-148 -1 -268 -1.5t-165 -0.5q-61 0 -90 -5l-35 -6q-21 -4 -31 11
q-20 30 -22 34q-11 16 7 16zM1314 1151q49 -24 85.5 -49t50.5 -36q30 -23 -3 -40q-14 -6 -29.5 -15.5t-15.5 -37.5v-97h233q25 0 45 17q7 6 13.5 13t13.5 13q41 40 86 3q12 -11 28.5 -25t28.5 -24q20 -18 25.5 -30.5t-33.5 -12.5q-26 0 -149 -0.5t-291 -0.5l-2 -423
q0 -44 1 -94.5t-26 -87.5q-10 -13 -37 -36.5t-59 -41.5q-60 -33 -75 -30.5t-21 35.5q-9 49 -48 87q-58 55 -158 72q-36 6 -34 19.5t47 7.5q22 -3 68 -10t79 -10q57 -6 100 0t43 65l-1 447q-293 -1 -584.5 -2t-357.5 -1q-62 0 -91 -5l-35 -7q-21 -3 -30 12q-3 4 -22 34
q-11 16 6 16h1114l-1 254q0 39 36 21zM603 758q39 -30 104.5 -96.5t80.5 -129.5q12 -52 -4 -92.5t-31 -50.5q-12 -9 -33.5 -11t-32.5 21q-16 31 -14.5 72.5t-25.5 125.5q-26 73 -66 142q-10 15 -1.5 22t23.5 -3z" />
    <glyph glyph-name="Euro" unicode="&#x20ac;" 
d="M1379 1785h306l55 62q13 14 32 2q79 -58 110 -90q17 -20 -3 -34q-22 -15 -54 -32q-30 -18 -39 -39l-202 -410q-15 -26 4 -39q174 -132 236 -255.5t48 -223.5q-14 -104 -84.5 -176t-145.5 -99q-31 -12 -37 0t-13 28q-31 69 -80.5 101t-83.5 47q-21 9 -29 26t49 -1
q141 -47 225 -16q80 29 80.5 118.5t-21.5 150.5q-60 166 -196 283q-13 10 -4 35q21 65 44 127.5t47 133.5q21 61 37.5 124.5t35.5 126.5h-324q-12 -16 -12 -48l-2 -1437q0 -37 -13 -51q-12 -12 -35.5 -22.5t-36.5 -13.5q-33 -9 -33 41l1 1634q0 40 34 15q10 -8 44 -29
t60 -39zM1178 613q-51 -11 -162 -34.5t-245.5 -53t-274.5 -61.5t-249 -60q-33 -9 -44 15q-6 11 -24.5 57l-18.5 46l-2.5 12t18.5 13q64 1 193 10l-1 1225q0 37 31 22q19 -10 77 -45q16 -10 16 -33q113 30 283.5 90.5t181.5 64.5q35 11 50 -9q10 -17 32 -52t30 -55
q13 -35 -22 -27q-68 11 -117 6q-24 -3 -194.5 -26.5t-243.5 -31.5v-388h470q25 0 45 18q5 4 27 26q41 40 86 3q12 -11 28.5 -25.5t28.5 -24.5q20 -18 25.5 -30t-33.5 -12q-24 0 -97 -0.5t-170 -0.5q-22 -26 -22 -62l1 -586q160 19 292 37q34 4 32.5 -9.5t-27.5 -18.5z
M493 566q43 3 88 7t91 9q64 6 96 10l-1 659q-69 0 -139 -0.5t-136 -0.5z" />
    <glyph glyph-name="guilsinglleft" unicode="&#x2039;" 
d="M187 1159h855q-2 4 -3 5q-6 15 -7 35t-11 49q-10 24 -50 71q-9 9 -1 17t20 4q32 -14 74.5 -37t63.5 -52q15 -21 7 -49t-27 -43h525q25 0 46 18q9 8 27 26q41 40 86 2q12 -10 28.5 -24.5t28.5 -24.5q20 -18 25.5 -30.5t-33.5 -12.5q-36 0 -251 -0.5t-469.5 -1t-480 -1
t-282.5 -0.5q-61 0 -90 -5l-35 -7q-21 -3 -31 12q-18 26 -22 33q-11 16 7 16zM1275 573q89 -15 258 -60t213 -123q26 -47 9 -79t-27 -43q-34 -34 -80 19q-26 29 -127.5 115.5t-255.5 140.5q-36 12 -26 23t36 7zM188 237q128 71 275.5 168.5t223.5 180.5q29 31 55 13
q6 -6 16.5 -13.5t23.5 -16.5q40 -28 53 -41q20 -26 -17 -33q-9 -2 -25 -3t-28 -6q-20 -9 -73 -42q-100 -63 -227 -122t-258 -113q-20 -9 -31.5 3.5t12.5 24.5zM1351 991l58 45q24 19 48 2l78 -56q29 -20 6 -41q-11 -9 -24.5 -21t-13.5 -30l3 -179q0 -29 -13 -41
q-9 -9 -42 -23t-45 -16q-25 -5 -25 30l-1 34q-70 0 -143 -0.5t-143 -0.5v-186.5t1 -150.5q0 -32 -1 -65q0 -47 -24 -77q-16 -23 -72 -48q-25 -13 -53 -21q-45 -15 -49 27q-3 24 -22.5 46t-34.5 31q-25 13 -50.5 21.5t-49.5 20.5q-22 10 -22.5 20t29.5 4q57 -14 105 -19
q52 -6 90 3.5t40 74.5q3 157 3 319q-105 0 -187.5 -0.5t-124.5 -0.5v-4q0 -28 -9.5 -36t-15.5 -12q-23 -16 -62 -24q-25 -6 -25 25l1 390q0 25 26 15q28 -11 59 -27t58 -29h647zM1380 742l-3 202q-193 -1 -391.5 -1.5t-292.5 -0.5q-19 -23 -19 -50l-1 -150h707zM1356 1857
l47 37q23 18 48 2l87 -60q23 -16 3 -37q-6 -8 -11.5 -12.5t-9.5 -9.5q-16 -26 -16 -36l-2 -385q0 -31 -11 -41q-9 -8 -45.5 -17.5t-48.5 -11.5q-25 -5 -25 30l-1 51q-174 -1 -352 -1.5t-278 -0.5v-16q-2 -41 -26 -47l-67 -19q-25 -8 -25 25l1 570q0 35 32 22l106 -43h594z
M1371 1414l-1 182q-172 -1 -351 -1.5t-278 -0.5v-180h630zM1369 1642l-1 168q-165 -1 -332.5 -1.5t-265.5 -0.5q-28 -19 -28 -55v-111h627z" />
    <glyph glyph-name="guilsinglright" unicode="&#x203a;" 
d="M495 1426q53 -25 79 -42q24 -15 1 -38q-31 -31 -31 -75v-1057q0 -50 -30 -70q-24 -15 -58 -26q-30 -10 -30 33l1 1119q-41 -86 -94.5 -173t-128.5 -182q-23 -28 -36.5 -21.5t3.5 39.5q113 222 212.5 465.5t144.5 507.5q5 33 15.5 27.5t19.5 -11.5q21 -15 61 -45l40 -30
l9 -12.5t-4 -21.5q-41 -31 -56 -73q-33 -87 -61 -164.5t-57 -149.5zM900 408h328v317t0.5 422.5t1 408.5t0.5 276q-1 36 6.5 38.5t18.5 -1.5q22 -8 73 -26.5t66 -25.5q25 -12 8 -37q-20 -27 -28 -48t-7 -61v-208v-381.5v-402.5v-271h336q0 244 0.5 575.5t0.5 474.5
q0 36 7 38.5t19 -0.5q21 -8 72 -26.5t67 -25.5q25 -13 7 -37q-19 -27 -27 -48t-7 -61q0 -36 -0.5 -182t-0.5 -318.5v-330.5v-217q0 -25 -2.5 -31t-27.5 -15q-12 -5 -35 -11t-43 -12q-30 -10 -30 32v62.5v78.5h-798q-15 -15 -34 -30.5t-28 -22.5q-19 -16 -43 6
q-15 12 -34 26.5t-32 27.5q-20 19 -7 31q5 6 13 13t13 13q8 8 8 17v244t0.5 299t1 292t0.5 223q0 36 7 38.5t18 -0.5q22 -9 73 -27t66 -25q25 -12 8 -37q-19 -27 -27 -48t-8 -61v-163.5v-279.5v-289v-193z" />
    <glyph glyph-name="uniFB01" unicode="&#xfb01;" 
d="M177 1661h832q-7 59 -27 105.5t-51 100.5q-9 14 -7.5 29.5t33.5 0.5q53 -28 98 -69q47 -45 38 -94q-8 -42 -27 -73h577q26 0 46 17l13 13l14 14q41 40 86 2q12 -11 28.5 -25t28.5 -24q20 -18 25.5 -30.5t-33.5 -12.5q-36 0 -254 -0.5t-476.5 -1.5t-487 -1h-285.5
q-25 -1 -47 -2t-44 -4l-35 -6q-21 -4 -30 11q-6 8 -11.5 16.5t-10.5 17.5q-11 16 7 16zM1328 1449l48 68q18 26 40 3q13 -14 38.5 -38t41.5 -41q21 -22 4 -40q-9 -9 -27 -26t-18 -44l-2 -190q0 -31 -11 -41q-9 -8 -37 -21t-38 -14q-22 -6 -22 29l1 56h-673v-36
q0 -37 -17 -42q-30 -11 -70 -17q-25 -4 -25 25l-1 415q0 29 26 16q30 -15 60 -32t56 -30h626zM1346 1200l1 198h-660q-15 -19 -15 -42l1 -156h673zM1204 775l45 69q14 22 40 3q12 -9 40 -33.5t45 -40.5q22 -21 3 -40q-9 -9 -26.5 -26t-17.5 -44l-2 -195q-2 -32 -11 -41
q-9 -8 -35 -21t-35 -14q-22 -6 -22 29v69h-457l1 -49q0 -29 -18 -42q-22 -22 -54 -29q-25 -6 -25 25l-2 425q0 29 27 16q25 -16 46 -32.5t41 -28.5h417zM1229 540l1 184h-459v-184h458zM1581 968q12 17 26 36t27 37q12 17 31 3q23 -21 53.5 -49.5t45.5 -43.5q17 -17 4 -33
q-15 -18 -34 -32.5t-19 -42.5l-3 -426q0 -90 -11.5 -144.5t-95.5 -99.5q-60 -33 -74 -28.5t-22 32.5q-19 62 -55.5 96t-81.5 58q-46 24 -37 34.5t46 -0.5q36 -12 128.5 -23t92.5 72l-1 504h-1144q-16 -19 -16 -53l1 -629q1 -32 -17 -46q-15 -15 -56 -36q-26 -15 -26 21
l-2 860q0 47 33 13q21 -23 39 -44t36 -36h1132z" />
    <glyph glyph-name="uniFB02" unicode="&#xfb02;" 
d="M118 1449h273q13 124 19 225.5t10 168.5q3 39 39 25q32 -15 69.5 -34t48.5 -25q24 -16 4 -35q-31 -32 -37 -74q-9 -54 -18.5 -118t-21.5 -133h169q25 0 45 17l13 13l14 14q41 40 86 2q12 -11 28.5 -25t28.5 -24q20 -18 25.5 -30.5t-33.5 -12.5q-48 0 -159.5 -1t-225.5 -1
q-44 -239 -128 -512t-248 -491q-31 -40 -40.5 -29t11.5 47q79 135 131.5 281.5t88.5 288.5q50 203 75 414h-51.5h-44.5q-57 0 -91 -6l-35 -6q-21 -4 -30 11q-6 8 -11.5 16.5t-10.5 17.5q-11 16 7 16zM764 528q-15 46 -34.5 97.5t-37.5 104.5q-8 19 -0.5 21t17.5 -9
q45 -52 92 -109t71 -109q11 -24 19 -60.5t-2 -69.5q-14 -42 -50 -58t-47 52q-3 21 -7 48.5t-13 62.5q-184 -54 -344 -131q-22 -11 -36 3q-4 4 -28 35t-30 42q-9 12 6 22q36 23 51 41q19 22 40 76q51 140 86 310.5t58 315.5q7 48 34 37q30 -12 57.5 -27t45.5 -26
q28 -18 -1 -41q-15 -11 -23.5 -26t-26.5 -66q-15 -41 -40.5 -114.5t-58.5 -163.5q-27 -72 -61.5 -163.5t-65.5 -144.5v0h1q163 21 328 50zM1117 1508q-21 -25 -21 -65v-248h316l1 314q-77 0 -153 -0.5t-143 -0.5zM1096 1147v-335h316v336q-79 0 -160 -0.5t-156 -0.5z
M1096 763v-353h315l1 355q-81 -1 -162 -1.5t-154 -0.5zM1096 362v-146q0 -40 -16 -54q-20 -17 -57 -29q-30 -10 -30 33l1 1152q-33 -60 -75.5 -130t-104.5 -163q-21 -30 -35.5 -23.5t2.5 39.5q113 222 189.5 413.5t122.5 442.5q6 33 35 16q19 -12 49.5 -30.5t48.5 -30.5
q25 -19 -1 -30q-24 -9 -33 -29t-15 -38q-24 -61 -42 -109.5t-33 -89.5h588q25 0 46 18q9 8 27 26q41 40 86 2q12 -10 28 -24.5t29 -24.5q20 -18 25 -30.5t-34 -12.5q-29 0 -129.5 -0.5t-229.5 -0.5q-28 -28 -28 -72v-242h100q26 0 46 17l13 13l14 14q40 40 85 2
q12 -11 28.5 -25t28.5 -24q50 -43 -8 -43q-26 0 -111 -0.5t-196 -0.5l-1 -336h123q26 0 46 17l13 13l14 14q41 40 86 2q12 -11 28.5 -25t28.5 -24q20 -18 25.5 -30.5t-33.5 -12.5q-28 0 -119.5 -0.5t-211.5 -0.5v-355h221q25 0 46 18q9 8 27 26q41 40 86 3q12 -11 28.5 -25
t28.5 -24q20 -18 25.5 -30.5t-33.5 -12.5q-29 0 -124 -0.5t-219.5 -1t-259 -1t-239.5 -0.5zM1329 1913q37 -20 102 -66.5t86 -97.5q18 -42 9.5 -83t-19.5 -52q-9 -9 -27 -14t-30 13q-18 24 -22 64t-39 107q-34 61 -76 109q-11 12 -4.5 19t20.5 1z" />
    <glyph glyph-name="bullet" unicode="&#x2022;" 
d="M164 1225h489q18 47 60.5 156t59.5 206q2 18 10 24q-99 -1 -201.5 -1.5t-166.5 -0.5q-62 0 -91 -5l-35 -7q-21 -3 -30 12q-6 8 -11.5 16t-10.5 17q-11 16 7 16h366q-11 18 -15 52q-7 55 -28.5 94t-55.5 83q-10 11 -4 17.5t20 1.5q57 -21 103.5 -51t64.5 -77
q13 -35 0.5 -70t-24.5 -50h146q24 0 45 18q9 8 27 26q41 40 86 2q12 -10 28.5 -24.5t28.5 -24.5q20 -18 25.5 -30t-33.5 -12q-30 -1 -91 -1.5t-134 -0.5q6 -3 13 -9q12 -12 43 -38.5t43 -36.5q22 -18 -5 -29q-30 -14 -44 -31q-9 -11 -69 -105.5t-89 -136.5h181q25 0 45 17
l27 27q41 40 86 2q12 -11 28 -25t29 -24q20 -18 25.5 -30.5t-33.5 -12.5q-42 0 -161.5 -1t-250.5 -1v-270h150q25 0 45 17l13 13l14 14q41 40 86 2q12 -11 28.5 -25t28.5 -24q20 -18 25.5 -30.5t-33.5 -12.5q-43 0 -145 -1t-212 -1v-503q0 -82 -14 -108q-18 -32 -42.5 -47
t-51.5 -28q-40 -19 -47 25q-9 51 -34.5 69.5t-65.5 33.5q-37 13 -44.5 25.5t39.5 8.5q105 -12 130 -4t26 80l1 448q-47 -1 -88 -1h-71q-25 -1 -47.5 -2t-43.5 -4l-35 -6q-21 -3 -30 11q-6 9 -11.5 17t-10.5 17q-11 16 7 16h330l1 270q-72 -1 -132.5 -1h-96.5q-62 0 -91 -6
l-35 -6q-21 -3 -30 12q-6 8 -11.5 16t-10.5 17q-11 16 6 16zM1279 1708q152 29 285.5 83.5t152.5 64.5q30 15 44 -5q46 -66 63 -115q11 -31 -23 -27q-42 3 -121 -5q-96 -12 -222 -24t-191 -17q-18 -20 -18 -61l-6 -359h436q25 0 45 18q5 4 27 26q41 40 86 2q12 -11 28.5 -25
t28.5 -24q20 -18 25.5 -30.5t-33.5 -12.5h-89.5h-174.5v-229.5v-312v-291.5v-168q0 -24 -15 -32q-24 -15 -63 -20q-21 -3 -21 21v173v276t0.5 309t0.5 274q-66 -1 -137 -1h-145l-2 -107q-6 -320 -53 -544.5t-251 -391.5q-27 -21 -39.5 -11t7.5 36q55 72 96.5 148t66.5 142
q54 146 62.5 302.5t9.5 359.5l2 616q0 33 34 21q7 -3 42.5 -24t61.5 -35zM752 757q48 -21 118 -69t95 -98q19 -39 8 -79t-23 -53q-11 -12 -29 -23.5t-34 7.5q-23 27 -25 71.5t-35 105.5q-30 53 -88 113q-14 12 -8.5 21.5t21.5 3.5zM381 1548q53 -28 99 -64.5t64 -80.5
q15 -39 0.5 -69t-24.5 -40q-36 -36 -52 -2t-19 59q-7 56 -29 94.5t-55 82.5q-10 12 -4 19t20 1zM136 264q158 240 251 503q7 24 25 12q21 -13 47 -31.5t48 -33.5q16 -13 -6 -22q-35 -14 -46 -31q-122 -180 -162 -242.5t-139 -168.5q-20 -22 -25 -13t7 27z" />
    <glyph glyph-name="section" unicode="&#xa7;" 
d="M653 287h312l1 1460q0 25 26 15q30 -12 65.5 -29t64.5 -30h384q11 12 25 27t21 22q24 26 43 13q14 -9 45.5 -30.5t49.5 -36.5q20 -20 3 -40q-6 -8 -11.5 -12t-9.5 -10q-16 -19 -16 -35l-2 -1314h68q25 0 45 17l27 27q41 39 86 2q12 -11 28.5 -25t28.5 -24
q20 -18 25.5 -30.5t-33.5 -12.5q-36 0 -191.5 -0.5t-339.5 -1.5t-350.5 -1.5t-223.5 -0.5q-61 0 -90 -5l-36 -6q-20 -4 -30 11q-6 8 -11.5 16.5t-10.5 17.5q-11 16 7 16zM1121 1654q-35 -20 -35 -62v-327h454l1 391q-100 -1 -209.5 -1.5t-210.5 -0.5zM1085 1217v-395h455
v397q-110 -1 -229.5 -1.5t-225.5 -0.5zM1085 774v-487h454v489q-111 -1 -230 -1.5t-224 -0.5zM101 714q99 109 177 206t139 181q135 190 202 340q-100 0 -182.5 -0.5t-124.5 -0.5q-62 0 -91 -5l-35 -7q-21 -3 -31 12q-14 22 -22 33q-12 17 7 17h483q28 30 50 55q21 26 41 15
q15 -9 46.5 -34.5t39.5 -31.5q9 -8 18.5 -21t-10.5 -22q-21 -11 -48.5 -34t-38.5 -41q-57 -94 -88 -143.5t-70 -102.5q37 -7 88 -23.5t93 -42.5q84 -54 86 -110q2 -69 -30 -85t-62 2t-58 86t-120 123l1 -873q0 -34 -25 -49q-32 -22 -66 -28q-26 -7 -26 28l1 828
q-56 -60 -138.5 -137t-183.5 -157q-43 -35 -38.5 -13t16.5 35zM418 1889q-15 19 -9.5 29t59.5 -26q39 -27 97.5 -78t66.5 -117q6 -53 -21 -88.5t-49 -36.5q-44 -4 -50 42q-4 25 -7.5 63.5t-23.5 95.5q-22 63 -63 116z" />
    <glyph glyph-name="M" unicode="M" 
d="M150 248h828v144.5v142.5q-112 -1 -202.5 -1.5t-131.5 -0.5q-61 0 -91 -5l-35 -6q-21 -4 -30 11q-6 8 -11.5 16.5t-10.5 17.5q-12 16 7 16h505v148v135q-123 -1 -241.5 -1.5t-218.5 -0.5q-42 -55 -94.5 -116.5t-112.5 -109.5q-39 -33 -42 -15.5t7 32.5q56 87 124.5 211
t95.5 190q11 27 20 25.5t24 -7.5q44 -19 73 -49q17 -17 -5 -42q-18 -22 -53 -70h423v126.5v86.5q0 36 7.5 39t31.5 -6q28 -11 66.5 -30t66.5 -34q24 -14 4 -36q-28 -30 -44 -42.5t-15 -63.5v-16v-24h428q25 0 45 17l27 27q41 40 86 2q12 -11 28.5 -25t28.5 -24
q50 -43 -8 -43q-33 0 -218 -0.5t-417 -0.5v-123.5v-159.5h330q26 0 46 17l13 13t14 13q41 40 86 3q12 -11 28 -25t28 -24q50 -43 -8 -43q-39 0 -199 -1t-338 -1v-140v-147h575q27 0 45 18q10 8 28 26q41 41 85 2q12 -10 28.5 -24.5t28.5 -24.5q21 -18 26 -30t-34 -12
q-36 -1 -262 -1.5t-494.5 -1.5t-505.5 -1h-294q-61 0 -90 -5l-35 -7q-21 -3 -31 12q-14 22 -22 33q-10 16 7 16zM1423 1781l30 37.5l26 32.5q16 19 40 2q12 -9 40 -33t45 -40q22 -23 3 -40q-9 -9 -26.5 -26t-17.5 -44l-2 -446q0 -32 -11 -42q-9 -8 -39.5 -21t-40.5 -14
q-22 -4 -22 29v36h-854v-53q0 -28 -10 -36t-16 -12q-7 -4 -25 -12.5t-34 -11.5q-25 -6 -25 25l-2 722q0 26 27 16q27 -13 55 -33.5t54 -35.5h805zM1448 1262l1 224h-856v-224h855zM1449 1537l1 194h-844q-14 -21 -14 -42l1 -152h856z" />
    <glyph glyph-name="e" unicode="e" 
d="M151 769h669q-13 8 -24 26q-21 38 -23 74t-64 117q-18 24 6 28h-29h-27v-5q0 -39 -16 -50q-31 -22 -57 -27q-29 -8 -29 28l1 408q0 19 12 17.5t18 -4.5q18 -10 45 -23.5t54 -26.5h703q11 21 20 39t19 36q15 27 42 7q38 -31 76 -69q18 -18 2 -34q-20 -19 -28.5 -30
t-8.5 -40l-1 -227q-2 -28 -14 -36q-12 -7 -32.5 -18t-34.5 -15q-27 -8 -27 15v57h-67h-69q-2 1 13 -8q22 -15 44 -32t41 -30q29 -20 -6 -27q-36 -10 -58 -32q-12 -12 -52 -53t-63 -65h483q26 0 46 18q9 8 27 26q40 40 86 2q12 -10 28 -24.5t28 -24.5q21 -18 26 -30t-34 -12
q-36 -1 -261.5 -1.5t-493.5 -1.5t-505 -1h-294q-61 0 -90 -5l-35 -7q-21 -3 -31 12q-14 22 -22 33q-11 16 7 16zM1242 1015q-129 0 -264 -0.5t-255 -0.5q2 0 8 -2q35 -14 87.5 -47t70.5 -70q16 -35 8.5 -71.5t-20.5 -48.5q-2 -2 -4 -3.5t-3 -2.5h256q20 36 60 117t48 113
q3 12 8 16zM973 1889q0 43 28 33q57 -22 89.5 -36.5t47.5 -21.5q34 -14 4 -44q-28 -28 -32 -71q-2 -28 -2 -59h497q26 0 46 17l13 13l14 14q41 41 86 2q12 -11 28 -25t28 -24q50 -43 -8 -43q-38 0 -249.5 -1t-454.5 -1v-163h279q25 0 46 18q9 8 27 26q41 40 86 2
q12 -10 28.5 -24.5t28.5 -24.5q20 -18 25.5 -30.5t-33.5 -12.5q-36 0 -165.5 -0.5t-281.5 -1.5t-292 -1h-197q-62 0 -91 -5l-35 -7q-21 -3 -30 12q-6 8 -11.5 16t-10.5 17q-11 16 7 16h486l-1 163q-180 -1 -323.5 -1.5t-188.5 -0.5q-61 0 -90 -5l-36 -6q-20 -4 -30 11
q-6 8 -11.5 16.5t-10.5 17.5q-11 16 7 16h683v199zM638 305h745v286q-164 0 -359.5 -0.5t-366.5 -0.5q-18 -26 -18 -58zM1383 258q-171 0 -373.5 -1t-371.5 -1v-53q0 -37 -16 -47q-26 -20 -76 -30q-28 -8 -28 28l1 520q1 27 29 14q18 -9 52 -22.5t67 -27.5h694q32 27 58 46
q20 16 42 3l45 -30t41 -29q21 -17 2 -34q-21 -19 -28 -29t-7 -38l-1 -309q0 -27 -14 -36q-11 -7 -43.5 -18t-46.5 -15q-26 -9 -26 15v94zM1403 1284q-165 0 -359.5 -1t-359.5 -1q-23 -23 -23 -61l-2 -159h744v222z" />
    <glyph glyph-name="r" unicode="r" 
d="M299 352q3 4 6 9t7 11q-4 -6 -7 -11t-6 -9zM810 1157h566q18 20 35 39.5t27 29.5q26 28 43 15q62 -49 121 -116q15 -17 -12 -34q-26 -17 -54 -37q-17 -12 -38.5 -48t-29.5 -62q-44 -101 -87.5 -198.5t-116.5 -187.5v0v0l4 -4t5 -3q1 -2 2.5 -3t3.5 -2l3.5 -3.5t4.5 -2.5
q-2 1 7 -5q1 -2 3 -3.5t4 -2.5q6 -4 9 -7q4 -2 6 -4l9 -6q2 -2 6 -4q3 -3 11 -7q0 -1 1.5 -2t2.5 -1q12 -9 11 -8q4 -2 5 -3q8 -4 12 -7q1 -1 2.5 -2t3.5 -1q3 -3 6 -4.5t6 -3.5q2 0 4 -2q3 -3 6.5 -4.5t6.5 -3.5l1.5 -0.5t2.5 -0.5q6 -6 14 -8l4 -2l14 -7q0 -1 1 -1.5
t2 -0.5q3 -3 7.5 -4.5t8.5 -3.5l1 -0.5l1 -0.5q5 -3 9 -5t10 -4v0v0q6 -2 18 -8l4 -2q10 -4 16 -6q0 -1 1 -1.5t2 -0.5q15 -6 17 -7l1 -0.5t2 -0.5q9 -3 19 -8v0h1q27 -9 20 -7l0.5 -0.5t1.5 -0.5q-7 2 20 -7h0.5h1.5q6 -3 20 -7q1 -1 3 -1q7 -3 21 -7v0v0q6 -2 11 -4t11 -3
q2 0 3 -1q6 -2 20 -6q2 0 3 -1q6 -2 11.5 -3.5t11.5 -2.5l1 -0.5l1 -0.5q17 -5 22 -5l4 -2q7 -1 21 -5q1 0 2 -0.5t2 -0.5q13 -4 22 -5q1 -1 4 -1q7 -2 23 -6h1h2q8 -2 26 -6q57 -12 33.5 -21t-41.5 -12q-63 -15 -101 -69q-22 -33 -51 -20q-21 9 -67 29h-1.5h-0.5
q-10 4 -21 8.5t-21 10.5h-1h-1q-7 3 -14.5 6.5t-14.5 7.5q-1 0 -2 1q-12 4 -25 11q-4 2 -5 3q-2 0 -3.5 1t-2.5 2q-1 0 -2 1q-2 0 -3.5 1t-2.5 2q-1 0 -2 1q-2 0 -4 1t-3 2v0v0q3 -1 -7 4q-1 0 -2 0.5l-1 0.5q-4 2 -5 3t-3 1q-4 2 -6 4h-1v0q3 -1 -7 4q-1 0 -2 0.5t-1 1.5
q-3 0 -5 2l-4 2q-7 3 -14.5 7.5t-13.5 8.5q-1 0 -1.5 0.5l-0.5 0.5q-2 0 -3 1l-2 2q-2 2 -4 2q-2 2 -6 4q-1 0 -1.5 0.5l-0.5 0.5l-4 2t-3 3h-0.5h-0.5q-2 0 -3.5 1.5l-2.5 2.5l-4 2q-1 1 -5 3q-2 2 -4 3q-1 0 -2.5 1t-1.5 2l-4 2q-4 2 -5 3l-2 2q-12 7 -23.5 15t-23.5 17
q0 2 -2 2q-2 1 -3.5 2t-2.5 3q-1 0 -2 0.5l-1 0.5q-2 1 -3 2t-2 3q-1 0 -2 0.5t-1 1.5q-2 1 -3.5 2t-2.5 3q-1 0 -2 0.5t-1 1.5q-2 1 -5 4q-1 0 -2.5 1t-2.5 3q-1 0 -2.5 1t-1.5 2q-1 0 -2 0.5t-1 1.5q-9 7 -18.5 15t-18.5 17l-2 2q-2 1 -3.5 2.5t-2.5 3.5l-1 0.5l-1 0.5
q-1 1 -3 2.5t-2 3.5q-2 1 -4 3q-1 1 -2.5 2t-1.5 3q-2 1 -4 3q-1 0 -2.5 1.5t-2.5 3.5q-1 0 -2 1t-1 2q-2 1 -3.5 2.5t-2.5 3.5q-19 -19 -45 -40q-166 -134 -355.5 -214.5t-315.5 -104.5q-39 -8 -39 9q-2 13 45 30q99 36 229.5 99t246.5 150q93 69 166 149h-0.5h-0.5
q-1 0 -2 1.5t-1 2.5q-1 0 -1.5 1t-0.5 2q-1 0 -2 1t-1 2q-1 0 -1.5 1t-0.5 2q-1 2 -3 4q-1 0 -1.5 1t-0.5 2q-1 0 -2 1.5t-1 2.5q-2 2 -3 4l-0.5 0.5l-0.5 0.5q-1 2 -4 5q0 1 -2 3q-5 5 -3 4q0 1 -2 3q-1 0 -1.5 1t-0.5 2l-2 2t-1 3l-1 0.5t-1 1.5q-2 2 -2 4q-2 2 -3 4
q-2 2 -2 4q-2 1 -3 2.5t-2 3.5v0v0q-2 4 -3 5q-2 2 -2 4q-3 4 -9 14l-2 2q-2 4 -3 5q2 -5 -7 13q-2 2 -2 3q-1 2 -3 4l-0.5 1t-0.5 2q-2 4 -3 5l-2 4q-1 0 -2 1.5t-1 2.5l-0.5 1t-0.5 2q-1 2 -3 4q-1 1 -2 3t-1 4h-0.5t-0.5 1q1 -1 -2 5q-1 2 -3 4q0 1 -0.5 2t-0.5 2l-2 2
t-1 3q-1 1 -1 3l-2 2t-1 3q-1 1 -2 2.5t-1 3.5l-0.5 0.5t-0.5 1.5q-2 2 -2 5q-1 0 -2 1.5t-1 2.5q0 3 -2 5q-1 0 -1.5 1t-0.5 2q-1 2 -2 3.5t-1 4.5l-0.5 0.5l-0.5 0.5q-2 6 -8 18q-2 3 -3.5 7t-2.5 8q-1 0 -1.5 1t-0.5 2l-0.5 1.5t-0.5 3.5q-1 1 -2 2.5t-1 3.5v0v0
q-1 2 -2.5 4t-1.5 5q0 2 -1 2q-3 9 -2 7q-1 0 -1.5 1t-0.5 2q-1 1 -1.5 3t-0.5 4q-1 0 -1 1v1q-2 6 -3 8q0 1 -1 1q-2 6 -3 8q0 2 -1 3q-6 18 -14 40v0v0q-11 33 -13 41q0 1 -2 7l-0.5 1.5t-0.5 3.5q-1 1 -1 4q-2 4 -2 7q-1 0 -1.5 1.5t-0.5 2.5t-0.5 3t-0.5 4q-1 1 -1.5 2
t-0.5 3l-0.5 1.5t-0.5 3.5q-1 1 -1.5 2.5t-0.5 3.5q0 1 -0.5 2.5t-0.5 3.5q1 -1 -2 5q0 1 -0.5 2t-0.5 3q0 1 -0.5 2.5t-0.5 3.5q-1 1 -1.5 2.5t-0.5 3.5q-1 2 -1 6q-1 0 -1.5 1.5t-0.5 2.5t-0.5 2.5t-0.5 3.5q-3 9 -2 7q0 3 -1 5q0 4 -1 5q0 2 -0.5 3.5t-0.5 3.5
q-1 1 -1.5 2.5t-0.5 3.5q0 4 -1 5q0 1 -0.5 2.5t-0.5 3.5q0 1 -0.5 2.5t-0.5 3.5q-1 1 -1.5 3t-0.5 4v0v1h-102q-66 -173 -144 -321v0v0l-5.5 -11t-5.5 -10v-0.5v-0.5q-50 -91 -91 -159q-1 -1 -1 -2q-7 -9 -11 -17l-2 -2q-3 -5 -5.5 -9t-4.5 -8q-2 -2 -3 -4q-3 -4 -5 -8
t-4 -7q-2 -2 -3 -4q-18 -28 -56 -82q1 3 -4 -7q1 1 -8 -11q-1 -1 -5 -7q-8 -11 -10 -14l-2 -2l-1 -1q-3 -3 -5 -6.5t-4 -6.5q-1 -2 -4 -5q-3 -5 -9 -13q-2 -2 -3 -3.5t-2 -2.5q-2 -3 -4 -5.5t-3 -4.5q-3 -3 -7 -9q-3 -3 -7 -9q-3 -3 -4.5 -5.5t-3.5 -4.5q1 2 -5 -7
q-12 -15 -13 -16l-0.5 -0.5l-0.5 -0.5q-4 -6 -14 -18l-0.5 -1l-0.5 -1q-3 -3 -5.5 -6.5t-5.5 -6.5q-2 -2 -8 -10q-2 -2 -3.5 -4t-2.5 -3q-2 -3 -4 -5t-3 -4q-2 -2 -3.5 -4t-3.5 -4t-3.5 -4t-2.5 -3q-3 -3 -5 -5.5t-4 -5.5l-5 -5q1 2 -7 -10l-7 -7q-3 -3 -5 -5.5t-4 -5.5
l-2.5 -2.5l-1.5 -1.5q-3 -4 -6 -7.5t-6 -6.5l-1 -1l-1 -1q-4 -4 -7.5 -8.5t-6.5 -7.5q-54 -60 -61 -40.5t30 67.5q8 12 13 18q-1 -2 5 7q2 3 8 11q1 1 2 3t3 4t3.5 4.5t4.5 5.5q4 6 6 10q1 1 10 13q2 2 2 3q5 6 13 18q4 6 5 7q4 6 8 13q1 1 2.5 3t3.5 4q1 2 3 4.5t4 5.5
q1 2 2.5 4t3.5 5q6 10 10 15q0 1 2 3q3 4 6 9t7 11q-1 -2 5 7q1 3 3 5.5t4 5.5q1 2 2.5 4t3.5 5q1 3 3 5.5t4 5.5q1 2 2.5 4t3.5 5q2 5 7 11q0 1 5 8q2 4 6 10q8 14 13 21l2 4t3 5q1 1 2 3t3 4q-2 -5 7 13q1 2 2 3.5l3 4.5q5 6 8 14q2 2 4 7q2 3 3.5 6t4.5 6q0 2 5 9
q3 5 5.5 9.5t5.5 10.5q4 6 5 10q4 6 6 10q1 3 3 6l4 6l2 4t3 5q1 3 2.5 5.5t3.5 5.5q1 5 5 10q6 12 12.5 24.5t13.5 24.5l0.5 1t0.5 2l8 16q0 1 1 2t2 3q1 3 3 7l4 8q1 1 4 7q1 3 3 7l4 8q0 1 1 2.5t2 3.5q6 12 11.5 24t11.5 25q0 2 1.5 4t2.5 5t2.5 6.5t3.5 7.5l4 8
q4 10 7 15q1 2 3 8q13 29 23 53q3 6 2 5q1 3 2.5 7t3.5 8q2 3 4 9q1 3 2.5 7t3.5 8q0 2 1 3.5t2 4.5l2.5 7.5t3.5 8.5t2 5q8 20 22 58q0 1 0.5 2.5t1.5 3.5q1 4 2.5 8t3.5 9q0 2 1 3.5t2 4.5q1 4 2.5 8t3.5 9q-1 -2 2 7q5 14 9.5 29t10.5 30q0 2 2 6q1 4 2 8.5t3 9.5
q2 4 2 7q1 4 2.5 8.5t3.5 9.5q0 1 0.5 3t1.5 4q8 26 19 67q1 0 1 1q0 3 5 19q0 3 2 7l2 10t3 10q1 2 1 5q3 12 6 21q0 2 1 3q3 17 7.5 35t8.5 36q1 1 1 4q1 4 2 9t3 11q4 12 2 8q1 12 4 20q0 1 0.5 3t0.5 5q1 4 2 9t3 11q-136 -1 -237.5 -1h-136.5q-62 0 -91 -5l-35 -7
q-21 -3 -30 12q-6 8 -11.5 16t-11.5 17q-11 16 7 16h555v0v0q6 34 16 91q-2 -6 2 10q1 6 3 20q0 3 0.5 7t1.5 9q2 8 2 13q1 16 4 25q0 5 1 9q0 6 1 12l2 12q1 3 1 8q0 7 1.5 14t2.5 15q0 4 1 5q1 11 3 31v1v2q0 8 1.5 16t2.5 17v1v2q0 8 1 16.5t2 17.5q2 26 19 27.5t27 -3.5
q9 -5 65.5 -32t67.5 -33q9 -7 18 -21.5t-12 -25.5q-26 -12 -41.5 -31t-24.5 -71q-4 -22 -6 -32v-2v-1q-4 -20 -6 -29q0 -4 -1 -6q-1 -9 -5 -27q0 -2 -0.5 -3.5t-0.5 -2.5q-4 -15 -5 -25q-2 -6 -2 -9q-2 -7 -3.5 -13.5t-2.5 -12.5v-0.5v-0.5h690q26 0 46 18q9 8 27 26
q41 40 86 2q12 -10 28.5 -24.5t28.5 -24.5q20 -18 25.5 -30.5t-33.5 -12.5q-45 0 -333 -1t-576 -1v0v0q-40 -173 -100 -340zM1391 1104h-461q0 -2 0.5 -3l0.5 -1q0 -1 1 -2q1 -5 2.5 -10t3.5 -9l0.5 -0.5l0.5 -0.5q14 -40 22 -59v0v0q3 -10 7 -19.5t8 -18.5v-1t1 -1
q4 -12 7 -17v-0.5v-0.5q3 -5 7 -17q0 -1 0.5 -2t1.5 -1q4 -10 7 -16v-0.5v-0.5q3 -7 7 -16q0 -1 0.5 -2t1.5 -1q2 -4 3.5 -8.5t4.5 -7.5v0v0q1 -4 3 -8.5t4 -7.5q0 -1 0.5 -2t1.5 -1q1 -4 3 -8t4 -7q0 -1 0.5 -2t1.5 -1q1 -3 3 -6.5t4 -6.5q0 -1 0.5 -2l0.5 -1q7 -12 8 -14
q0 -1 0.5 -1.5l0.5 -0.5q-2 2 8 -14q0 -1 0.5 -1.5l0.5 -0.5q6 -10 9 -14q0 -1 2 -3q5 -11 7 -13q0 -1 0.5 -2t1.5 -1q2 -3 3.5 -6t4.5 -6q0 -1 2 -3q1 -3 3 -5.5t4 -5.5q0 -2 1.5 -3.5l2.5 -2.5q4 -6 6 -8q-1 3 4 -7q1 -1 7 -10q3 -3 4 -5q1 -3 3 -5l4 -4q1 -2 3 -4
q8 -12 7 -10q4 -4 5 -6q2 -3 6 -7q1 -2 2.5 -4t3.5 -3q4 -4 5 -7q1 -2 2.5 -3.5t3.5 -2.5q2 -3 7 -8q1 -2 2 -3.5t3 -2.5q1 -2 2.5 -3.5t3.5 -2.5q24 32 35 49q41 60 72 132t53 143q3 10 20 58t25 89zM421 548q3 5 5.5 9.5t5.5 10.5q-3 -6 -5.5 -10.5t-5.5 -9.5z" />
    <glyph glyph-name="t" unicode="t" 
d="M201 819h672q26 118 32 261q-129 -12 -273 -21.5t-291 -15.5q-33 -1 -48 14.5t48 23.5q318 39 621 83t481 101q48 15 69 -13q12 -17 34.5 -54.5l31.5 -52.5q21 -43 -20 -35q-40 8 -75.5 9.5t-62.5 1.5q-65 -3 -162 -11.5t-217 -18.5q-8 -69 -18.5 -137.5t-25.5 -134.5
h577q26 0 46 17l13 13l14 14q41 41 86 2q12 -10 28 -24.5t29 -24.5q20 -18 25.5 -30.5t-33.5 -12.5q-37 0 -248 -0.5t-457 -0.5q127 -232 344.5 -336.5t432.5 -134.5q61 -9 41.5 -17.5t-45.5 -10.5q-81 -6 -137 -66q-22 -23 -54 -12q-281 87 -438 261t-196 315h-20.5h-19.5
q-50 -180 -138 -291q-93 -119 -248 -206.5t-392 -144.5q-36 -9 -39 3t39 28q268 99 429 232t226 379q-174 -1 -310.5 -1h-179.5q-55 0 -91 -5l-35 -7q-21 -4 -30 12q-11 15 -22 33q-11 16 7 16zM689 1291q-36 22 -29.5 74t-26.5 121q-7 13 -21.5 44t-36.5 61q-10 10 -11 20
h-25.5h-24.5q-66 -96 -150 -192t-194 -183q-21 -17 -33 -8.5t13 37.5q190 222 244 335t127 297q9 24 17.5 23.5t22.5 -5.5q26 -10 60.5 -28.5t49.5 -24.5q35 -18 -2 -40q-37 -23 -64 -68q-27 -47 -60 -96h305q25 0 46 18q9 8 27 26q41 40 86 2q12 -10 28 -24.5t28 -24.5
q50 -43 -8 -43q-25 0 -148.5 -0.5t-294.5 -0.5q19 -13 55.5 -40.5t71.5 -62.5q40 -42 51 -94.5t-32 -94.5q-43 -44 -71 -28zM1479 1297q-39 15 -37.5 70.5t-37.5 121.5q-9 13 -29.5 41.5t-44.5 56.5q-13 14 -13 24q-43 0 -64 -1q-63 -72 -137.5 -142.5t-184.5 -145.5
q-21 -15 -32 -5t17 37q191 178 248.5 287.5t137.5 259.5q15 28 46 11q24 -14 56 -35.5t45 -30.5q34 -24 -8 -40q-25 -10 -43.5 -27.5t-29.5 -29.5q-20 -24 -38.5 -47t-36.5 -44h379q26 0 46 17l13 13t14 13q40 40 86 3q12 -11 28 -25t28 -24q50 -43 -8 -43
q-30 0 -175.5 -0.5t-335.5 -0.5q21 -12 59 -36.5t76 -56.5q42 -38 65 -91t-21 -103q-35 -41 -68 -27z" />
    <glyph glyph-name="y" unicode="y" 
d="M352 659q5 24 20.5 37.5t21.5 -41.5q6 -53 8.5 -178.5t-79.5 -186.5q-39 -29 -89.5 -27t-60.5 14q-31 35 6 72q20 21 60 61.5t70 109.5q27 62 43 139zM618 1047q-32 -13 -37 -4.5t28 28.5q142 84 221.5 179.5t107.5 260.5l-170 -1q-56 0 -82 -5l-32 -6q-19 -3 -28 11
q-6 10 -20 30q-9 15 7 15h332q8 64 10 154q1 36 29 28q42 -10 98 -34q30 -14 5 -31t-26 -40q-3 -21 -5.5 -40t-4.5 -37h168q23 0 41 16q4 3 25 24q37 35 78 2q10 -10 25 -23t26 -22q44 -39 -7 -39l-364 -2q-12 -71 -33 -128q41 -9 123 -35.5t157 -66.5q30 -17 58 -35.5
t44 -39.5q18 -26 16 -63t-20 -55q-25 -25 -51 3q-13 12 -27.5 37.5t-56.5 61.5q-47 39 -116 88.5t-137 79.5q-3 -6 -6 -11.5t-6 -11.5q-54 -102 -152 -170.5t-218 -117.5zM554 1016h952v751q-209 0 -463 -0.5t-471 -0.5q-16 -25 -16 -55zM1506 969q-220 -1 -479 -1.5
t-473 -0.5v-38q0 -36 -15 -48q-31 -22 -68 -30q-31 -7 -28 28l1 961q0 28 28 14q15 -8 41 -18.5t53 -21.5h923q31 31 42 44q15 17 40 2q42 -27 87 -63q18 -15 1 -31q-7 -6 -28 -22q-14 -14 -14 -40l1 -788q0 -29 -13 -35q-24 -13 -72 -24q-27 -6 -27 16v96zM734 409
q0 -90 17.5 -107.5t97.5 -17.5l386 1q71 0 102.5 35t45.5 86q6 21 18.5 76t13.5 70q3 40 19 46.5t16 -53.5q0 -110 21 -150.5t36 -55.5q35 -38 21 -60q-38 -62 -88.5 -80t-149.5 -18l-466 -1q-129 -1 -167 37.5t-36 192.5l3 320q0 40 31 32q24 -6 60.5 -24t51.5 -24
q30 -16 6 -40q-24 -22 -31.5 -30.5t-7.5 -47.5v-187zM961 859q30 -21 79 -64t82 -91q47 -70 27 -130q-13 -41 -60.5 -69t-60.5 35q-9 38 -16.5 93t-26.5 96q-12 24 -19 48.5t-22 46.5q-17 23 -12 36t29 -1zM1597 736q138 -83 220 -172.5t67 -168.5q-15 -75 -57 -86.5
t-64 55.5q-12 33 -52.5 127t-136.5 215q-24 30 -9 34.5t32 -4.5z" />
    <glyph glyph-name="u" unicode="u" 
d="M247 1682h719l-1 170q0 40 34 25q48 -22 70.5 -35t39.5 -22q26 -15 1 -40t-29 -40.5t-4 -48.5v-9h518q25 0 46 18q9 8 27 26q41 40 86 3q12 -11 28 -25.5t29 -24.5q20 -18 25.5 -30t-33.5 -12t-257.5 -1t-467.5 -1v-112h350q34 38 43 46q17 17 41 2q25 -18 49.5 -34
t39.5 -30q19 -18 2 -34q-21 -18 -31.5 -30.5t-10.5 -41.5l-1 -306q0 -29 -14 -37q-31 -21 -67 -32q-27 -8 -27 15v19q-83 0 -178.5 -0.5t-194.5 -0.5l1 -180q125 3 230.5 8.5t163.5 7.5q-51 41 -112 74q-21 10 -22 21t29 5q21 -6 120 -41t182 -91q62 -43 87 -85
q15 -27 11.5 -82.5t-51.5 -50.5q-29 2 -60 48.5t-67 88.5q-36 40 -75 77q-92 -7 -265 -21t-356 -29.5t-339.5 -29.5t-214.5 -20q-37 -5 -54 30q-9 15 -18.5 33.5t-11.5 24.5q-3 7 -5.5 16t24.5 9q42 0 245.5 -0.5t430.5 3.5q3 0 7 0.5t8 0.5v183q-95 -1 -184.5 -1h-166.5v-5
q0 -37 -15 -47q-31 -22 -68 -30q-28 -7 -28 28l1 560q0 30 26 14l49 -24.5t62 -30.5h323v112q-192 -1 -346.5 -1.5t-201.5 -0.5q-61 0 -90 -5l-35 -7q-21 -3 -31 12q-18 26 -22 33q-11 16 7 16zM1078 1476v-174h374v174h-180h-194zM1078 1255l1 -149h373v150q-84 -1 -180 -1
h-194zM967 1106l-1 148q-96 0 -185 -0.5t-164 -0.5v-147h350zM966 1302v173q-90 0 -175 -0.5t-157 -0.5q-16 -24 -16 -54l-1 -118h349zM746 376q-1 -90 18 -102.5t99 -11.5l332 1q71 0 102.5 31t48.5 92q6 20 14 51.5t9 46.5q3 40 19 46.5t16 -53.5q0 -110 13 -127.5
t28 -32.5q13 -15 23 -28t-2 -33q-38 -62 -77 -74.5t-138 -12.5l-413 -2q-129 0 -167 32t-36 186l3 246q0 41 31 33q24 -7 57 -22t48 -22q31 -15 5 -39q-23 -23 -28 -31t-5 -47v-127zM950 737q51 -36 119.5 -97.5t53.5 -126.5q-7 -27 -35.5 -55t-57.5 -14q-22 9 -25 56
t-23 104q-22 61 -48 98q-17 23 -12 36.5t28 -1.5zM1536 641q145 -78 205.5 -147.5t59.5 -130.5q-3 -77 -52 -86t-71 58q-12 33 -40 96t-124 183q-24 30 -6 31t28 -4zM389 562q4 24 21.5 38.5t20.5 -41.5q1 -42 1 -137.5t-66 -150.5q-37 -31 -85.5 -29t-58.5 14q-27 32 5 64
q18 18 45 41.5t62 73.5q42 60 55 127z" />
    <glyph glyph-name="o" unicode="o" 
d="M764 1537q72 -48 112 -86q15 -14 -2 -31q-7 -7 -21 -19t-23 -21q-12 -13 -15 -44q-17 -189 -44 -352t-99 -289q-3 -5 -5.5 -10t-5.5 -9q54 -32 110.5 -67.5t83.5 -75.5q35 -54 26.5 -98.5t-17.5 -59.5q-29 -43 -59 -16q-32 26 -51 73t-85 111q-29 26 -62 52
q-84 -114 -203 -217.5t-263 -196.5q-16 -11 -30 -3t9 29q123 111 227.5 212t179.5 233q-45 30 -102.5 65.5t-127.5 80.5q-33 17 -23 53q14 62 47.5 217.5t63.5 338.5q-50 -2 -69 -3q-55 -2 -90 -9l-35 -7q-21 -5 -31 10q-7 11 -23 33q-12 14 6 16l250 9q18 117 31.5 230.5
t16.5 207.5q1 38 37 28q76 -25 135 -53q34 -17 1 -43q-13 -12 -27 -27q-15 -15 -17 -34q-4 -34 -20 -116.5t-38 -187.5l154 6q18 21 31 36.5t23 25.5q20 22 44 8zM1418 1426q73 84 128.5 154t97.5 145q-180 -1 -275 -2t-167 -1q-62 0 -91 -5l-35 -7q-21 -3 -30 12
q-3 4 -22 34q-11 16 6 16h605q46 38 60 52q21 21 46 2q19 -17 55 -49.5t50 -47.5q20 -23 -12 -39q-32 -17 -67.5 -35t-89.5 -57q-63 -44 -122.5 -96t-104.5 -94q8 -4 33 -19q29 -20 2 -39q-21 -14 -26 -72q-2 -28 -2 -64v-154h242q25 0 46 18q9 8 27 26q40 40 86 3
q12 -11 28 -25t28 -25q51 -42 -8 -42q-39 0 -169.5 -1t-280.5 -1l-1 -603q-1 -126 -14.5 -178t-112.5 -88q-58 -22 -75.5 -21.5t-20.5 30.5q-6 52 -70.5 100.5t-122.5 69.5q-37 12 -34.5 23t39.5 5q38 -7 101.5 -20t106.5 -14q45 -3 60.5 17.5t15.5 85.5v593
q-96 -1 -175 -1.5t-119 -0.5q-61 0 -90 -5l-36 -6q-21 -4 -30 11q-6 8 -11.5 16t-10.5 17q-11 16 7 16h465v369q0 42 37 24q12 -6 25.5 -13.5t27.5 -13.5zM565 727q57 124 86 290.5t26 401.5q-48 -3 -92 -4.5t-83 -2.5q-33 -154 -70 -317t-61 -266q-4 -16 11 -23
q38 -18 83.5 -35.5t99.5 -43.5z" />
    <glyph glyph-name="p" unicode="p" 
d="M321 1129h625v342q-201 -1 -361.5 -1.5t-207.5 -0.5q-62 0 -91 -5l-35 -6q-21 -4 -30 11q-6 8 -11.5 16.5t-10.5 17.5q-11 16 7 16h740l-1 358q0 37 36 23q52 -21 82.5 -36t45.5 -22q32 -16 4 -44q-27 -27 -32.5 -48t-5.5 -57v-174h539q26 0 46 17q7 6 13.5 13t13.5 13
q41 40 86 3q12 -11 28.5 -25t28.5 -24q20 -18 25.5 -30.5t-33.5 -12.5q-38 0 -263 -1t-484 -1l1 -342h411q25 0 45 17q7 6 13.5 13t14.5 14q40 40 85 2q12 -10 28.5 -24.5t28.5 -24.5q50 -43 -8 -43q-36 0 -207 -0.5t-373 -1.5t-383.5 -1h-238.5q-61 0 -90 -5l-35 -7
q-22 -3 -31 12q-14 22 -22 33q-11 16 7 16zM672 877h715q15 15 32.5 33t26.5 27q26 29 51 10q15 -13 52.5 -46.5t44.5 -41.5q18 -19 3 -35q-10 -10 -20 -18.5t-15 -13.5q-17 -20 -17 -33l1 -496q0 -34 -19 -48q-34 -28 -88 -43q-26 -8 -26 29v135h-772l-1 -106
q0 -31 -9 -39.5t-16 -13.5q-8 -6 -29.5 -17t-41.5 -15q-28 -8 -28 28l1 766q0 27 26 14q21 -12 58.5 -34.5t70.5 -41.5zM641 386h772v439h-753q-18 -23 -18 -61z" />
    <glyph glyph-name="a" unicode="a" 
d="M879 1733h831q26 0 45 17q7 6 13.5 13t14.5 14q40 40 85 2q12 -11 28.5 -25t28.5 -24q20 -18 25.5 -30.5t-33.5 -12.5q-36 0 -154.5 -0.5t-257.5 -1.5t-268.5 -1.5t-186.5 -0.5q-61 0 -90 -5l-35 -6q-21 -4 -31 11q-12 18 -22 34q-11 16 7 16zM113 712q213 243 326.5 421
t170.5 313q-96 0 -175 -0.5t-119 -0.5q-61 0 -90 -5l-36 -7q-21 -3 -30 12q-14 22 -22 33q-11 16 7 16h472q11 12 25.5 28.5t19.5 22.5q22 26 41 15q15 -9 46.5 -34.5t40.5 -31.5q9 -8 18.5 -21t-11.5 -22q-58 -31 -86 -75q-55 -90 -85 -139t-66 -97v-10q36 -6 84 -23
t90 -43q84 -54 87 -110q2 -69 -30.5 -85t-62.5 2t-53.5 86t-114.5 123v-873q0 -34 -24 -49q-37 -23 -66 -28q-26 -7 -26 28l1 836q-52 -61 -128.5 -141t-181.5 -163q-44 -35 -38.5 -13t16.5 35zM417 1889q-15 19 -9.5 29t59.5 -26q40 -27 98.5 -78.5t66.5 -117.5
q5 -52 -22 -87.5t-49 -36.5q-43 -4 -49 42q-4 25 -8 63.5t-23 95.5q-22 60 -64 116zM1170 1235h431l-1 247h-400q-30 -25 -30 -64v-183zM1601 1197h-431v-17q0 -30 -7.5 -37t-16.5 -12q-23 -13 -58 -21q-27 -6 -27 29l2 408q0 32 30 19q21 -9 49.5 -22.5t52.5 -23.5h381
q32 32 47 44q18 18 36 8q17 -11 48 -35.5t43 -34.5q13 -13 -2 -25q-8 -7 -16.5 -13.5l-8.5 -6.5q-11 -16 -11 -42l-2 -230q0 -27 -13 -36q-28 -17 -70 -30q-26 -9 -26 15v63zM1432 936v-253h301v253h-301zM1432 628v-256h300l1 256h-301zM1326 372v256h-283v-256h283z
M1326 683v253h-254q-30 -25 -30 -63l1 -190h283zM1732 317h-689v-104q0 -31 -7.5 -38t-16.5 -12q-28 -13 -63 -20q-27 -7 -27 28l2 839q0 35 30 19q45 -22 77 -38h675q34 36 43 47q14 17 30 9q13 -8 51 -37.5t51 -40.5q13 -13 -1 -26q-9 -7 -17 -13.5l-8 -6.5
q-11 -13 -11 -42l-2 -645q0 -27 -14 -36q-33 -21 -77 -35q-26 -9 -26 15v137z" />
    <glyph glyph-name="s" unicode="s" 
d="M173 1093h600q41 105 71.5 192.5t35.5 117.5q11 78 49 58q25 -14 64.5 -33t47.5 -24q9 -6 17 -19t-13 -24q-37 -20 -77 -113q-15 -33 -30.5 -72.5t-32.5 -82.5h742q27 0 45 18q10 8 28 26q41 41 86 2q11 -10 27.5 -24.5t28.5 -24.5q21 -18 26 -30.5t-34 -12.5h-134.5
h-265.5q-42 -131 -98 -254q-58 -133 -121 -216q145 -46 272.5 -96.5t185.5 -92.5q45 -34 62 -74t17 -51q0 -12 -2.5 -49.5t-13.5 -54.5q-12 -18 -36 -10t-36 24q-49 45 -122.5 96.5t-162.5 111.5q-91 60 -230 120q-81 -80 -207 -149q-186 -105 -386 -157t-329 -58
q-40 -3 -38 14q1 15 50 26q104 22 241 65t264 113q85 47 155.5 93.5t127.5 100.5q-165 59 -346 103q-24 6 -54.5 10.5t-57.5 12.5q27 45 73.5 150t91.5 220q-150 -1 -262 -1h-148q-61 0 -90 -5l-35 -7q-21 -3 -31 12q-14 22 -22 33q-11 16 7 16zM1507 1396q30 45 55 95
t51 98h-1140q2 -20 2 -31q0 -50 -8 -100t-26 -74q-53 -70 -97 -72q-38 -6 -58 20q-14 18 -14 47.5t15 42.5q37 36 73 85.5t50 104.5q7 30 8 65.5t1 42.5q0 18 13.5 12.5t16.5 -15.5q2 -9 8 -32.5t11 -55.5h557q1 94 -58 182q-38 57 -64 74q-16 12 -8.5 20.5t22.5 5.5
q16 -6 58 -23.5t90 -43.5q95 -53 92 -115q-2 -28 -19.5 -55.5t-33.5 -44.5h531q18 33 38 61q12 17 21.5 29t30.5 -3q20 -16 64 -59t53 -49q9 -7 8.5 -18.5t-19.5 -11.5q-63 -4 -128.5 -58t-164.5 -130q-24 -20 -35.5 -18.5t4.5 24.5zM1306 1046q-103 0 -210.5 -0.5
t-209.5 -0.5q-36 -90 -73.5 -183t-73.5 -165q135 -17 368 -83q39 48 69 102.5t57 111.5q23 48 39 103.5t34 114.5z" />
    <glyph glyph-name="d" unicode="d" 
d="M320 1818h1158q24 0 45 18q5 4 27 26q41 40 86 2q12 -10 28.5 -24.5t28.5 -24.5q20 -18 25.5 -30t-33.5 -12q-38 0 -220 -1t-391 -1q-4 -20 -4 -36q0 -33 0.5 -228t0.5 -435h570q25 0 45 17l27 27q41 39 86 2q12 -11 28.5 -25t28.5 -24q20 -18 25.5 -30.5t-33.5 -12.5
q-38 0 -272.5 -1t-504.5 -1q0 -261 -0.5 -495.5t-0.5 -292.5q0 -32 -30 -46q-29 -17 -64 -24q-17 -4 -23.5 -1t-6.5 33q0 86 0.5 321.5t0.5 504.5q-210 -1 -379.5 -1h-216.5q-25 -1 -47.5 -2t-43.5 -4l-35 -6q-21 -4 -30 11q-6 8 -11.5 16.5t-10.5 17.5q-11 16 7 16h767
q0 201 0.5 388t0.5 310q-157 0 -284 -0.5t-173 -0.5q-61 0 -90 -5l-35 -7q-21 -3 -31 12q-14 22 -22 33q-11 16 7 16zM473 1646q86 -66 164.5 -145.5t108.5 -173.5q18 -57 -3.5 -98.5t-37.5 -55.5q-12 -9 -32 -19t-34 -1q-42 24 -25 68t-29 182q-41 116 -130 226
q-18 21 -6.5 24t24.5 -7zM1430 1645q11 40 39 29q19 -9 59 -39t51 -36q32 -21 -8 -32q-34 -13 -47 -35q-18 -32 -123 -156t-162 -191q-29 -35 -30.5 -20.5t4.5 25.5q43 77 124 244t93 211z" />
    <glyph glyph-name="f" unicode="f" 
d="M226 1358h399v192.5v166.5q-108 -12 -207.5 -20.5t-165.5 -10.5q-30 -1 -22.5 9.5t19.5 13.5q255 42 397.5 84.5t280.5 93.5q40 16 53 6q11 -10 46 -57t40 -63q5 -22 -27 -20q-20 0 -43.5 5t-91.5 -5q-36 -6 -73 -10.5t-76 -9.5v-139.5v-235.5h77q24 0 45 18q5 4 27 26
q41 40 86 3q12 -11 28.5 -25.5t28.5 -24.5q20 -18 25.5 -30t-33.5 -12q-35 0 -113.5 -1t-170.5 -1v-103.5v-106.5q66 -19 175 -76q62 -33 99 -76t9 -109q-20 -47 -60 -45q-43 0 -58 42q-13 39 -29.5 78.5t-55.5 80.5q-18 17 -40.5 33t-39.5 28q-1 -264 -1 -503v-299
q0 -37 -30 -57q-10 -7 -30 -23t-41 -23q-30 -10 -30 32q0 91 0.5 349t0.5 546q-62 -118 -155 -238.5t-251 -267.5q-37 -35 -42 -23.5t22 45.5q36 45 177 255t207 460q-55 0 -103 -0.5t-82 -0.5q-61 0 -90 -5l-35 -7q-22 -3 -31 12q-14 22 -22 33q-11 16 7 16zM1298 706h389
q0 214 0.5 497.5t0.5 360.5h-377q-12 -23 -13 -53q-1 -8 -1 -94.5v-208t0.5 -258t0.5 -244.5zM1687 659h-389q-1 -52 -1.5 -89.5t-0.5 -55.5q-1 -30 -7 -36.5t-13 -10.5q-26 -18 -76 -30q-28 -7 -28 28v188v399.5v401.5t1 194q0 24 22 17q40 -17 67 -31q34 -20 38 -22h348
q12 10 34.5 28.5t31.5 25.5q22 18 43 3q14 -12 52 -38.5t47 -34.5q24 -23 11 -36q-10 -10 -20 -18.5t-14 -13.5q-17 -17 -17 -33t-0.5 -164t-1 -321.5t-0.5 -319.5v-157q0 -31 -12 -43q-9 -8 -46 -22.5t-47 -15.5q-25 -4 -23 30q0 6 0.5 54t0.5 123z" />
    <glyph glyph-name="g" unicode="g" 
d="M1891 442q55 -18 31.5 -28t-41.5 -12q-40 -6 -66 -14.5t-59 -42.5q-26 -27 -55 -8q-205 122 -363 362t-237 612q-1 -59 -0.5 -164.5t0.5 -123.5q-2 -181 -3.5 -298t1.5 -322q0 -44 0.5 -92t-26.5 -85q-28 -36 -80 -65q-60 -33 -77.5 -31t-18.5 35q-3 36 -62.5 76
t-122.5 54q-51 10 -56 26t47 9q22 -3 53 -8.5t64 -8.5q48 -6 100.5 -2.5t54.5 73.5l-2 1035q-88 0 -153.5 -0.5t-95.5 -0.5q-61 0 -90 -5l-36 -6q-21 -4 -30 11q-6 9 -11.5 17t-10.5 17q-11 16 7 16h398q15 20 28 36.5t26 34.5q14 19 34 10q15 -9 59 -44.5t52 -41.5
q27 -23 4 -45q-7 -7 -14.5 -13.5t-13.5 -12.5q37 -199 121 -369q78 67 179 220t132 202q22 36 39 22q9 -9 59 -50t58 -50q25 -31 -8 -38q-29 -6 -47 -9.5t-63 -43.5q-87 -80 -187.5 -168t-142.5 -123q104 -197 263.5 -337.5t361.5 -205.5zM854 1917q15 -6 69.5 -20.5
t104.5 -41.5q69 -37 109.5 -88.5t-12.5 -126.5q-37 -53 -71 -11q-15 17 -20.5 39.5t-29.5 58.5q-30 45 -82 96q-22 20 -46.5 38.5t-35.5 27.5q-16 12 -9 22t23 6zM636 1135q44 48 59 68q17 21 36 11q15 -9 67.5 -55l52.5 -46l6 -9t-6 -18q-27 -21 -48.5 -30t-33.5 -52
q-81 -293 -226.5 -446.5t-366.5 -321.5q-47 -36 -54.5 -22.5t32.5 49.5q45 42 222.5 223t245.5 436q11 40 18 88.5t9 75.5h-161.5h-99.5q-24 -1 -46.5 -2t-43.5 -4l-35 -6q-21 -4 -31 11q-6 8 -11.5 16.5t-10.5 17.5q-11 16 7 16h419z" />
    <glyph glyph-name="h" unicode="h" 
d="M775 1325h443v358q-159 -28 -345 -50q-38 -4 -49 11t42 26q141 28 337 80.5t399 151.5q35 17 43.5 10.5t17.5 -15.5q9 -11 46 -55.5t50 -66.5q22 -37 -25 -26q-23 6 -57 11t-67 -1q-45 -10 -108 -23t-141 -28v-383h298q26 0 46 17l13 13l14 14q41 40 86 2
q12 -11 28.5 -25t28.5 -24q20 -18 25.5 -30.5t-33.5 -12.5q-40 0 -190.5 -1t-315.5 -1v-366h165q16 18 29 34t28 31q16 17 44 2q70 -40 123 -82q24 -21 1 -39q-21 -17 -39 -33t-18 -45l-2 -534q0 -27 -13 -36q-12 -7 -44 -18t-46 -15q-27 -8 -27 15v189q-123 -1 -260.5 -1.5
t-242.5 -0.5v-157q0 -37 -16 -48q-12 -9 -43.5 -17t-52.5 -13q-28 -7 -28 28l1 781q0 28 29 14q18 -9 52.5 -24.5t67.5 -30.5h149v366q-90 -1 -162.5 -1h-109.5q-54 0 -90 -5l-36 -7q-21 -3 -30 12q-6 8 -11.5 16t-10.5 17q-11 16 7 16zM1562 427v437q-115 -1 -243.5 -1.5
t-230.5 -0.5q-28 -28 -28 -69l-1 -366h503zM709 1518q24 75 45.5 77.5t-4.5 -81.5q-9 -28 -40.5 -144.5t-68.5 -250t-68.5 -247.5t-39.5 -136q-10 -27 -23.5 -63.5t-13.5 -75.5q0 -30 3 -129t6 -170q0 -17 2.5 -50t1.5 -55q-4 -44 -32 -55q-20 -9 -60 2.5t-56 33.5t-21 67
t1 71q6 24 19 86.5t16 113.5q0 15 -5.5 40t-31.5 43q-59 41 -146 60q-41 7 -38 20q1 10 31 9q44 -2 75 -3.5t68 0.5q18 0 34.5 2.5t36.5 40.5q129 246 197.5 452t111.5 342zM180 1399q62 -17 160 -64q66 -33 106.5 -80t8.5 -113q-22 -45 -60 -43q-32 0 -48 48
q-26 71 -106 151q-57 54 -80 70q-21 13 -12.5 24.5t31.5 6.5zM355 1824q64 -15 162 -59q67 -32 109 -77t12 -113q-20 -45 -59 -45q-33 0 -50 47q-26 69 -110 148q-50 46 -81 68q-21 13 -13.5 24.5t30.5 6.5z" />
    <glyph glyph-name="j" unicode="j" 
d="M177 239h812v235v288q-120 0 -218.5 -0.5t-140.5 -0.5q-61 0 -90 -5l-35 -7q-21 -3 -31 12q-14 22 -22 33q-10 16 7 16h531v253.5v246.5q-123 -1 -242 -1h-219q-4 -9 -8 -17.5t-7 -17.5q-48 -110 -117 -232.5t-160 -224.5q-31 -34 -39.5 -21.5t7.5 40.5
q60 105 109.5 215.5t86.5 206.5q65 171 92 297t31 148q7 36 38 24q12 -6 67.5 -35.5t66.5 -37.5q22 -17 -8 -33q-39 -22 -53 -51q-17 -36 -38 -91.5t-48 -121.5h441v291v184q0 35 7.5 38.5t31.5 -5.5q58 -22 128 -61q22 -15 5 -36q-27 -33 -41 -45.5t-14 -63.5v-101.5
v-200.5h426q25 0 45 18q5 4 27 26q41 40 86 2q12 -10 28.5 -24.5t28.5 -24.5q20 -18 25.5 -30t-33.5 -12q-33 -1 -217.5 -1.5t-415.5 -0.5v-241.5v-258.5h335q26 0 46 18q9 8 27 26q41 41 86 2q12 -10 28 -24.5t28 -24.5q21 -18 26 -30.5t-34 -12.5t-200 -1t-342 -1v-293.5
v-229.5h536q26 0 46 17l13 13l14 14q41 40 86 2q12 -11 28.5 -25t28.5 -24q20 -18 25.5 -30.5t-33.5 -12.5q-36 0 -254 -0.5t-476.5 -1.5t-487 -1h-285.5q-25 -1 -47 -2t-44 -4l-35 -6q-21 -4 -30 11q-6 8 -11.5 16.5t-10.5 17.5q-11 16 7 16z" />
    <glyph glyph-name="k" unicode="k" 
d="M1470 1393q11 12 25.5 27.5t22.5 23.5q24 27 43 13q12 -9 39.5 -32t44.5 -38q20 -20 3 -39q-6 -8 -11.5 -12.5t-9.5 -9.5q-16 -25 -16 -36v-109h65q25 0 45 17l27 27q41 40 86 2q12 -11 28 -25t29 -24q20 -18 25.5 -30.5t-33.5 -12.5h-96.5h-175.5l-2 -219q0 -32 -11 -41
q-9 -8 -40.5 -23.5t-41.5 -16.5q-22 -4 -22 29v48q-62 0 -125.5 -0.5t-125.5 -0.5q21 -85 57.5 -163.5t98.5 -144.5q72 55 138 116.5t91 101.5q23 38 38 20q6 -8 46.5 -46.5t46.5 -47.5q18 -28 -20 -31q-49 -4 -107 -38q-30 -18 -98.5 -57t-96.5 -55q138 -125 377 -176
q57 -13 30.5 -23t-44.5 -11q-78 -8 -114 -62q-23 -34 -53 -14q-180 114 -289 255t-144 376h-15h-14v-549q0 -43 0.5 -91t-26.5 -85q-18 -26 -81 -56q-62 -30 -79.5 -28t-14.5 35q3 48 -52 77t-100 44q-50 15 -57 28t45 6q22 -3 50 -7t60 -7q30 -3 79.5 0t51.5 73
q1 82 2 156.5t2 143.5q-124 -75 -242.5 -155t-216.5 -161q-27 -22 -40 -8l-84 84q-22 21 5 31q158 61 306.5 125t271.5 130v108v105h-174h-108q-24 -1 -46.5 -2t-43.5 -4l-35 -6q-21 -4 -31 11q-20 30 -22 34q-10 16 7 16h452q0 42 -1 85.5t-1 88.5q-120 0 -213.5 -0.5
t-130.5 -0.5q-61 0 -90 -5l-35 -7q-21 -3 -31 12q-14 22 -22 33q-11 16 7 16h515q-2 72 -3 164q-93 -1 -163.5 -1.5t-101.5 -0.5q-61 0 -90 -5l-35 -6q-21 -4 -31 11q-20 30 -22 34q-11 16 7 16h435q0 42 -1 86.5t-1 92.5q0 10 4 20q-150 0 -289 -0.5t-240 -0.5
q-30 -39 -31 -91l-6 -414q-6 -368 -69.5 -543t-240.5 -368q-24 -25 -35 -15.5t7 36.5q160 240 187.5 439.5t29.5 499.5l2 561q0 34 34 22q9 -4 61.5 -35t63.5 -36q2 -3 15 -7h516l-3 6q-11 18 -14.5 46.5t-16.5 67.5q-13 36 -37.5 79.5t-67.5 85.5q-14 12 -2.5 17t24.5 2
q56 -19 139.5 -80t85.5 -130q1 -56 -39 -94h510q25 0 45 17l13 13t14 13q41 40 86 3q12 -11 28 -25t28 -24q50 -43 -8 -43q-36 0 -257.5 -1t-480.5 -1q25 -10 60.5 -25t44.5 -18q43 -21 2 -45q-34 -22 -34 -67v-44h299zM797 633q-14 -11 -40.5 -13t-32.5 43
q-4 23 -16.5 69.5t-62.5 92.5q-13 12 -12 24t27 2q25 -11 81.5 -42.5t77.5 -61.5q19 -30 8 -64.5t-30 -49.5zM1171 959h323l1 175q-78 0 -160.5 -0.5t-163.5 -0.5v-174zM1171 1181h325v165q-81 0 -164 -0.5t-161 -0.5v-164z" />
    <glyph glyph-name="l" unicode="l" 
d="M806 472q0 -70 20 -96t95 -29q44 -2 185.5 -2.5t162.5 2.5q69 8 90 54t30 107q5 40 8.5 88t4.5 79q0 45 15 52.5t17 -58.5q3 -118 21 -173.5t51 -76.5q37 -26 14 -71q-58 -114 -216 -115q-24 -1 -92 -1h-142t-133.5 0.5t-65.5 1.5q-88 3 -137 34.5t-51 141.5l-1 1029
q0 44 34 29q10 -4 64.5 -33.5t65.5 -35.5q36 -18 6 -43q-18 -12 -30.5 -24.5t-14.5 -43.5zM457 1109q0 -63 -4.5 -241t-73.5 -256q-34 -38 -72.5 -44t-62.5 3q-35 10 -35 57q0 43 23.5 66t46.5 50q122 148 149 360q4 35 16.5 34t12.5 -29zM1467 1198q-11 12 -9.5 29.5
t28.5 -0.5q56 -37 154 -113.5t139 -128.5q27 -35 47 -77.5t11 -94.5q-14 -77 -68 -101q-49 -21 -62 53q-8 36 -38 128.5t-202 304.5zM902 1774q-19 15 -21.5 34t43.5 -3q36 -18 114 -67.5t109 -84.5q44 -51 49.5 -89.5t2.5 -65.5t-22 -57t-46 -36q-48 -12 -62 57
q-9 37 -51.5 144.5t-115.5 167.5z" />
    <glyph glyph-name="x" unicode="x" 
d="M172 1323h926q23 32 75.5 120.5t76.5 166.5q2 8 8 14q-238 -1 -480 -1.5t-310 -0.5q-61 0 -90 -5l-35 -7q-21 -3 -31 12q-18 26 -22 33q-11 16 7 16h691q-12 18 -18.5 45.5t-24.5 53.5q-14 20 -30 41.5t-42 38.5q-13 8 -7.5 17.5t20.5 5.5q39 -11 98.5 -34.5t92.5 -53.5
q26 -26 22 -59.5t-27 -54.5h423q25 0 46 18q9 8 27 26q41 40 86 2q12 -10 28.5 -24.5t28.5 -24.5q20 -18 25.5 -30t-33.5 -12q-29 -1 -145.5 -1.5t-269.5 -0.5q2 0 3 -1q15 -6 55 -25.5t49 -24.5q18 -13 -11 -31q-57 -38 -120.5 -101t-109.5 -118h494q26 0 46 17l13 13
l14 14q41 40 86 2q12 -11 28.5 -25t28.5 -24q20 -18 25.5 -30.5t-33.5 -12.5q-36 0 -255.5 -0.5t-480 -1.5t-490.5 -1.5t-287 -0.5q-61 0 -90 -5l-36 -6q-21 -4 -30 11q-6 9 -11.5 17t-10.5 17q-11 16 7 16zM1502 569q-21 15 -11.5 22.5t40.5 -4.5q40 -18 131.5 -78
t116.5 -122q19 -49 2.5 -88t-37.5 -51q-41 -22 -61 25q-11 23 -23 65t-46 93q-21 29 -55.5 74.5t-56.5 63.5zM1418 1183q27 25 39 39q20 20 37 8q12 -9 39 -30.5t44 -36.5q19 -20 3 -40q-13 -15 -25 -28t-12 -34l1 -266q0 -31 -12 -41q-9 -8 -39.5 -21t-39.5 -14
q-22 -4 -22 27h-850q-2 -23 -25 -38q-13 -9 -59 -19q-25 -6 -25 25l1 504q0 17 11.5 16.5t15.5 -1.5q24 -9 53.5 -23.5t56.5 -26.5h808zM1431 797l1 135h-851l1 -135h849zM1432 982l1 151h-840q-12 -18 -12 -40v-111h851zM737 359q0 -84 97 -82h373q57 0 79.5 32.5
t34.5 73.5q8 27 15 72t8 55q4 36 21 35t16 -40q-9 -147 45 -190q30 -25 4 -62q-15 -23 -55.5 -49t-127.5 -26l-457 -4q-112 -1 -138.5 37t-26.5 165l-1 219q0 39 34 29q20 -6 59 -18.5t50 -17.5q27 -16 3 -34q-12 -10 -22.5 -19.5t-10.5 -39.5v-55v-42v-39zM410 583
q6 24 17 18.5t11 -38.5q-1 -84 -22.5 -172.5t-70.5 -134.5q-39 -36 -80.5 -33.5t-59.5 18.5q-36 29 -1 66q18 18 53.5 45t68.5 75q20 29 47.5 74.5t36.5 81.5zM895 723q-17 12 -11 18.5t33 -1.5q34 -12 112.5 -51.5t103.5 -87.5q19 -39 7.5 -73.5t-27.5 -46.5q-39 -29 -61 6
q-15 21 -22.5 58t-37.5 73q-19 22 -47.5 55.5t-49.5 49.5zM661 1596q34 -16 102 -53.5t86 -74.5q15 -35 4.5 -62.5t-23.5 -39.5q-20 -18 -46.5 -18.5t-34.5 29.5q-5 17 -6 36.5t-4 31.5q-12 36 -39 70.5t-54 60.5q-12 10 -5.5 18t20.5 2z" />
    <glyph glyph-name="c" unicode="c" 
d="M557 1585h383l1 263q0 41 35 33l62.5 -17.5t52.5 -16.5q37 -14 11 -38q-43 -43 -43 -104v-120h407q35 46 40 51q16 21 38 9l62.5 -37.5t50.5 -31.5q16 -17 3 -30q-8 -9 -21.5 -25l-13.5 -16q-11 -13 -11 -41l-2 -365q0 -27 -14 -35q-11 -8 -43.5 -20t-45.5 -16
q-27 -8 -27 15v92h-424v-243q0 -30 -31 -48q-18 -12 -58 -26q-9 -3 -7 -2q75 -45 158 -147.5t-11 -183.5q-36 -32 -68 -12q-24 13 -25.5 65t-19.5 119q-16 57 -51 117q-26 43 -3 50q-3 7 -3 26l1 285h-415v-64q0 -30 -30 -43q-12 -5 -31.5 -13t-40.5 -12q-30 -9 -30 31
l1 566q1 44 26 37q17 -6 61.5 -23t75.5 -29zM738 383q0 -90 21.5 -102t101.5 -15l397 4q70 9 97 53.5t44 104.5q6 21 10 52t5 46q3 40 19 46.5t16 -53.5q0 -110 22 -145t37 -50q13 -15 23 -28.5t-2 -32.5q-43 -67 -91 -82t-147 -16l-461 -1q-129 3 -170.5 38.5t-39.5 188.5
l3 297q0 40 30 33q25 -7 64 -22t54 -22q31 -14 6 -39q-39 -38 -39 -101v-154zM1593 698q145 -77 224 -169.5t70 -153.5q-9 -57 -41 -77.5t-49 -10.5q-56 31 -51.5 96t-173.5 289q-25 30 -7 30.5t28 -4.5zM355 617q5 26 21 46t22 -50q3 -45 4 -159.5t-71 -174.5
q-42 -35 -94.5 -32.5t-63.5 16.5q-31 34 5 70q20 19 51.5 47.5t70.5 83.5q22 31 35.5 77t19.5 76zM1482 1540h-423l-1 -361h424v361zM525 1179h415v361h-388q-15 -12 -21 -27.5t-6 -66.5v-267z" />
    <glyph glyph-name="n" unicode="n" 
d="M473 1235h302q24 29 45 56q15 19 43 0q23 -16 51.5 -36t45.5 -35q19 -18 3 -35q-15 -15 -28.5 -25.5t-13.5 -39.5l-3 -712q0 -90 -12.5 -139.5t-78.5 -91.5q-43 -28 -57 -23.5t-21 33.5q-15 53 -66 79t-98 42q-50 15 -39 27t49 6q49 -9 129 -5q34 1 52 11t17 58v237
q-81 -1 -173 -1.5t-179 -0.5v-420q0 -31 -23 -48q-30 -22 -65 -37q-30 -14 -30 33l1 1094q0 44 40 25q22 -12 52 -26t57 -26zM1236 584v-146q0 -63 19 -93t88 -29h246q57 0 83.5 33.5t38.5 74.5q8 28 13.5 102.5t7.5 84.5q4 36 21 35t15 -40q-4 -75 15 -143.5t46 -89.5
q30 -25 4 -62q-16 -23 -54.5 -58.5t-125.5 -35.5l-345 -4q-111 -2 -150.5 36.5t-39.5 165.5v639q0 42 34 30q31 -13 68 -31t45 -21q34 -20 3 -44q-12 -9 -22 -19t-10 -40v-55v-241q115 67 231 156.5t176 147.5q26 24 42 7q20 -21 42 -51.5t30 -41.5q19 -29 -10 -29
q-40 0 -113 -41q-41 -24 -182 -92.5t-216 -104.5zM1239 1440v-88q0 -64 19 -93.5t87 -29.5h244q57 0 78.5 34t33.5 75q8 27 10.5 85.5t4.5 68.5q4 36 18.5 34t13.5 -41q-6 -114 41 -178q19 -27 30.5 -41.5t-6.5 -41.5q-16 -23 -50 -58t-121 -36l-331 -4q-112 -2 -151 36.5
t-39 165.5l-1 551q0 43 34 30q32 -13 69 -31t45 -21q33 -20 3 -44q-12 -10 -22 -19.5t-10 -39.5l-1 -55l1 -218q114 65 219.5 131t166.5 124q25 25 41 8q20 -21 41.5 -49.5t30.5 -39.5q19 -29 -10 -29q-58 0 -117 -26q-28 -12 -163.5 -68.5t-208.5 -91.5zM879 1508
q-9 21 -23 44q-35 55 -117 147q-15 15 -6.5 21t21.5 -1q60 -36 120.5 -78t98.5 -85q70 -80 44 -150t-67 -58q-27 6 -36 37.5t-20 73.5q-114 -16 -320 -45t-286 -56q-29 -11 -43 8q-6 12 -23.5 46.5t-21.5 46.5q-8 21 17 26q49 11 69 30q81 75 168.5 200t110.5 173
q16 37 41 25q27 -15 53 -34.5t43 -31.5q29 -24 -8 -37q-28 -9 -75.5 -51.5t-98.5 -90.5q-71 -66 -130 -124t-62 -61v0h1q81 -1 258 9t292 16zM441 688h353v234q-83 0 -175.5 -0.5t-176.5 -0.5zM442 969h352v219q-77 0 -160.5 -0.5t-161.5 -0.5q-30 -27 -30 -74v-144z" />
    <glyph glyph-name="m" unicode="m" 
d="M1172 398q35 -9 129 -24.5t127 -17.5q33 -3 79.5 22t60.5 97q11 60 24.5 193t25 276t20.5 264t12 159q-115 0 -256.5 -0.5t-279.5 -0.5q-15 -133 -53 -354q-32 -177 -98 -301.5t-156 -214.5q-141 -142 -302 -220.5t-263 -127.5q-37 -19 -43 -4.5t34 36.5q354 192 494 366
t195 413q24 103 39.5 206t26.5 200q-149 0 -263.5 -0.5t-153.5 -0.5q-61 0 -90 -5l-35 -7q-21 -3 -31 12q-6 8 -11.5 16t-10.5 17q-11 16 7 16h593q14 144 19.5 263t11.5 191q3 41 14 41.5t30 -7.5q18 -9 63 -32t67 -38q33 -23 -2 -51q-18 -15 -37.5 -34.5t-22.5 -62.5
q-3 -45 -4 -103.5t-12 -166.5h513l64 76q20 22 44 5q23 -17 54 -46t43 -41q20 -23 -4 -42q-18 -14 -37 -28.5t-21 -45.5q-5 -59 -18.5 -227t-36.5 -378q-16 -140 -28.5 -240.5t-82.5 -175.5q-36 -38 -97 -64t-81 -31q-40 -10 -42 16q-5 56 -57 97q-62 48 -166 77
q-39 11 -30 25t35 8z" />
    <glyph glyph-name="daggerdbl" unicode="&#x2021;" 
d="M431 1069h843q26 0 46 17l27 27q41 40 86 2q12 -11 28.5 -25t28.5 -24q20 -18 25.5 -30.5t-33.5 -12.5q-36 0 -157 -0.5t-262 -0.5v-342h294q26 0 46 17l13 13l14 14q41 39 86 2q12 -11 28.5 -25t28.5 -24q20 -18 25.5 -30.5t-33.5 -12.5q-40 0 -188.5 -1t-313.5 -1v-396
h490q25 0 46 18q9 8 27 26q40 40 86 3q12 -11 28 -25.5t28 -24.5q51 -42 -8 -42q-36 -1 -231.5 -1.5t-426.5 -1t-437 -1t-263 -0.5q-62 0 -91 -5l-35 -7q-21 -3 -30 12q-6 8 -11.5 16.5t-10.5 16.5q-11 16 7 16h695v396q-96 -1 -173.5 -1.5t-115.5 -0.5q-62 0 -91 -5l-35 -6
q-21 -4 -30 11q-3 4 -22 34q-11 16 7 16h460v341q-105 0 -193 -0.5t-131 -0.5q-61 0 -90 -5l-36 -7q-21 -3 -30 12q-6 8 -11.5 16t-10.5 17q-11 16 7 16zM1068 1727q120 -195 344 -359t470 -243q53 -18 36.5 -26.5t-40.5 -16.5q-80 -29 -124 -74q-16 -15 -68 16
q-93 56 -199 138.5t-200 182.5q-78 80 -148 168t-112 169q-134 -152 -307.5 -322t-557.5 -356q-30 -15 -34 0.5t13 26.5q242 147 390 276q174 153 265.5 290t160.5 248q25 42 55 17q11 -11 36.5 -34t42.5 -36q29 -26 -23 -64v-1v0z" />
    <glyph glyph-name="backslash" unicode="\" 
d="M1447 1677q9 12 24.5 33t21.5 27q16 19 36 3q14 -12 38.5 -29.5t45.5 -37.5q16 -17 3 -31q-11 -11 -24 -27t-13 -40v-464q0 -27 -16 -40q-25 -20 -74 -34q-24 -7 -24 23v61q-186 -1 -413 -1.5t-422 -0.5v-29q0 -26 -9 -34.5t-15 -12.5q-7 -4 -27 -13t-35 -12
q-23 -5 -23 24v671q0 27 21 18q21 -11 45 -22.5t60 -31.5h257q9 40 22 117t16 91q4 31 31 24q15 -5 54 -19.5t49 -18.5q32 -14 0 -35q-24 -16 -48 -54q-17 -27 -33 -56t-27 -49h479zM255 219q-30 -13 -32 -2.5t22 26.5q242 167 333.5 322.5t120.5 232.5q-99 -1 -168.5 -1
h-96.5q-61 0 -90 -5l-35 -7q-21 -3 -31 12q-6 8 -11.5 16t-10.5 17q-11 16 7 16h449q15 17 26.5 32.5t17.5 22.5q6 8 13 13t27 -10q18 -15 43.5 -39t33.5 -34q17 -23 -2 -35q-49 -31 -55 -40q-39 -61 -106.5 -165t-188.5 -207q-54 -45 -120.5 -88.5t-145.5 -76.5zM1245 702
q102 68 193.5 152t104.5 102q21 27 43 6q13 -14 37.5 -43t36.5 -43q22 -26 -12 -29q-46 -5 -80 -20q-15 -7 -132 -67.5t-168 -87.5q7 -9 23 -27q81 -94 196.5 -158t288.5 -96q61 -12 48 -21.5t-38 -13.5q-66 -10 -108 -59q-24 -27 -57 -10q-244 112 -379 295
q-89 118 -151 288q-16 39 -32 54q-2 -180 -0.5 -254.5t4.5 -316.5q0 -76 -8 -118t-69 -73q-57 -30 -76.5 -24.5t-27.5 40.5q-9 41 -55 70q-23 13 -50 21t-45 16q-33 12 -28 21t35 5q26 -4 70 -11.5t78 -9.5q70 -7 72 53l-2 716q0 37 27 33q62 -10 86 -17q17 -5 1 -40
q83 -210 174 -333zM1465 1168l1 215q-188 -1 -414.5 -1.5t-420.5 -0.5l-1 -213h835zM1466 1429l1 202q-184 -1 -405 -1.5t-411 -0.5q-20 -19 -20 -58v-142h835z" />
    <glyph glyph-name="periodcentered" unicode="&#xb7;" 
d="M150 1628h821q-23 18 -29 60q-9 58 -51.5 108t-89.5 86q-18 13 -9.5 20.5t23.5 4.5q45 -14 88.5 -28.5t91.5 -40.5q98 -56 94 -123q-4 -60 -52 -87h633q25 0 46 18q9 8 27 26q41 40 86 2q12 -10 28.5 -24.5t28.5 -24.5q20 -18 25.5 -30.5t-33.5 -12.5t-286 -0.5
t-530 -0.5q24 -14 32 -20q29 -20 -3 -40q-12 -8 -28 -25t-16 -56v-167h432q13 14 42 43q13 14 39 0q21 -15 52.5 -35.5t43.5 -28.5q23 -17 0 -39q-15 -15 -26.5 -29t-11.5 -43q-2 -149 -2.5 -190t0 -61t2 -61t3.5 -189q0 -81 -14 -124.5t-89 -78.5q-63 -29 -79 -23.5
t-29 35.5q-16 33 -61 53.5t-90 34.5q-51 15 -57.5 26.5t45.5 4.5q22 -3 63.5 -6t74.5 -5q51 -4 78 8t28 64q2 175 3.5 227t1.5 78t-1 75t-2 220h-446l-1 -1006q0 -36 -14 -50q-12 -13 -37.5 -20.5t-38.5 -10.5q-34 -9 -34 41l1 1046h-410q-13 -23 -13 -52l1 -679
q0 -30 -10 -37t-19 -11q-20 -13 -60 -22q-28 -6 -28 29l1 834q0 31 27 20q21 -9 44.5 -19t45.5 -19h421l1 308q-215 -1 -385.5 -1.5t-217.5 -0.5q-61 0 -90 -5l-36 -7q-21 -3 -30 12q-11 17 -22 33t7 16z" />
    <glyph glyph-name="quotesinglbase" unicode="&#x201a;" 
d="M699 1371h631l45 35q17 14 38 1q18 -12 36.5 -24.5t35.5 -27.5q17 -17 3 -33q-10 -12 -22 -21t-12 -25l-2 -340q0 -26 -9 -35q-8 -6 -39.5 -22t-41.5 -17q-21 -5 -21 25l-1 89q-63 0 -132 -0.5t-139 -0.5q-47 -39 -86.5 -108t-81.5 -118h557l33 47q15 21 43 4
q21 -14 42.5 -27.5t44.5 -31.5q21 -19 3 -38q-9 -10 -23 -23.5t-14 -39.5l-2 -415q0 -33 -11 -42q-9 -8 -39 -17t-42 -11q-26 -5 -26 30v80q-204 0 -447 -0.5t-451 -0.5l-1 -71q0 -41 -25 -47l-72 -19q-25 -7 -25 25l1 620q0 36 32 23l112 -46h272q21 48 39 110.5t35 115.5
q-65 0 -128 -0.5t-122 -0.5l-1 -75q0 -37 -23 -43l-60 -18q-26 -8 -26 28l1 520q0 42 35 26zM1466 312l-2 390q-198 0 -434 -0.5t-439 -0.5q-21 -20 -21 -53l-1 -336h897zM1338 1324q-146 0 -315.5 -0.5t-313.5 -0.5q-21 -18 -21 -48l-1 -252h653zM1522 1418q35 44 65 91.5
t61 95.5q-282 -1 -620 -1.5t-622 -0.5q0 -26 -3 -54q-5 -50 -20 -97.5t-36 -68.5q-89 -93 -153.5 -45t4.5 101q42 30 83 75t62 98q10 30 13.5 64t5.5 42q2 17 14 16.5t18 -22.5q6 -27 10 -61h620q-39 25 -48 89q-9 57 -38 92t-61 64q-14 12 -7 20t21 6q20 -5 63.5 -16
t91.5 -38q98 -56 95 -125q-4 -69 -61 -92h540q21 20 41.5 40.5t25.5 24.5q14 12 23.5 17.5t28.5 -12.5q21 -21 73.5 -69.5t61.5 -56.5q29 -28 -18 -26q-71 1 -168 -65q-30 -20 -62 -45.5t-71 -51.5q-27 -18 -39 -14t6 25z" />
    <glyph glyph-name="quotedblbase" unicode="&#x201e;" 
d="M753 1530h446v333q0 45 40 25q77 -41 111 -61q25 -17 0 -37q-39 -32 -39 -80v-180h319q25 0 45 18q10 8 28 26q40 40 86 3q12 -11 28 -25t28 -25q51 -42 -8 -42q-42 0 -199.5 -1t-326.5 -1v-190h261q19 24 53 61q13 16 31 3q24 -21 51.5 -45.5t42.5 -39.5q17 -19 4 -34
q-15 -15 -30.5 -26t-15.5 -40l-3 -762q0 -90 -6 -139.5t-81 -89.5q-61 -33 -77.5 -29t-23.5 32q-15 54 -41.5 75.5t-74.5 45.5q-48 21 -36.5 31t48.5 -2q36 -12 109.5 -18.5t72.5 70.5v270q-65 0 -137 -0.5t-147 -0.5v-386q0 -34 -23 -48q-11 -6 -25.5 -15t-34.5 -15
q-31 -10 -31 33l1 431q-72 0 -142.5 -0.5t-134.5 -0.5v-417q0 -35 -23 -48q-20 -14 -58 -23q-16 -4 -23 -1t-7 34l2 1132q0 43 40 25q27 -14 66 -32t66 -31h214v189q-90 0 -163.5 -0.5t-110.5 -0.5q-61 0 -90 -5l-35 -7q-21 -3 -31 12q-11 17 -22 33t7 16zM1445 1810
q31 -12 96.5 -39t89.5 -60q21 -30 14 -57.5t-17 -45.5q-6 -10 -25.5 -25.5t-32.5 -0.5q-15 15 -20.5 34t-11.5 34q-11 27 -27 56t-77 82q-13 11 -8 19t19 3zM921 702h277v263q-73 -1 -143.5 -1h-133.5v-262zM921 1012h277v234q-68 -1 -133 -1h-125q-18 -20 -18 -62z
M1311 1246v-234h283l-1 235q-65 -1 -137 -1h-145zM1311 965v-263h283v264q-65 0 -137 -0.5t-146 -0.5zM665 1484q22 71 42 73.5t-3 -78.5q-13 -44 -40 -146.5t-56.5 -216.5t-56.5 -216.5t-39 -145.5q-8 -27 -16 -69t-8 -79q0 -28 2 -119t5 -159q2 -41 0 -103t-73 -47
q-64 12 -72 84q-9 64 9.5 135.5t21.5 138.5q0 14 -5.5 38t-29.5 42q-25 17 -60 35.5t-72 26.5q-39 7 -37 19q2 11 30 9q65 -7 129 -7q17 0 33.5 2t34.5 39q115 241 167 426.5t94 317.5zM206 1384q57 -15 144 -58q59 -30 92 -78.5t4 -108.5q-21 -46 -52 -44q-33 0 -44 43
q-9 31 -20.5 63.5t-68.5 91.5q-43 43 -72 63q-18 12 -11 22t28 6zM350 1798q56 -15 149 -59q62 -31 100 -74.5t8 -105.5q-20 -42 -56 -40q-30 0 -46 44q-23 68 -98 141q-47 45 -74 66q-20 12 -12 22.5t29 5.5z" />
    <glyph glyph-name="cent" unicode="&#xa2;" 
d="M442 1791h939q12 12 25.5 26t18.5 20q18 19 37 3q13 -12 39 -33.5t47 -41.5q16 -18 3 -31q-11 -11 -24 -23.5t-13 -36.5v-352q0 -27 -16 -40q-25 -20 -82 -34q-24 -7 -24 23l1 91h-187.5h-196.5q5 -184 32 -328h443q26 0 46 17l13 13l14 14q41 40 86 2q12 -11 28 -25
t29 -24q20 -18 25 -30.5t-34 -12.5q-34 0 -222.5 -0.5t-418.5 -0.5q31 -144 87 -251q84 -162 199.5 -232.5t217.5 -100.5q78 -25 104 42q21 54 39.5 142.5t29.5 139.5q6 30 14.5 33.5t7.5 -38.5q-1 -27 -4.5 -84.5t-2.5 -127.5q0 -49 7 -101.5t26 -97.5q23 -61 -5 -76
q-45 -26 -158.5 5t-172.5 62q-129 67 -222 136t-169 216q-74 144 -113 333q-141 -1 -272.5 -1.5t-227.5 -0.5v-588q89 35 252 96t226 86q28 11 42.5 2t-12.5 -23q-47 -24 -129 -71.5t-168.5 -100t-162 -102t-108.5 -76.5q-25 -22 -44 6q-17 23 -36 49t-31 47q-17 25 6 40
q9 6 20.5 13t23.5 14l1 1446q0 25 27 15q21 -10 48.5 -23t51.5 -24zM926 1034q-27 148 -33 327q-120 0 -236.5 -0.5t-221.5 -0.5v-326h491zM435 1409h958l1 335q-220 -1 -477 -1.5t-471 -0.5q-11 -21 -11 -48v-285z" />
    <glyph glyph-name="sterling" unicode="&#xa3;" 
d="M455 1439q55 -26 81 -42q24 -14 2 -38q-32 -31 -32 -75v-1098q0 -50 -30 -70q-26 -15 -61 -26q-30 -10 -30 33l2 1174q-106 -197 -264 -384q-24 -28 -37.5 -22t4.5 39q117 218 238 474t166 533q5 29 18 24.5t23 -10.5q21 -15 65.5 -44.5l44.5 -29.5l9 -12t-3 -22
q-14 -10 -35.5 -31.5t-27.5 -39.5q-34 -88 -66 -171t-67 -162zM1387 1877q-15 10 -14.5 25t34.5 0q283 -128 336 -241q27 -62 0.5 -109.5t-63.5 -40.5q-35 6 -65 57q-20 33 -43 109.5t-185 199.5zM1003 407h457l1 420h-449q-8 -16 -8 -33zM1459 356h-456v-153
q-1 -27 -10.5 -35t-15.5 -12q-7 -5 -40 -13t-49 -12q-25 -5 -25 26l1 771q-77 -72 -183 -157q-33 -27 -45 -13t24 50q285 285 386.5 473.5t158.5 305.5q17 35 44 21q15 -9 54.5 -29t63.5 -36q23 -17 8.5 -29.5t-23.5 -18.5q-18 -11 -33 -31q102 -175 264 -305t337 -170
q57 -14 47 -25t-40 -11q-90 -2 -163 -51q-40 -27 -63 -9q-155 117 -251 261.5t-159 270.5q-61 -89 -148.5 -203.5t-243.5 -261.5q69 -39 137 -82h397q12 15 28.5 36.5t24.5 30.5q17 23 45 5q15 -10 65.5 -45t57.5 -42q14 -15 0 -31q-14 -14 -27 -26t-13 -32l-2 -558
q0 -35 -16 -41q-21 -9 -58 -18t-57 -12q-22 -4 -22 29v182zM1035 1904q20 33 45 18q14 -9 57.5 -33t66.5 -41q22 -18 7.5 -25.5t-25.5 -11.5q-15 -6 -31 -14t-36 -29q-66 -70 -150 -158.5t-208 -191.5q-33 -27 -46 -20t12 39q160 204 204 284t104 183z" />
    <glyph glyph-name="perthousand" unicode="&#x2030;" 
d="M1381 1760h290l59 66q13 14 31 1q81 -58 111 -89q17 -20 -3 -34q-13 -9 -54 -33q-29 -16 -40 -38l-199 -428q-13 -28 4 -39q175 -132 234 -260.5t46 -228.5q-15 -105 -83 -177t-143 -99q-31 -12 -37 0t-13 28q-31 69 -80.5 101t-83.5 48q-21 8 -29 25t49 -1
q142 -47 225 -16q80 29 80.5 123.5t-21.5 156.5q-62 169 -196 283q-13 10 -4 34q21 66 46.5 137t49.5 142q21 60 34 122.5t30 124.5h-311q-12 -16 -12 -48l-2 -1465q0 -37 -13 -51q-12 -13 -35 -23t-37 -13q-33 -9 -33 41l2 1663q0 39 33 15q11 -9 44.5 -30t60.5 -38z
M430 877q-113 -92 -232 -167q-46 -19 -28.5 5.5l17.5 24.5q108 92 243 230v57v65q0 24 21 12q30 -16 68 -43q95 102 168 191l-334 -1q-24 -1 -46.5 -2t-43.5 -4l-35 -6q-22 -4 -31 11q-6 8 -11.5 16.5t-10.5 17.5q-11 16 7 16h404v287l-91 -1q-60 0 -87 -5l-34 -6
q-21 -3 -30 11q-5 9 -21 32q-10 16 7 16h256v273q0 42 38 26q23 -10 56.5 -27.5t45.5 -23.5q19 -12 2 -33q-18 -22 -24 -32.5t-6 -45.5v-137h27q24 0 43 17q18 16 26 25q40 39 83 2q18 -15 55 -47q0 -1 1 -2t2 -1q46 87 70 147q16 41 26 39t26 -11q11 -7 44 -36.5t40 -36.5
q23 -26 -3 -43q-9 -6 -27 -19t-35 -37q-125 -186 -239 -331h133q26 0 46 17l13 13l14 14q41 40 86 2q12 -11 28 -25t29 -24q20 -18 25.5 -30.5t-33.5 -12.5l-379 -2q-45 -54 -92 -107t-97 -103h262q7 7 26 32.5t25 33.5q18 19 37 3l38.5 -33t44.5 -42q17 -16 3 -30
q-11 -12 -24 -24t-13 -36l1 -620q0 -28 -17 -41q-26 -22 -73 -34q-24 -6 -24 24v150h-357v-138q-1 -26 -9.5 -34.5t-14.5 -12.5q-24 -16 -62 -25q-24 -6 -24 24q0 165 0.5 306.5t0.5 331.5zM539 464h357l1 255h-358v-255zM540 758h357l1 245h-327q-8 -7 -22 -21
q-9 -18 -9 -37v-187zM724 1300q108 143 190 290l-216 -2v-288h26z" />
    <glyph glyph-name="Acircumflex" unicode="&#xc2;" 
d="M1207 1439q11 60 22 121t21 116h-26h-22q-62 0 -91 -5l-35 -7q-21 -3 -30 12q-11 17 -22 33t7 16h228q10 59 17 100t10 53q6 36 34 27q21 -7 54.5 -18t40.5 -13q37 -17 10 -36q-29 -21 -48 -93q-2 -5 -3 -10l-2 -10h202q16 18 19 21q21 22 38 11q12 -8 39 -26.5t42 -31.5
q18 -17 3 -34q-17 -17 -18 -19q-14 -17 -14 -30v-177h28q25 0 45 17q7 6 13.5 13t13.5 13q41 40 86 3q12 -11 28.5 -25t28.5 -24q20 -18 25.5 -30.5t-33.5 -12.5q-36 0 -145 -0.5t-237 -1.5t-248 -1.5t-177 -0.5q-61 0 -90 -5l-35 -7q-21 -3 -31 12q-20 30 -22 34
q-11 16 7 16h267zM1584 1678q-57 0 -115 -0.5t-109 -0.5q-14 -54 -28.5 -116.5t-26.5 -121.5h279v239zM1620 1266q16 18 20 22q21 22 38 11q11 -8 38 -26.5t42 -31.5q19 -16 3 -34q-6 -6 -10.5 -10t-7.5 -9q-13 -20 -13 -30l-1 -191q0 -28 -18 -37q-23 -12 -50 -20
q-31 -12 -31 29v5h-59.5h-58.5v-169h91q25 0 45 17l27 27q41 40 86 2q12 -11 28.5 -25t28.5 -24q50 -43 -8 -43q-34 0 -117 -0.5t-181 -0.5v-194h181q26 0 46 17l13 13l14 14q41 39 86 2q12 -11 28 -25t29 -24q48 -43 -8 -43q-39 0 -151 -1t-238 -1v-297q0 -30 -21 -46
q-21 -18 -50 -26q-30 -10 -30 32v337q-84 -1 -156 -1.5t-113 -0.5q-61 0 -91 -5l-35 -6q-21 -4 -30 11q-6 8 -11.5 16.5t-10.5 17.5l-0.5 0.5l-0.5 0.5h-1.5h-0.5q-40 0 -144 -0.5t-220 -0.5v-327q0 -30 -21 -46q-18 -16 -49 -26q-30 -10 -30 32v366q-66 -1 -122.5 -1h-93.5
q-62 0 -91 -5l-35 -7q-21 -3 -30 12q-7 11 -23 33q-10 16 7 16h388v264h-81h-79v-38q0 -31 -13 -39q-33 -25 -67 -33q-23 -6 -23 23l1 700q0 22 24 12q18 -9 50.5 -29t59.5 -35h129v224q-66 -1 -123 -1h-94q-62 0 -91 -5l-35 -7q-21 -3 -30 12q-14 20 -23 33q-10 16 7 16
h389v242q0 39 40 25q22 -9 50.5 -20t45.5 -20q25 -16 2 -35q-38 -33 -38 -80v-112h155q25 0 46 18q9 8 27 26q41 40 86 2q12 -10 28.5 -24.5t28.5 -24.5q20 -18 25.5 -30.5t-33.5 -12.5q-40 0 -144 -0.5t-219 -0.5v-225h142q34 46 45 58q17 18 37 2q52 -49 88 -86
q19 -20 2 -33q-48 -36 -48 -63l-1 -448q0 -21 -12 -29q-23 -16 -64 -28q-22 -6 -22 13v54q-41 0 -83 -0.5t-84 -0.5l-1 -264h156q26 0 46 17l13 13l14 14q41 40 86 2q12 -11 28.5 -25t28.5 -24q23 -22 25 -28h58l1 280q0 19 23 14q59 -31 98 -53h237l1 169q-69 -1 -132.5 -1
h-118.5q0 -28 -20 -39q-26 -13 -54 -20q-24 -7 -25 29l1 385q0 24 23 13q33 -15 84 -45h450zM1630 992l1 227q-114 -1 -227 -1.5t-208 -0.5q-34 -17 -34 -56v-169h468zM1411 727q-66 0 -128 -0.5t-108 -0.5q-23 -20 -23 -49l-1 -143h260v193zM745 1343q-95 0 -196.5 -0.5
t-200.5 -0.5q-9 -18 -9 -40l-1 -162h427v200zM765 1093q-102 0 -212 -0.5t-215 -0.5l-1 -215h428v216z" />
    <glyph glyph-name="Ecircumflex" unicode="&#xca;" 
d="M487 1435h538q-1 59 -1 117v115q0 30 21 23q30 -9 56.5 -16.5t44.5 -15.5q21 -9 2 -28q-23 -25 -24 -47q-1 -37 -2 -74.5t-1 -73.5h188q24 0 42 16q16 16 25 24q37 36 78 2q33 -29 51 -45q46 -39 -7 -39q-31 0 -139 -0.5t-238 -0.5q0 -54 3 -109t11 -112q13 -115 43 -202
q48 81 76.5 159.5t43.5 146.5q6 31 37 17q52 -26 82 -48q23 -20 -6 -29q-20 -6 -33 -43q-62 -171 -157 -303q61 -115 167 -183q62 -42 87 21q6 16 12.5 36.5t12.5 41.5t15 21.5t6 -29.5q-10 -79 -12 -109.5t2 -85.5q4 -50 -41 -43t-62 16q-101 43 -182 131q-44 50 -73 99
q-110 -120 -231 -185.5t-230 -107.5q-29 -11 -38 4t33 35q144 66 247.5 153.5t175.5 182.5q-55 121 -71 281q-12 112 -13 244q-123 -1 -230 -1.5t-153 -0.5q-56 0 -82 -5l-32 -5q-19 -4 -28 10l-20 30q-10 15 6 15zM1570 1791q34 42 42 52q15 20 33 10q14 -8 59.5 -43
t59.5 -45q17 -15 -2 -30q-9 -7 -17.5 -14l-8.5 -7q-12 -15 -12 -45l-2 -1385q0 -29 -15 -38q-38 -25 -83 -38q-28 -9 -28 16v134h-1187v-90q0 -30 -11 -39t-18 -14q-8 -5 -32.5 -16.5t-42.5 -14.5q-28 -7 -28 28l1 1634q0 29 27 16q20 -9 63.5 -33t72.5 -38h1129zM1596 406
v1337h-1163q-23 -23 -23 -57l-1 -1280h1187zM670 1241h131q8 8 20 21.5t18 19.5q17 18 30 9q8 -7 31 -25.5t35 -28.5q13 -15 2 -28l-15 -15q-10 -20 -10 -25l-2 -229q0 -21 -8 -28q-25 -25 -57 -28q-17 -4 -15 20v38q-52 -1 -103.5 -1h-97.5v-37q0 -22 -17 -33
q-15 -9 -49 -17q-17 -4 -17 18v408q0 14 19 10q24 -9 53 -23.5t50 -23.5l0.5 -1t1.5 -1zM831 1197h-105h-89q-7 -14 -7 -25l-1 -187h201zM1217 1648q90 -19 121 -42t32 -54q1 -30 -10 -49q-21 -36 -46 4q-24 39 -40 66t-60 54q-18 10 -14.5 17t17.5 4zM958 822q20 4 26 -5.5
t-13 -15.5q-68 -22 -213.5 -70.5t-222.5 -83.5q-17 -7 -29 10q-6 8 -16 24t-17 28q-12 15 10 17q120 15 238 42.5t237 53.5z" />
    <glyph glyph-name="Aacute" unicode="&#xc1;" 
d="M531 1512h709q25 0 45 17q7 6 13.5 13t14.5 13q40 40 86 3q13 -12 44 -49q35 -43 -8 -43l-418 -2v-374h200q24 0 45 18q9 8 27 26q41 40 86 2q19 -16 44 -48q37 -43 -8 -44l-394 -2v-381h291q25 0 45 18q7 6 13.5 12.5t14.5 13.5q40 40 86 2q12 -11 22.5 -23.5
t21.5 -24.5q36 -44 -8 -44l-869 -3q-25 -1 -47.5 -2t-43.5 -4l-35 -6q-21 -4 -31 11q-12 18 -22 34q-11 16 7 16h452v381l-179 -1q-61 0 -90 -6l-36 -6q-21 -3 -30 12q-6 8 -11.5 16t-10.5 17q-11 16 7 16h350v373l-211 -1q-62 0 -91 -5l-35 -7q-21 -3 -31 12q-18 26 -22 33
q-11 17 7 17zM1571 1792q12 16 25.5 32.5t16.5 20.5q16 18 33 10q14 -9 60 -43.5t59 -44.5q17 -15 -1 -31l-18 -14l-9 -7q-12 -15 -12 -45l-2 -1387q0 -29 -15 -38q-12 -9 -39.5 -21.5t-42.5 -16.5q-29 -10 -29 16v134h-1189v-90q0 -31 -11 -39.5t-18 -13.5
q-8 -6 -32.5 -17.5t-42.5 -14.5q-29 -7 -29 28l1 1638q0 27 28 15q20 -9 63.5 -33t72.5 -38h1131zM1597 405v1339h-1165q-23 -23 -23 -56l-1 -1283h1189zM1140 1002q113 -53 147 -96.5t33 -85.5q0 -17 -12.5 -47.5t-32.5 -32.5q-19 -3 -33 42q-7 22 -36.5 84.5t-77.5 110.5
q-20 18 -12.5 25.5t24.5 -0.5z" />
    <glyph glyph-name="dagger" unicode="&#x2020;" 
d="M860 1919q61 -27 156 -95q63 -46 97.5 -102t-10.5 -120q-31 -42 -70 -34q-34 5 -42 58q-13 78 -85 177q-44 60 -71 87q-19 18 -8.5 28t33.5 1zM1237 1443q-134 -1 -271.5 -1.5t-254.5 -0.5q94 -420 299 -675q120 181 165 358.5t62 318.5zM943 674q-120 149 -187 336
t-99 431q-93 0 -162 -0.5t-100 -0.5q-70 0 -103 -6l-41 -7q-24 -4 -35 13q-16 26 -25 39q-12 18 8 18h1359q29 0 52 20q11 10 31 30q47 46 99 3q27 -24 65 -56q23 -21 29 -35.5t-38 -14.5q-30 0 -140.5 -0.5t-261.5 -0.5q-50 -267 -123.5 -451t-174.5 -322
q152 -150 350.5 -238t418.5 -145q69 -18 48.5 -26.5t-50.5 -12.5q-36 -6 -70 -13t-69 -46q-31 -34 -61 -19q-208 96 -366 195t-272 216q-186 -212 -412 -315t-415 -137q-50 -9 -65.5 -0.5t62.5 38.5q275 102 454.5 233.5t293.5 273.5z" />
    <glyph glyph-name="degree" unicode="&#xb0;" 
d="M492 1422q50 -25 72 -38q25 -15 1 -38q-23 -23 -27 -37.5t-4 -37.5v-1041q0 -49 -30 -69q-22 -14 -58 -26q-30 -10 -30 33l1 1104q-96 -175 -239 -354q-22 -29 -36 -22.5t4 39.5q113 222 221 455.5t153 497.5q6 33 20.5 28.5t24.5 -10.5q16 -11 50.5 -33t51.5 -35
q27 -21 2 -40q-34 -28 -51 -68q-33 -86 -63 -161.5t-63 -146.5zM1125 1153l-1 -606q0 -70 2 -86q7 -93 28 -114.5t101 -24.5q22 -2 85.5 -2t132.5 0.5t126 1t68 2.5q70 8 92 54t34 108q17 88 19 152q1 45 14.5 51.5t13.5 -60.5q-1 -120 15 -180t37 -79q31 -31 11 -70
q-25 -45 -54 -67q-53 -40 -166 -40q-24 -1 -100 -1.5t-158.5 -0.5h-149.5h-73q-126 3 -162 61.5t-39 234.5l2 1373q0 55 38 35q51 -27 126 -81q29 -24 4 -46q-18 -16 -31.5 -30.5t-13.5 -55.5l-1 -437q150 85 287.5 168t225.5 153q43 35 74 13q61 -48 108 -96
q38 -39 -18 -44q-41 -5 -88.5 -15.5t-89.5 -30.5q-96 -44 -243.5 -117t-255.5 -123z" />
    <glyph glyph-name="asciitilde" unicode="~" 
d="M1611 899q18 18 37.5 44.5t28.5 36.5q20 27 55 3q22 -15 58 -43t47 -40q19 -22 3 -33q-6 -5 -19.5 -14.5t-25.5 -22.5q-18 -20 -20 -48q-15 -130 -39.5 -245.5t-46.5 -178.5q-23 -65 -79.5 -110.5t-110.5 -65.5q-56 -21 -68 -19.5t-25 58.5q-15 63 -79.5 91.5
t-119.5 46.5q-50 15 -42 32t59 6q21 -5 61.5 -12t73.5 -10q42 -6 77.5 -5.5t51.5 2.5q15 1 45 19.5t45 60.5q12 34 36.5 151.5t32.5 248.5q-118 0 -251.5 -0.5t-261.5 -0.5q-24 -91 -63 -180.5t-105 -166.5q-106 -126 -281 -217t-442 -140q-66 -12 -42.5 11.5t39.5 28.5
q407 99 560 295t192 369q-144 -1 -251.5 -1.5t-143.5 -0.5q-61 0 -91 -5l-35 -6q-21 -4 -30 11q-11 17 -22 33q-11 17 7 17h576q11 68 13.5 122.5t7.5 86.5v2v2h-373v-2q0 -31 -10.5 -39.5t-17.5 -13.5q-30 -21 -76 -32q-28 -7 -28 28l1 832q0 29 29 15q29 -16 82 -52.5
t77 -51.5h893q13 16 31 38.5t23 27.5q13 20 32 10q14 -8 57.5 -41.5t56.5 -43.5q17 -14 -4 -33q-9 -7 -17.5 -14l-8.5 -7q-12 -15 -12 -45l-2 -574q0 -29 -15 -38q-12 -8 -36 -21t-39 -17q-41 -13 -41 16v58h-453q18 -8 26 -12q29 -17 8 -37q-14 -14 -26 -27.5t-18 -46.5
q-6 -40 -17 -90h466zM1625 1759h-435v-288h435v288zM1625 1435h-435v-286h435v286zM1029 1149q4 15 36 6v0v0v280h-414l-1 -286h379zM1065 1471v288h-393q-20 -22 -20 -54l-1 -234h414z" />
    <glyph glyph-name="Ccedilla" unicode="&#xc7;" 
d="M213 212q104 22 240 66.5t262 114.5q181 99 299 224q-198 91 -370 146q-23 7 -51 15.5t-52 17.5q27 46 83.5 200t116.5 328q-148 0 -257.5 -0.5t-145.5 -0.5q-62 0 -91 -5l-35 -7q-21 -3 -30 12q-6 8 -11.5 16.5t-10.5 16.5q-12 16 6 16h591q57 166 101 302.5t53 163.5
q14 44 31 37q9 -5 65.5 -33t67.5 -34q9 -7 17 -20t-13 -23q-39 -22 -77 -113q-55 -129 -112 -280h764q24 0 45 18q7 6 13.5 13t13.5 13q41 40 86 3q12 -11 28.5 -25t28.5 -25q20 -18 25.5 -30t-33.5 -12q-23 0 -121 -0.5t-238 -0.5q-4 -2 -7 -4q-30 -17 -40 -61
q-23 -97 -59 -206t-88 -224q-57 -125 -114 -202q148 -59 275.5 -119.5t176.5 -105.5q39 -36 47 -56.5t8 -31.5q0 -12 -11 -47.5t-22 -53.5q-24 -39 -62 9q-49 57 -118.5 109t-158.5 112q-81 54 -194 113q-84 -87 -222 -163q-186 -104 -384.5 -160.5t-327.5 -62.5
q-40 -3 -38 14q1 15 50 26zM871 1324q-60 -158 -114 -305.5t-76 -211.5q1 2 -3 -10q57 -11 162 -43.5t226 -75.5q65 82 117 190q78 165 122 352q7 26 15 105q-110 0 -225 -0.5t-224 -0.5z" />
    <glyph glyph-name="Eacute" unicode="&#xc9;" 
d="M197 1067h704q13 84 19 177.5t9 198.5q-140 -1 -250.5 -1h-152.5q-24 -1 -46.5 -2t-43.5 -4l-35 -6q-21 -4 -31 11q-12 18 -22 34q-11 16 7 16h574q0 86 -0.5 180t-0.5 196q0 26 16 28.5t27 -0.5q10 -4 68.5 -30t69.5 -31q10 -6 20.5 -20t-9.5 -26q-25 -15 -39 -34.5
t-18 -72.5q-5 -100 -6 -190h438q26 0 46 17l13 13l14 14q41 40 86 2q12 -11 28.5 -25t28.5 -24q20 -18 25.5 -30.5t-33.5 -12.5q-40 0 -236 -1t-412 -1q-3 -102 -8 -196t-17 -180h586q25 0 45 17l27 27q41 40 86 2q12 -11 28.5 -25t28.5 -24q20 -18 25.5 -30.5t-33.5 -12.5
q-36 0 -239.5 -0.5t-447.5 -0.5q110 -328 309 -478t426 -209q56 -15 35 -24.5t-45 -12.5q-40 -6 -90 -25.5t-83 -53.5q-25 -26 -54 -8q-182 108 -326.5 300t-224.5 510h-30h-30q-21 -127 -65 -239t-125 -211q-96 -117 -254 -219.5t-402 -194.5q-36 -14 -38 2t28 33
q359 186 517 379.5t208 449.5q-186 -1 -333 -1h-191q-25 -1 -47 -2t-43 -4l-36 -6q-20 -4 -30 11q-6 9 -11.5 17t-10.5 17q-11 16 7 16z" />
    <glyph glyph-name="Ntilde" unicode="&#xd1;" 
d="M969 935q18 -9 38.5 -20.5t38.5 -20.5h248v117v108q-105 0 -202 -0.5t-190 -0.5q1 -16 0 -34q-4 -104 -41 -147q-73 -84 -131.5 -45t-0.5 87q35 29 69 69.5t49 87.5q8 27 9.5 56.5t2.5 36.5q1 15 12 15t17 -19q6 -22 11 -58h914q18 18 37 36.5t24 22.5q26 21 45 4
q18 -18 64 -60.5t53 -48.5q22 -23 -17 -26q-75 -5 -124.5 -33.5t-88.5 -55.5q-22 -15 -31 -9.5t4 26.5q15 23 26 45t30 52q-102 0 -212.5 -0.5t-221.5 -0.5v-108v-117h269q12 15 25 29.5t28 32.5q13 15 32 3q23 -21 51 -45.5t43 -39.5q17 -19 3 -34q-15 -15 -30.5 -26
t-15.5 -40l-3 -306q0 -90 -6 -139.5t-81 -89.5q-61 -33 -77.5 -29t-23.5 32q-15 54 -41 75.5t-74 44.5q-48 22 -36.5 32t47.5 -2t109.5 -18.5t72.5 70.5l-1 403q-70 0 -144.5 -0.5t-146.5 -0.5v-431.5v-246.5q0 -24 -2 -29t-26 -13q-31 -15 -52 -21q-27 -10 -27 29v271v441
q-72 0 -135 -0.5t-113 -0.5l-1 -570q0 -24 -2 -29.5t-26 -14.5q-12 -5 -24.5 -10.5t-31.5 -11.5q-29 -11 -29 30l1 667q0 34 11 34.5t25 -5.5zM903 1404h746l1 194q-201 -1 -414 -2t-283 -1q-61 0 -91 -5l-35 -6q-21 -4 -30 11q-6 8 -11.5 16.5t-10.5 17.5q-11 16 7 16h868
l1 175q-195 -1 -349 -1.5t-214 -0.5q-62 0 -91 -5l-35 -7q-21 -3 -30 12q-11 17 -22 33q-12 17 7 17h711q11 12 24 26.5t20 21.5q25 27 49 9q27 -23 69 -66q18 -22 3 -40q-6 -8 -11.5 -12.5t-9.5 -9.5q-16 -23 -16 -36v-116h29q26 0 46 17l13 13l14 14q41 39 86 2
q12 -11 28 -25t28 -24q21 -18 26 -30.5t-34 -12.5q-21 0 -85 -0.5t-151 -0.5l-2 -247q0 -31 -11 -42q-9 -8 -36 -23.5t-36 -16.5q-22 -4 -22 29v59q-200 -1 -356 -2t-219 -1q-61 0 -90 -5l-35 -6q-21 -4 -31 11q-20 30 -22 34q-11 16 7 16zM274 810q72 -33 173 -88
q55 129 83 301t24 412q-100 -4 -164 -6q-31 -158 -67 -324.5t-60 -271.5q-4 -17 11 -23zM539 671q54 -31 107 -65.5t80 -73.5q35 -54 26.5 -98.5t-18.5 -59.5q-27 -44 -59 -16q-31 26 -50 73t-85 111q-12 11 -25 22.5t-26 24.5q-78 -114 -192 -222.5t-258 -194.5
q-17 -10 -29.5 -2t8.5 29q123 108 223.5 212t171.5 239q-92 70 -225 152q-31 18 -23 53q15 63 48.5 222.5t63.5 346.5q-46 -2 -52 -2q-68 -5 -91 -9l-34 -8q-21 -4 -31 11q-16 22 -24 32q-11 15 7 17l233 9q18 117 31 232.5t16 208.5q1 40 38 28q39 -12 69.5 -27.5
t57.5 -27.5q33 -17 1 -43q-13 -12 -27 -27q-15 -15 -17 -34q-9 -72 -54 -306l146 6q17 19 29.5 34t21.5 25q20 22 44 8q72 -48 112 -86q15 -14 -2 -31q-7 -7 -21 -19t-23 -21q-14 -15 -15 -44q-24 -276 -60 -426.5t-92 -250.5q0 -2 -1 -2z" />
    <glyph glyph-name="Odieresis" unicode="&#xd6;" 
d="M692 1335q41 -152 116.5 -298.5t186.5 -263.5q84 115 150 263t109 340q11 47 43 35q9 -5 61 -29.5t65 -30.5q12 -7 19 -21.5t-16 -23.5q-18 -8 -34.5 -20.5t-33.5 -69.5q-32 -108 -107 -251.5t-179 -266.5q12 -11 38 -31q239 -189 753 -326q56 -15 34.5 -26t-39.5 -15
q-39 -9 -65 -20.5t-53 -49.5q-18 -26 -52 -15q-238 76 -406 180.5t-282 223.5q-10 -10 -15 -14q-132 -126 -357 -245.5t-449 -177.5q-24 -7 -31.5 4.5t16.5 21.5q222 90 419 200t350 287q-130 159 -190.5 326t-87.5 312q-8 42 9 40t28 -38zM1213 1820q102 -36 292 -146.5
t248 -191.5q35 -50 23 -97t-24 -65q-11 -15 -27 -28.5t-39 7.5q-36 32 -46 71.5t-90 135.5q-57 66 -166 152.5t-181 131.5q-23 14 -14 24.5t24 5.5zM161 1210q48 46 128.5 118.5t161.5 164.5q88 100 161 202t93 141q20 42 41 29q9 -7 58 -38.5t58 -39.5q8 -9 10.5 -25.5
t-21.5 -20.5q-19 -4 -35 -9t-52 -50q-54 -68 -218 -217.5t-361 -272.5q-17 -10 -28.5 -4t4.5 22z" />
    <glyph glyph-name="Udieresis" unicode="&#xdc;" 
d="M141 1210h329q4 40 15.5 139.5t23.5 204.5t21.5 190.5t10.5 98.5q0 27 14 18t33 -20l48 -25.5t62 -32.5l2 -2h700q21 12 46.5 33.5t34.5 27.5q9 7 13 12.5t25 -8.5q20 -15 47 -48t37 -40q20 -14 6 -27q-11 -9 -30 -21t-20 -38q-1 -11 -8 -146t-16 -316h144q26 0 46 18
q9 8 27 26q41 41 86 2q12 -10 28 -24.5t28 -24.5q50 -43 -8 -43q-21 0 -118 -0.5t-236 -0.5q-8 -139 -16 -281.5t-15 -255.5h92q24 0 45 18q9 8 27 26q41 40 86 2q12 -10 28.5 -24.5t28.5 -24.5q20 -18 25.5 -30t-33.5 -12q-24 -1 -106 -1h-196q-9 -141 -13 -181
q-23 -153 -180 -198q-75 -21 -88 -14.5t-17 24.5q-13 47 -70.5 80t-102.5 49q-49 17 -55 32t47 7q21 -3 53 -9.5t65 -9.5q98 -12 133 -5q15 2 41.5 9.5t38.5 37.5q12 29 21 82.5t9 71.5q0 10 1 23q-237 0 -481.5 -1t-313.5 -1q-38 0 -56 -1q-14 -9 -54 -47q-24 -22 -47 -2
q-8 6 -36.5 27t-41.5 32q-25 17 -3 31q26 18 38 33q11 14 20 52q1 6 8.5 63.5t17 132l19 149t14.5 114.5h-95.5h-57.5q-61 0 -90 -6l-35 -6q-22 -3 -31 12q-14 22 -22 33q-11 16 7 16zM1449 1741h-786q-3 -5 -3 -8q-2 -7 -24 -175.5t-45 -347.5h827q9 174 18.5 324t12.5 207
zM1415 1163q-204 0 -430.5 -1t-399.5 -1q-15 -116 -26.5 -201.5t-13.5 -97.5q-4 -27 -11.5 -113t-10.5 -123h860q4 81 13 228.5t19 308.5zM876 1066q10 -7 48.5 -32.5t77.5 -64.5q49 -51 72 -103t-34 -121q-27 -33 -53 -6q-19 20 -24 63q-8 50 -13.5 79t-33.5 78
q-17 27 -35.5 56.5t-23.5 35.5q-12 13 -1 17t20 -2zM879 1647q10 -7 48.5 -33t77.5 -65q49 -51 71.5 -102.5t-34.5 -120.5q-26 -34 -53 -6q-17 16 -24 63q-8 50 -13.5 79t-33.5 78q-41 72 -58 92q-12 13 -1.5 16.5t20.5 -1.5z" />
    <glyph glyph-name="aacute" unicode="&#xe1;" 
d="M975 1442q0 43 34 30q21 -8 69 -28q78 63 177.5 144.5t177.5 154.5q-242 -1 -524 -1.5t-359 -0.5q-24 -1 -46.5 -2t-43.5 -4l-36 -6q-20 -4 -30 11q-6 9 -11.5 17t-10.5 17q-11 16 7 16h1103q37 37 58 64q23 29 47 14q21 -15 60 -58t55 -66q17 -26 -24 -31
q-15 -2 -43.5 -7t-60.5 -21q-7 -4 -65 -37t-133 -75.5t-148 -84t-109 -61.5q6 -3 12.5 -5.5t11.5 -4.5q33 -17 2 -38q-21 -15 -26 -73q-2 -28 -2 -64l-1 -109h528q25 0 45 18q9 8 27 26q41 40 86 2q12 -10 28.5 -24.5t28.5 -24.5q20 -18 25.5 -30.5t-33.5 -12.5
q-36 0 -256 -0.5t-479 -0.5l-1 -648q0 -44 1 -86.5t-29 -78.5q-12 -15 -47.5 -35.5t-69.5 -36.5q-62 -30 -79.5 -28t-14.5 35q3 48 -68.5 86t-117.5 53q-50 15 -59 27t43 5q23 -3 73 -9.5t83 -6.5q87 -2 116 4.5t29 93.5v624q-219 0 -398.5 -0.5t-228.5 -0.5q-62 0 -91 -6
l-35 -6q-21 -3 -30 12q-6 8 -11.5 16t-10.5 17q-11 16 7 16h798v309z" />
    <glyph glyph-name="agrave" unicode="&#xe0;" 
d="M664 1763h726l46 65q15 22 40 3q27 -22 56 -50.5t47 -48.5q19 -23 3 -40q-9 -9 -21.5 -26t-12.5 -44v-578q0 -31 -11 -41q-30 -25 -85 -44q-27 -12 -27 28v103h-75.5h-77.5l-5 -559q-1 -78 27.5 -92t103.5 -17q44 -2 147.5 0t124.5 4q57 6 72.5 43t30.5 129
q6 40 14.5 119t8.5 111q-1 44 14.5 51.5t17.5 -58.5q3 -118 11.5 -202.5t60.5 -130.5q27 -27 19 -57q-44 -145 -215 -146q-47 -1 -206 -1.5t-171 0.5q-88 2 -131 31t-45 139q-2 45 -2 135.5t1 189t1.5 185.5t1.5 126q-67 -1 -134.5 -1h-133.5q-12 -370 -157 -578
q-167 -242 -556 -304q-25 -4 -43.5 8.5t30.5 32.5q322 127 461 312t153 529q-37 0 -72.5 -0.5t-68.5 -0.5v-95q0 -32 -20 -44q-36 -21 -76 -36q-24 -10 -24 26l-2 876q0 29 27 16q33 -17 66 -35.5t61 -32.5zM1427 1709q-174 0 -378.5 -1t-384.5 -1q-33 -23 -33 -66v-497h794
z" />
    <glyph glyph-name="acircumflex" unicode="&#xe2;" 
d="M361 1561h803q130 180 187 330q18 48 43 35q38 -22 76.5 -48.5t50.5 -35.5q34 -26 -5 -40q-53 -18 -92.5 -53.5t-93.5 -88.5q-27 -27 -51 -51.5t-48 -47.5h309q16 18 31.5 36t25.5 28q21 21 45 7q16 -11 54.5 -37t54.5 -39q14 -13 -2 -28q-7 -7 -22 -18.5t-19 -16.5
q-17 -14 -17 -31l-2 -305q0 -31 -11 -38q-8 -6 -44 -17.5t-46 -12.5q-22 -6 -22 28l1 64q-111 -1 -228.5 -1h-229.5v-134v-135h573q15 15 30 32t24 26q23 20 51 1q22 -15 52 -40t42 -36q23 -24 4 -37q-29 -21 -46.5 -35t-20.5 -53q-5 -46 -18 -127t-34 -143
q-23 -65 -68.5 -98.5t-101.5 -50.5q-76 -23 -88 17q-21 61 -74 91t-102 51q-49 19 -40.5 28t59.5 -2q39 -9 89.5 -23t121.5 -5q27 3 58 19t43 59q13 53 25.5 133.5t18.5 145.5q-145 -1 -299 -1h-299v-427v-244q0 -25 -2.5 -31t-28.5 -15q-20 -8 -65 -23q-30 -10 -30 32
v244.5t1 390.5q-21 -28 -19 -25q-86 -111 -285 -263.5t-486 -271.5q-38 -15 -41 3t24 30q120 54 348 242.5t345 356.5q-135 0 -236.5 -0.5t-148.5 -0.5q-12 -9 -29 -24t-20 -19q-17 -21 -35 -5q-13 9 -47.5 41.5l-34.5 32.5l-5.5 9.5t5.5 15.5q9 6 28.5 18l19.5 12l9 15.5
t13 27.5q3 11 39 151.5t40 154.5q6 21 20.5 17l14.5 -4q12 -9 38 -34t44 -42h399v146.5v137.5q-165 0 -289 -0.5t-163 -0.5q-61 0 -90 -5l-35 -6q-21 -4 -31 11q-20 30 -22 34q-11 16 7 16zM487 911h497v134v134q-134 0 -242 -0.5t-166 -0.5zM628 1928q47 -16 139 -65
t121 -97q25 -44 11 -83.5t-25 -53.5q-9 -12 -30 -23t-38 7q-26 25 -28.5 62.5t-53.5 108.5q-22 30 -43 54t-68 61q-15 11 -6.5 21.5t21.5 7.5zM1568 1514q-111 -1 -228.5 -1h-230.5v-134.5v-150.5h458z" />
    <glyph glyph-name="adieresis" unicode="&#xe4;" 
d="M690 304h298l1 1496q0 24 27 15q42 -21 112 -61h378q30 34 49 53q24 25 44 13q13 -9 44.5 -31t49.5 -37q22 -19 3 -39q-6 -8 -11.5 -12.5t-9.5 -9.5q-16 -26 -16 -36l-2 -1351h59q25 0 45 17q7 6 14 13t14 13q40 40 85 3q12 -11 28.5 -25t28.5 -25q51 -42 -8 -42
q-36 0 -185 -0.5t-325 -1.5t-335.5 -1.5t-216.5 -0.5q-62 0 -91 -5l-35 -7q-21 -3 -30 12q-6 8 -11.5 16.5t-10.5 17.5q-12 16 7 16zM365 777q78 -37 172 -87q57 129 85.5 302t24.5 414q-45 -3 -87 -4.5t-79 -3.5q-31 -158 -67 -325.5t-61 -272.5q-4 -16 12 -23zM626 640
q54 -31 109 -66.5t82 -74.5q35 -54 26 -99t-18 -60q-28 -42 -59 -15q-31 26 -50.5 73t-85.5 111q-21 20 -54 49q-78 -115 -192 -223.5t-259 -195.5q-17 -10 -30.5 -2t9.5 29q123 108 225 212.5t174 239.5q-95 71 -224 151q-31 18 -23 53q15 63 48 223t64 348q-33 -2 -53 -3
q-55 -2 -90 -9l-35 -8q-20 -5 -31 10t-23 32q-12 15 6 17l234 10q18 118 31 232.5t16 207.5q1 40 37 28q39 -12 69.5 -27.5t57.5 -27.5q33 -16 2 -43q-8 -7 -28 -27q-15 -15 -16 -34q-4 -33 -19 -115.5t-35 -188.5l143 7q16 18 27.5 32t20.5 24q20 22 45 8q75 -51 112 -86
q14 -14 -3 -31q-6 -7 -20 -19t-23 -22q-14 -14 -15 -43q-25 -276 -61 -426.5t-91 -250.5v0v0zM1135 1706q-33 -23 -33 -61l-1 -339h443v401q-96 0 -203 -0.5t-206 -0.5zM1101 1258v-407h442l1 408q-107 0 -222.5 -0.5t-220.5 -0.5zM1101 803l-1 -499h442l1 500
q-108 0 -224 -0.5t-218 -0.5z" />
    <glyph glyph-name="aring" unicode="&#xe5;" 
d="M949 1548h322v209.5v135.5q0 35 7.5 38t31.5 -5q27 -10 60 -26.5t53 -25.5q25 -14 0 -39q-23 -23 -29.5 -36.5t-5.5 -53.5v-67v-130h177q25 0 46 18q9 8 27 26q40 40 86 2q12 -10 28 -24.5t28 -24.5q21 -18 26 -30.5t-34 -12.5q-43 0 -154 -1t-230 -1v-159.5v-179.5h279
q26 0 45 17q10 9 28 27q40 40 85 2q12 -11 28.5 -25t28.5 -24q50 -43 -8 -43q-37 0 -162.5 -1t-271.5 -1q51 -231 206 -404.5t281 -239.5q37 -21 25 -28.5t-30 -7.5q-58 -4 -110 -48q-28 -23 -57 7q-267 287 -360 721h-4h-3v-573.5v-346.5q0 -25 -2.5 -31t-28.5 -15
q-12 -5 -24.5 -11t-33.5 -12q-30 -10 -30 32q0 88 0.5 335t0.5 527q-52 -129 -158 -302t-270 -329q-3 -41 -19 -66q-29 -41 -59 -15q-3 2 -7 6q-28 -20 -33.5 -9.5t12.5 37.5q-18 27 -39 64.5t-69 84.5q-26 25 -51 47q-78 -114 -191.5 -222t-257.5 -194q-18 -10 -31.5 -2
t9.5 28q123 108 223.5 212.5t171.5 239.5q-83 64 -224 152q-32 18 -23 53q15 62 48 222t63 347q-46 -2 -52 -2q-66 -4 -90 -9l-35 -8q-21 -4 -31 11q-7 10 -23 32q-12 16 6 16l233 9q18 118 31.5 233t16.5 209q0 39 37 28q39 -12 69.5 -27.5t57.5 -27.5q33 -16 2 -43
q-5 -4 -28 -27q-15 -15 -17 -34q-4 -34 -18.5 -116.5t-35.5 -189.5l146 5q17 20 29.5 35t21.5 25q21 23 44 8q75 -50 113 -86q13 -15 -3 -32q-6 -6 -20.5 -18t-23.5 -22q-11 -11 -15 -43q-24 -276 -60 -427t-91 -251l-0.5 -1l-0.5 -1q53 -30 106 -65t80 -74q8 -13 13 -22
q89 118 198.5 293.5t169.5 361.5h-118.5h-82.5q-24 -1 -46.5 -2t-43.5 -4l-35 -6q-21 -4 -31 11q-12 18 -22 34q-11 16 7 16h447q0 89 0.5 175t0.5 164q-45 -1 -84 -1h-67q-61 0 -90 -5l-35 -7q-21 -3 -31 12q-14 22 -22 33q-11 16 7 16zM362 758q39 -19 79.5 -39t94.5 -49
q54 129 82 301t24 412q-45 -2 -86.5 -4t-77.5 -3q-31 -157 -66.5 -324t-60.5 -271q-4 -17 11 -23z" />
    <glyph glyph-name="bracketright" unicode="]" 
d="M1546 1382l2 -952q0 -51 -4.5 -103t-22.5 -76q-28 -35 -78 -60q-85 -44 -81 7q4 57 -69 94t-115 53q-36 12 -36 21t46 2q23 -4 58 -9t68 -6q60 -3 84.5 7t24.5 72l2 949h-120h-124q-109 -187 -265 -368q-24 -27 -34.5 -15.5t10.5 41.5q114 167 191 329q97 206 175 474
q9 32 22.5 29.5t23.5 -7.5q22 -12 52 -29.5t60 -32.5q43 -22 1 -40q-30 -14 -51 -41.5t-30 -44.5q-37 -70 -67 -130.5t-61 -117.5h462q25 0 45 17l27 27q41 40 86 2q12 -11 28.5 -25t28.5 -24q50 -43 -8 -43h-112h-219zM152 1013q81 118 147.5 225t123.5 220q44 87 84 183
t73 209q9 31 22.5 28.5t23.5 -6.5q21 -12 51.5 -29.5t60.5 -32.5q42 -22 1 -41q-30 -13 -52 -37t-31 -40q-80 -153 -144 -259h286q26 0 46 17l13 13l14 14q41 40 86 2q12 -11 28.5 -25t28.5 -24q48 -43 -8 -43q-28 0 -107 -0.5t-219 -0.5l-2 -1101q0 -37 -15 -47
q-27 -19 -79 -30q-28 -8 -28 28l1 1150q-48 0 -74 -1q-54 -85 -124.5 -175t-188.5 -219q-24 -27 -31.5 -18t13.5 40z" />
    <glyph glyph-name="guillemotleft" unicode="&#xab;" 
d="M544 847q0 34 30 21q10 -6 20 -10.5t20 -9.5q42 63 74.5 111.5t68.5 95.5q-76 0 -126.5 -0.5t-85.5 -0.5q-88 -93 -191.5 -182t-232.5 -176q-46 -19 -26 5.5l20 24.5q160 135 327 327q-13 0 -26 -0.5t-27 -0.5q-62 0 -91 -5l-35 -6q-21 -4 -31 11q-12 18 -22 34
q-11 16 7 16h266q83 98 148 186l-343 -1q-25 -1 -47 -2t-44 -4l-35 -6q-21 -4 -30 11q-6 8 -11.5 16.5t-10.5 17.5q-11 16 7 16h346v237l-99 -1q-50 0 -74 -4l-28 -6q-18 -3 -25 10q-5 6 -9.5 13t-8.5 14q-13 18 6 18h238v282q0 43 39 27q22 -10 62 -34t52 -30q19 -12 2 -33
q-18 -22 -33 -32.5t-15 -45.5v-134h38q25 0 33 6.5t26 24.5q34 32 70 1q9 -9 22.5 -20t23.5 -19q38 -35 -7 -35l-206 -2v-237h97q149 204 238 382q19 39 29 38t22 -14q19 -24 41.5 -50t31.5 -38q25 -34 -9 -40q-28 -6 -62 -50q-45 -60 -88.5 -117t-85.5 -111h66q25 0 45 17
l27 27q41 40 86 2q12 -11 28.5 -25t28.5 -24q20 -18 25.5 -30.5t-33.5 -12.5l-310 -1q-39 -48 -77.5 -95t-79.5 -92h148q30 28 55 48q22 17 41 1q16 -14 45.5 -44.5t41.5 -44.5q19 -24 -10 -33q-72 -22 -142.5 -82.5t-118.5 -117.5q4 -3 8.5 -5.5t9.5 -4.5q19 -13 2 -31
q-18 -21 -19 -78v-44q95 20 175.5 39t137.5 34q27 6 41.5 -4t-35.5 -28q-24 -9 -115 -38t-204 -65l-1 -307q0 -34 -13.5 -82t-73.5 -84q-45 -27 -56.5 -24t-17.5 27q-18 59 -61.5 85.5t-92.5 44.5q-31 10 -29.5 22t32.5 6q32 -6 69 -12.5t73 -7.5q33 -2 48.5 14t15.5 71v212
q-184 -60 -297 -99q-43 -16 -61 13q-10 14 -23.5 36t-15.5 33q-3 9 -5.5 18t28.5 13q94 11 189 26.5t185 33.5v204zM923 129q-50 -24 -57.5 -8t40.5 47q106 70 223.5 170t209.5 236q16 21 32 49q-72 135 -120 296t-53 339q-56 -134 -163 -309q-19 -31 -33.5 -24.5t0.5 40.5
q108 232 166 453.5t71 485.5q1 33 11.5 34.5t20.5 -1.5q26 -11 73 -36.5l47 -25.5l11 -10.5t-1 -22.5t-30.5 -36t-22.5 -42q-22 -84 -39.5 -153t-34.5 -129h376q27 0 45 18q10 8 28 26q40 40 86 2q12 -11 28 -25t28 -24q21 -18 26 -30.5t-34 -12.5l-181 -1
q-24 -262 -57 -451t-102 -323q-8 -16 -26 -48q87 -129 197 -217.5t235 -115.5q45 -10 31.5 -21t-32.5 -12q-77 -7 -115 -52q-27 -31 -55 -13q-78 48 -162.5 134.5t-159.5 205.5q-177 -238 -507 -393zM1424 720q32 70 51 142q55 218 75 573l-290 -1q-9 -31 -23 -71
q34 -360 172 -617q3 -7 7 -13.5t8 -12.5z" />
    <glyph glyph-name="udieresis" unicode="&#xfc;" 
d="M167 598h393l1 889q0 23 27 14q41 -17 106 -48h204q1 27 3.5 75.5t5.5 104.5q-168 0 -301 -0.5t-177 -0.5q-61 0 -90 -5l-35 -7q-21 -3 -31 12q-11 17 -22 33t7 16h652q3 63 5.5 118t3.5 81q1 33 13 33.5t23 -2.5q25 -11 58.5 -24.5t57.5 -25.5q32 -17 8 -36
q-33 -27 -44 -79q-3 -19 -11 -65h535q24 0 45 18q7 6 13.5 13t13.5 13q41 40 86 3q12 -11 28.5 -25t28.5 -24q20 -18 25.5 -30.5t-33.5 -12.5q-40 0 -269 -1t-480 -1q-9 -50 -17.5 -101.5t-13.5 -79.5h328q11 11 26.5 28t29.5 31q11 12 34 -1q20 -13 46 -32t41 -30
q29 -25 3 -45q-39 -29 -37 -70l2 -736h194q25 0 45 17l27 27q41 40 86 2q12 -11 28.5 -25t28.5 -24q50 -43 -8 -43q-36 0 -257 -0.5t-482.5 -1.5t-493 -1.5t-288.5 -0.5q-62 0 -91 -5l-35 -6q-21 -4 -31 11q-20 30 -22 34q-10 16 7 16zM1123 485q157 -21 343.5 -71.5
t210.5 -126.5q15 -51 7.5 -85t-17.5 -45q-30 -28 -76 25q-27 30 -108.5 103t-369.5 171q-36 12 -26 22t36 7zM178 163q165 77 293.5 151.5t258.5 163.5q36 24 61 7q21 -16 41.5 -30.5t44.5 -32.5q34 -27 -16 -35q-39 -6 -74.5 -22t-69.5 -34q-85 -45 -234.5 -99t-287.5 -97
q-21 -6 -31 5t14 23zM675 598h664q0 38 -0.5 82t-0.5 91q-174 0 -345.5 -0.5t-317.5 -0.5v-172zM675 819h663v82.5v84.5q-174 0 -345 -0.5t-318 -0.5v-166zM675 1033h662v85v82q-174 0 -344.5 -0.5t-316.5 -0.5zM676 1248h661q0 45 -0.5 84.5t-0.5 72.5q-166 0 -330 -0.5
t-305 -0.5q-25 -23 -25 -74v-82z" />
    <glyph glyph-name="uacute" unicode="&#xfa;" 
d="M915 1034q-42 1 -58.5 53t-69.5 105q-11 10 -35.5 32t-69.5 45q-2 2 -8 4q-5 -12 -17 -36q-72 -137 -179 -221t-219 -144q-36 -20 -44.5 -11t27.5 37q52 41 157.5 132t175.5 268q21 52 36 110q-63 0 -116 -0.5t-89 -0.5q-62 0 -91 -5l-35 -6q-21 -4 -30 11
q-6 8 -11.5 16.5t-11.5 17.5q-11 16 7 16h387q21 108 21 243q-45 0 -87.5 -0.5t-81.5 -0.5q-34 -46 -72 -97.5t-64 -82.5q-13 -15 -34.5 -16t2.5 37q51 87 83.5 159t43.5 99q10 26 14.5 48t7.5 39q3 18 7 27t28 3q27 -8 47 -17.5t44 -21.5q32 -18 2 -35q-15 -9 -44 -50
q-2 -3 -31 -43h327q26 0 46 18q9 8 27 26q41 40 86 2q12 -10 28.5 -24.5t28.5 -24.5q20 -18 25.5 -30.5t-33.5 -12.5q-32 0 -110 -0.5t-174 -0.5q-2 -131 -25 -244h130q26 0 46 17l13 13t14 13q41 40 86 3q12 -11 28.5 -25t28.5 -25q20 -18 25.5 -30t-33.5 -12
q-40 0 -139 -1t-210 -1q-16 -57 -34 -104q15 -3 21 -4q51 -12 156 -62q50 -24 88 -63.5t20 -93.5q-16 -51 -58 -48zM731 345h706v258q-186 -1 -369 -1.5t-336 -0.5zM1437 298q-186 0 -369.5 -0.5t-336.5 -0.5l-1 -88q0 -37 -15 -47q-31 -22 -71 -30q-28 -8 -28 28l1 806
q0 33 27 21q18 -9 49 -21t59 -24h647q18 21 28.5 35.5t21.5 27.5q17 21 46 2q57 -37 102 -70q18 -16 0 -34q-38 -36 -38 -78l-1 -604q0 -26 -14 -35q-12 -8 -39 -18.5t-41 -14.5q-27 -9 -27 15v130zM732 650h705v244q-180 0 -357.5 -0.5t-328.5 -0.5q-19 -23 -19 -68v-175z
M1261 1698h381q17 21 31.5 38.5t23.5 29.5q18 22 43 3q27 -21 46 -39t40 -35q16 -15 -1 -30q-45 -44 -45 -77l-2 -414q0 -24 -12 -31q-10 -7 -34 -16.5t-36 -12.5q-24 -8 -24 13v84q-114 0 -225.5 -0.5t-208.5 -0.5v-45q0 -36 -14 -45q-28 -19 -67 -28q-26 -7 -26 26l1 619
q0 36 28 19q18 -11 46 -27t55 -31zM1672 1650q-109 0 -216 -0.5t-201 -0.5q-15 -20 -15 -60l-1 -331h433v392z" />
    <glyph glyph-name="atilde" unicode="&#xe3;" 
d="M166 1445l234 10q18 118 31 232.5t16 207.5q1 40 38 28q39 -12 69.5 -27t57.5 -27q34 -17 2 -43l-28 -28q-15 -15 -17 -33q-4 -34 -18.5 -116.5t-35.5 -188.5l144 7q42 50 48 56q20 22 44 8q72 -48 112 -86q15 -14 -2 -31q-6 -7 -20.5 -19t-23.5 -22q-11 -11 -15 -43
q-24 -276 -60 -427t-91 -251v0v0q54 -31 108.5 -66t81.5 -75q35 -54 26.5 -98.5t-17.5 -59.5q-30 -42 -59 -16q-32 26 -51 73t-85 111q-13 12 -26 24.5t-28 25.5q-78 -115 -192 -224t-260 -195q-17 -11 -30.5 -2.5t9.5 28.5q123 108 225 212.5t174 240.5q-42 31 -97 68
t-127 82q-32 19 -22 54q14 62 47.5 222.5t63.5 348.5q-35 -2 -52 -3q-68 -5 -91 -9l-34 -8q-21 -5 -31 10q-16 22 -24 32q-11 15 6 17zM1234 1926q47 -18 111.5 -57t88.5 -85q18 -37 8 -76.5t-21 -51.5q-53 -60 -85 6q-13 26 -16.5 58.5t-28.5 77.5q-17 30 -31 51t-44 54
q-12 12 -4.5 20.5t22.5 2.5zM1410 1521v-8.5v-9.5v-83.5v-164.5h236q13 16 25.5 30t27.5 32q15 17 34 3q19 -16 52.5 -45t47.5 -42q18 -18 3 -35q-15 -15 -30.5 -28t-15.5 -40v-474q0 -85 -9 -139t-87 -81q-91 -31 -99 7q-10 48 -35.5 70t-70.5 43t-34.5 30t45.5 -2
q33 -11 100 -17t66 67l-1 577h-255q0 -133 -0.5 -293.5t-0.5 -306.5v-258v-147q0 -45 -26 -58q-46 -24 -61 -27q-31 -7 -31 35q0 102 0.5 431.5t1.5 623.5h-217q-29 -26 -29 -74v-627q0 -29 -23 -42q-30 -18 -65 -27q-24 -6 -24 31l1 813q0 39 31 25q41 -19 117 -55h209
v145.5v120.5q-87 -1 -157.5 -1h-107.5q-61 0 -90 -5l-35 -7q-21 -3 -31 12q-18 26 -22 33q-11 16 7 16h834q25 0 46 18q9 8 27 26q41 40 86 2q12 -10 28.5 -24.5t28.5 -24.5q20 -18 25.5 -30t-33.5 -12q-42 0 -186.5 -1.5t-302.5 -1.5zM562 702q56 130 85 303t25 414
q-45 -3 -87 -4.5t-79 -3.5q-32 -158 -68 -325.5t-60 -272.5q-4 -18 11 -23q39 -19 79 -39t94 -49z" />
    <glyph glyph-name="germandbls" unicode="&#xdf;" 
d="M1583 1797q11 12 25.5 29.5t26.5 29.5q15 17 32 1t39.5 -33t47.5 -47q28 -32 2 -48q-18 -12 -29 -21t-11 -38q-4 -297 -2 -613t5 -613v-92t-27 -85q-24 -33 -80 -60q-62 -30 -79.5 -28t-14.5 35q3 48 -67.5 84t-116.5 51q-51 15 -57.5 26.5t45.5 4.5q60 -11 120 -17
q48 -6 99 -3t53 73q3 196 4.5 377.5t1.5 360.5q-89 0 -187 -0.5t-187 -0.5v-31q0 -37 -16 -48q-31 -24 -58 -30q-28 -7 -28 28l1 761q0 30 27 14q18 -10 51 -29.5t64 -37.5h316zM392 1218h367v255q-88 -1 -184 -1.5t-183 -0.5v-253zM759 1171q-90 0 -186.5 -0.5t-180.5 -0.5
l-1 -868q0 -36 -16 -47q-28 -21 -70 -30q-29 -8 -29 28l2 1597q0 30 26 14q18 -10 54.5 -29.5t70.5 -37.5h301q26 24 56 54q21 22 45 1q42 -42 81 -85q17 -19 1 -34q-42 -38 -42 -77l-2 -519q0 -28 -14 -36q-29 -21 -69 -33q-27 -9 -27 15v88zM1600 1218q0 63 -1 126.5
t-1 128.5q-86 -1 -183.5 -1.5t-187.5 -0.5l-1 -253h374zM392 1519h367v231q-78 0 -162 -0.5t-161 -0.5q-3 -3 -5 -4.5t-4 -3.5q-35 -29 -35 -76v-146zM1598 1519q-1 57 -1.5 114t-0.5 117q-77 0 -161 -0.5t-163 -0.5q-4 -2 -10 -8q-34 -29 -34 -76l-1 -146h371z" />
    <glyph glyph-name="ocircumflex" unicode="&#xf4;" 
d="M163 1393q62 -16 144 -57q59 -30 92 -78.5t4 -108.5q-21 -45 -52 -45q-33 1 -44 43q-9 32 -20.5 64.5t-68.5 91.5q-42 41 -72 63q-18 12 -11 22t28 5zM944 607h613q0 42 -0.5 85.5t-0.5 87.5q-161 -1 -319.5 -1.5t-292.5 -0.5v-171zM1557 560q-162 -1 -321 -1.5
t-293 -0.5l-1 -331q0 -38 -15 -47q-33 -23 -66 -30q-28 -8 -28 28l1 892q0 26 27 14q55 -22 107 -48h562q11 11 27.5 29t31.5 33q11 12 34 -1q48 -31 87 -63q30 -25 3 -44q-18 -13 -33 -27.5t-15 -42.5l3 -537q0 -99 -16.5 -144t-79.5 -75t-76.5 -31t-25.5 31
q-19 46 -74.5 73.5t-101.5 42.5q-50 15 -57 26t45 4q56 -9 166 -19t110 81q0 46 -0.5 93t-0.5 95zM944 827h612q0 40 -0.5 80.5t-0.5 80.5q-154 0 -305.5 -0.5t-281.5 -0.5q-24 -23 -24 -74v-86zM1205 1886q-2 37 35 23q53 -21 73 -31t41 -19q30 -17 4 -42q-41 -37 -41 -92
v-35h269q26 0 45 17q10 9 28 27q41 41 85 2q12 -11 28.5 -25t28.5 -24q50 -43 -8 -43q-39 0 -179 -1t-297 -1v-184h189q26 0 46 18q9 8 27 26q41 40 86 2q12 -10 28.5 -24.5t28.5 -24.5q20 -18 25.5 -30t-33.5 -12q-42 -1 -156 -2t-240 -1v-192h355q26 0 46 17l13 13l14 14
q41 39 86 2q12 -11 28 -25t29 -24q20 -18 25.5 -30.5t-33.5 -12.5q-36 0 -178.5 -0.5t-310.5 -1.5t-321 -1.5t-210 -0.5q-61 0 -91 -5l-35 -6q-21 -4 -30 11q-6 8 -11.5 16.5t-10.5 17.5q-11 16 7 16h516l-1 192q-64 -1 -118.5 -1h-88.5q-61 0 -91 -6l-35 -6q-21 -3 -30 12
q-6 8 -11.5 16t-10.5 17q-11 16 7 16h378v184q-100 -1 -182 -1.5t-123 -0.5q-61 0 -90 -5l-35 -6q-21 -4 -31 11q-6 8 -11.5 16.5t-10.5 17.5q-11 16 7 16h476v196zM316 1804q66 -19 149 -60q62 -31 100 -74.5t8 -105.5q-20 -42 -56 -40q-31 1 -46 45q-23 66 -98 141
q-50 48 -75 65q-19 12 -11 23t29 6zM642 1492q21 72 41.5 74.5t-2.5 -78.5q-13 -45 -42.5 -147t-62.5 -216t-62.5 -216t-41.5 -145q-7 -27 -17.5 -69t-10.5 -78q0 -29 2.5 -120t5.5 -158q1 -41 -1 -103.5t-73 -47.5q-62 12 -72 84q-9 64 9.5 136t22.5 138q0 14 -6 38.5
t-30 41.5q-25 17 -60 35.5t-72 27.5q-39 7 -36 19q1 11 30 8q67 -6 128 -7q18 0 35.5 3.5t35.5 40.5q115 241 176 420t103 319z" />
    <glyph glyph-name="Delta" unicode="&#x2206;" 
d="M160 241h1409q25 0 46 18q9 8 27 26q41 41 86 2q12 -10 28 -24.5t29 -24.5q20 -18 25 -30.5t-34 -12.5q-36 0 -244.5 -0.5t-456 -1.5t-467.5 -1h-277q-61 0 -91 -5l-35 -7q-21 -3 -30 12q-6 8 -11.5 16t-10.5 17q-11 16 7 16zM1538 1425q70 87 128 165q-327 -1 -649 -1
h-587q0 -30 -2 -47q-11 -98 -53 -140q-87 -87 -161 -45.5t1 86.5q107 65 142 139q15 35 23 110q2 18 14 17t19 -22q9 -34 12 -50h609q-22 21 -31 62q-14 57 -43.5 87.5t-62.5 57.5q-15 12 -10.5 20t19.5 6q57 -7 155 -43t99 -111q0 -50 -45 -79h529q25 21 41.5 35.5
t21.5 18.5q25 21 52 1q23 -19 66 -53.5t66 -53.5q32 -29 -10 -30q-37 -2 -82 -12.5t-93 -40.5q-31 -20 -63.5 -41t-71.5 -47q-27 -17 -39 -13.5t6 24.5zM675 511h653v243q-171 -1 -339.5 -1h-312.5zM1328 463q-172 0 -340.5 -0.5t-312.5 -0.5v-38q-2 -38 -16 -48
q-31 -22 -71 -30q-28 -7 -28 28l1 769q0 36 27 20q30 -18 65.5 -43t66.5 -45h562q43 64 58 82q19 25 42 5q29 -24 53.5 -44t41.5 -36q16 -18 0 -33q-21 -19 -29 -29.5t-8 -39.5l-2 -540q0 -27 -14 -36q-37 -24 -69 -32q-27 -9 -27 15v76zM676 801h652v227q-167 -1 -331 -1.5
t-305 -0.5q-16 -21 -16 -63v-162zM437 1351h877q26 0 45 17q10 9 28 27q41 41 86 2q12 -11 28 -25t28 -24q50 -43 -8 -43q-36 0 -161.5 -0.5t-273.5 -1.5t-284.5 -1h-193.5q-61 0 -90 -6l-36 -6q-21 -4 -30 12q-11 15 -22 33q-11 16 7 16z" />
    <glyph glyph-name="Delta" unicode="&#x394;" 
d="M160 241h1409q25 0 46 18q9 8 27 26q41 41 86 2q12 -10 28 -24.5t29 -24.5q20 -18 25 -30.5t-34 -12.5q-36 0 -244.5 -0.5t-456 -1.5t-467.5 -1h-277q-61 0 -91 -5l-35 -7q-21 -3 -30 12q-6 8 -11.5 16t-10.5 17q-11 16 7 16zM1538 1425q70 87 128 165q-327 -1 -649 -1
h-587q0 -30 -2 -47q-11 -98 -53 -140q-87 -87 -161 -45.5t1 86.5q107 65 142 139q15 35 23 110q2 18 14 17t19 -22q9 -34 12 -50h609q-22 21 -31 62q-14 57 -43.5 87.5t-62.5 57.5q-15 12 -10.5 20t19.5 6q57 -7 155 -43t99 -111q0 -50 -45 -79h529q25 21 41.5 35.5
t21.5 18.5q25 21 52 1q23 -19 66 -53.5t66 -53.5q32 -29 -10 -30q-37 -2 -82 -12.5t-93 -40.5q-31 -20 -63.5 -41t-71.5 -47q-27 -17 -39 -13.5t6 24.5zM675 511h653v243q-171 -1 -339.5 -1h-312.5zM1328 463q-172 0 -340.5 -0.5t-312.5 -0.5v-38q-2 -38 -16 -48
q-31 -22 -71 -30q-28 -7 -28 28l1 769q0 36 27 20q30 -18 65.5 -43t66.5 -45h562q43 64 58 82q19 25 42 5q29 -24 53.5 -44t41.5 -36q16 -18 0 -33q-21 -19 -29 -29.5t-8 -39.5l-2 -540q0 -27 -14 -36q-37 -24 -69 -32q-27 -9 -27 15v76zM676 801h652v227q-167 -1 -331 -1.5
t-305 -0.5q-16 -21 -16 -63v-162zM437 1351h877q26 0 45 17q10 9 28 27q41 41 86 2q12 -11 28 -25t28 -24q50 -43 -8 -43q-36 0 -161.5 -0.5t-273.5 -1.5t-284.5 -1h-193.5q-61 0 -90 -6l-36 -6q-21 -4 -30 12q-11 15 -22 33q-11 16 7 16z" />
    <glyph glyph-name="registered" unicode="&#xae;" 
d="M193 1229h735l1 659q0 36 7 38.5t18 -0.5q22 -9 69 -35t62 -33q27 -13 8 -40t-26.5 -41.5t-7.5 -54.5l-1 -493h74q91 119 196 307.5t108 203.5q9 43 52 25q12 -6 62 -32.5t60 -41.5q21 -32 -8 -40q-18 -5 -53.5 -22.5t-59.5 -53.5q-23 -34 -143.5 -170.5t-154.5 -175.5
h421q26 0 46 17l13 13l14 14q41 40 86 2q12 -11 28 -25t29 -24q20 -18 25 -30.5t-34 -12.5q-35 0 -234.5 -1t-440.5 -1q105 -225 291.5 -405t408.5 -256q55 -20 31.5 -29t-41.5 -11q-40 -6 -66 -14.5t-59 -42.5q-28 -29 -55 -8q-167 120 -315 306t-247 460h-17h-17v-956
q0 -36 -30 -56q-10 -7 -30 -23t-41 -23q-30 -10 -30 32l1 922q-123 -194 -333 -408.5t-381 -307.5q-33 -19 -44 -10t22 35q217 168 370 368t270 427q-169 -1 -298 -1.5t-170 -0.5q-62 0 -91 -5l-35 -6q-21 -4 -30 11q-8 12 -22 34q-12 16 7 16zM407 1718q25 -16 132.5 -83
t152.5 -127q62 -84 9 -159q-30 -42 -64 -43t-41 34q-30 134 -111 240t-98 120q-27 19 -11 23t31 -5z" />
    <glyph glyph-name="florin" unicode="&#x192;" 
d="M658 1804h664q26 0 46 17l27 27q41 39 86 2q12 -11 28 -25t28 -24q50 -43 -8 -43q-39 0 -298 -1t-547 -1q-2 -1 -6 -5q-25 -24 -25 -68v-118h541q25 0 45 18q7 6 14 13t14 13q40 40 85 3q12 -11 28.5 -25t28.5 -25q20 -18 25.5 -30t-33.5 -12q-36 0 -260 -1t-488 -1v-203
h541q26 0 45 17q10 9 28 27q39 39 85 2q12 -11 28.5 -25t28.5 -24q20 -18 25.5 -30.5t-33.5 -12.5q-36 0 -259.5 -0.5t-488.5 -0.5v-222h964q26 0 46 17l13 13l14 14q41 39 86 2q12 -11 28 -25t28 -24q50 -43 -8 -43q-42 0 -322 -1t-575 -1q90 -197 216 -315
q105 84 195.5 164.5t102.5 93.5q21 25 51 4q54 -40 96 -87q20 -23 -20 -29q-27 -6 -53.5 -10.5t-78.5 -28.5q-32 -15 -108 -59.5t-144 -84.5q50 -42 107 -74q252 -152 576 -187q61 -8 42.5 -20t-44.5 -15q-31 -5 -70 -19t-69 -51q-23 -27 -53 -16q-316 99 -506 270t-307 464
h-107h-100l1 -524v-3.5v-2.5q93 30 167 56t181 63q32 10 40 -4.5t-18 -29.5q-51 -32 -234.5 -120t-363.5 -191q-21 -12 -41 -26t-41 -26q-37 -24 -67 11q-12 12 -28 38.5t-24 41.5q-23 40 19 56q30 10 61 19t58 18q48 15 90 28.5t79 25.5v569h-133h-78q-62 0 -91 -5l-35 -7
q-21 -3 -30 12q-6 8 -11.5 16t-10.5 17q-11 16 7 16h382l1 789q0 25 27 15q21 -10 47.5 -22.5t50.5 -23.5z" />
    <glyph glyph-name="approxequal" unicode="&#x2248;" 
d="M823 406q0 -63 19 -93t87 -30h563q69 0 93 31t39 78q8 27 16.5 95t14.5 121q3 36 18.5 35t15.5 -40q-2 -81 14 -158.5t46 -104.5q17 -15 22 -24.5t-11 -39.5q-15 -29 -57.5 -65.5t-129.5 -36.5l-678 -4q-111 -1 -155.5 31t-44.5 158v329q-262 -205 -521 -342
q-30 -19 -31 -0.5t25 35.5q286 194 527 414v74q0 41 34 29q21 -8 50 -22q22 21 65 64q83 85 160 169q-233 0 -424.5 -0.5t-242.5 -0.5q-24 -1 -46.5 -2t-43.5 -4l-36 -6q-20 -4 -30 11q-6 8 -11.5 16.5t-10.5 17.5q-11 16 7 16h673v294l-304 -1q-58 0 -86 -5l-34 -6
q-21 -4 -30 11q-5 8 -10.5 15.5t-10.5 16.5q-10 15 7 15h468v347q0 42 38 27q24 -9 61 -25t62 -28q21 -12 2 -35q-18 -21 -28.5 -33t-10.5 -46v-207h108q24 0 44 17l12.5 12.5t13.5 12.5q39 39 82 3q27 -23 55 -48q15 -13 21 -20q48 66 94 131.5t92 131.5q20 28 32.5 24.5
t25.5 -15.5q30 -30 55 -60t47 -55q7 -10 11 -20.5t-27 -13.5q-10 -1 -36 -7t-43 -29q-163 -214 -343 -404h457q25 0 45 17l27 27q41 39 86 2q12 -11 28.5 -25t28.5 -24q20 -18 25.5 -30.5t-33.5 -12.5q-35 0 -245 -0.5t-464 -0.5q-150 -154 -296 -281q6 -3 16 -9
q28 -17 0 -40q-32 -25 -45.5 -40t-13.5 -51v-136q123 65 290 148.5t267 171.5q26 23 44 8q52 -53 87 -105q21 -29 -12 -29q-65 0 -130 -29q-48 -21 -245.5 -94t-300.5 -116v-102zM963 1157h83q72 82 132 157q56 70 107 140q-3 0 -7 -0.5t-8 -0.5l-307 -1v-295z" />
    <glyph glyph-name="period" unicode="." 
d="M1311 1609q61 81 95 147t58 118q22 45 32 39q9 -6 51 -32t51 -33q28 -27 0 -40q-60 -30 -114 -82t-114 -117h305q26 0 46 17l13 13l14 14q40 40 85 2q12 -11 28.5 -25t28.5 -24q50 -43 -8 -43q-41 0 -208.5 -1t-351.5 -1q-28 -30 -70.5 -87t-62.5 -89h333q10 15 25.5 35
t20.5 27q17 25 35 12q14 -11 56.5 -46t49.5 -42q14 -17 4 -27q-10 -9 -21.5 -16t-14.5 -10q-3 -5 -8 -8.5t-5 -17.5q0 -15 -0.5 -128.5t-0.5 -246v-244.5v-122q0 -33 -11 -41q-12 -10 -40 -19.5t-37 -10.5q-25 -4 -23 29q1 6 1 100h-531v-55.5v-27.5q-2 -42 -16 -52
q-28 -17 -74 -26q-27 -7 -27 27v150.5v317v318.5t1 156q0 23 21 17q3 -2 21.5 -10t31.5 -13q6 -3 55 -26h100q9 24 23.5 79t20.5 97q-101 -1 -180.5 -1h-116.5q-61 0 -90 -6l-36 -6q-21 -3 -30 12q-6 8 -11.5 16t-10.5 17q-11 16 7 16h366q-24 13 -24 57q0 56 -14 83
q-10 16 -34 56.5t-38 52.5q-17 13 -16.5 21.5t27.5 -0.5q44 -15 120.5 -64t78.5 -102q1 -60 -33 -92q-8 -8 -18 -12h185zM562 456q18 -20 56 -50t98 -61q37 -20 95.5 -34.5t119.5 -14.5q30 -1 164 -1.5t288 -1t285 -1t156 0.5q93 2 93 -10q1 -11 -36 -17q-52 -9 -76 -36
t-32 -46q-9 -19 -12 -35t-37 -16q-9 0 -44 2.5t-84 4.5q-149 3 -358.5 15t-246.5 13q-150 3 -272 68q-61 32 -128.5 98.5t-88.5 98.5q-36 -10 -75 -37t-75 -57q-47 -39 -82.5 -73t-39.5 -37q-15 -14 -26 3q-6 9 -35 42.5t-35 42.5q-9 12 28 33q36 21 130 61t167 57
q0 12 1.5 25t1.5 20v86.5t0.5 183.5t1 196t1.5 125h-78h-54q-25 -1 -47.5 -2t-43.5 -4l-35 -6q-21 -3 -30 11q-8 12 -22 34q-11 16 7 16h269q20 28 38 50t22 28q19 29 41 5q15 -18 46.5 -56t39.5 -45q20 -21 6 -35q-9 -9 -24.5 -21t-19.5 -18q-5 -6 -9.5 -8t-4.5 -17
q-1 -91 -2.5 -303.5t-1.5 -276.5zM1552 1340h-507q0 -1 -0.5 -1.5l-0.5 -0.5q-22 -26 -21 -42q1 -6 1 -151h529q0 70 -0.5 122.5t-0.5 72.5zM1553 1099h-529q0 -45 -0.5 -94.5t-0.5 -99.5h530v98.5v95.5zM1553 859h-530v-109v-96h530v96.5v108.5zM332 1852q15 -8 68.5 -32
t97.5 -57q62 -49 89 -111t-28 -134q-43 -56 -72 0q-10 18 -13 50.5t-21 71.5q-27 56 -65 108q-44 56 -73 86q-14 12 -4 17t21 1z" />
    <glyph glyph-name="slash" unicode="/" 
d="M1160 1885q0 43 34 30q5 -3 24 -9.5t43 -15.5q2 11 2 1v-1v-1q66 -26 72 -28q10 -6 20.5 -20t-9.5 -26q-18 -12 -37 -24.5t-19 -40.5v-106q24 -106 51 -207t57 -194q68 62 156 159.5t144 178.5q26 39 43 23q7 -8 45.5 -44.5t46.5 -45.5q24 -29 -11 -38q-57 -15 -96 -47
t-87 -63q-63 -42 -123.5 -85.5t-105.5 -73.5q59 -178 123 -301q134 -259 386 -396q44 -25 24.5 -30.5t-37.5 -2.5q-30 4 -66 1t-72 -33q-33 -28 -55 -3q-84 87 -152.5 198.5t-111.5 222.5q-54 138 -92.5 284.5t-65.5 295.5l1 -1029q0 -43 0.5 -91t-26.5 -85
q-9 -12 -32 -40.5t-59 -46.5q-30 -16 -45.5 -20t-20.5 35q-7 61 -84 107q-29 17 -59.5 29.5t-50.5 20.5q-37 13 -38 21.5t46 2.5q21 -3 61 -9.5t73 -9.5q46 -5 75 8t30 67q7 364 4.5 741.5t-6.5 740.5zM924 1343q15 17 32.5 38l22.5 27q17 18 34 10q14 -8 57.5 -51.5
l43.5 -43.5l5 -7t-5 -18q-20 -20 -36 -29t-25 -41q-29 -107 -61 -216t-84 -220q-49 -105 -124 -209t-194 -208q-41 -36 -47 -24t27 49q56 60 125 172t128 258q42 104 73 221.5t45 243.5q-70 0 -86.5 -0.5t-47.5 -0.5q-61 0 -90 -5l-35 -6q-22 -4 -31 11q-20 30 -22 34
q-11 15 7 15h288zM610 1561q21 71 42 73.5t-3 -78.5q-13 -44 -44 -144t-66 -210.5t-67 -209.5t-46 -141q-15 -42 -18 -75t-3 -69q0 -29 15 -140.5t18 -179.5q2 -40 0 -100.5t-73 -49.5q-32 4 -65.5 17t-24.5 95q7 64 16 134t11 137q1 68 -39 96q-25 17 -63 36t-75 28
q-24 5 -24.5 16.5t32.5 11.5q22 -1 36 -1h50q17 0 46.5 11t48.5 47q123 236 188.5 396t107.5 300zM231 1721q25 -12 64 -30t86 -54q83 -64 92 -133.5t-15.5 -113.5t-63.5 -47.5t-52 64.5q-27 143 -67 201q-20 28 -29.5 40t-38.5 45q-17 18 -7 27.5t31 0.5z" />
    <glyph glyph-name="copyright" unicode="&#xa9;" 
d="M690 1257h643q12 15 28 36.5t20 26.5q15 20 31 12q12 -7 56 -41.5t53 -41.5q17 -16 1 -30q-9 -8 -30 -27.5l-21 -19.5q-11 -13 -11 -35l-1 -392q0 -27 -14 -36q-33 -21 -77 -35q-27 -9 -27 15v30h-680v-446q83 24 248.5 70t184.5 51q32 7 35 2q13 -21 -12 -32
q-114 -50 -293 -140t-230 -123q-36 -24 -48 -6q-9 11 -34.5 56.5t-31.5 55.5q-13 26 9 38q9 4 22.5 11t27.5 14l1 1054q-93 -64 -190.5 -114t-186.5 -75q-18 -6 -25 1t12 19q204 123 380 263t320 341q27 39 52 81t51 88q22 42 39 30q9 -6 57.5 -38t57.5 -39q26 -25 -7 -37
q-35 -13 -45 -20q228 -349 818 -493q57 -15 34.5 -25t-41.5 -13q-68 -14 -103 -63q-22 -29 -55 -16q-122 47 -339 191.5t-343 390.5q-2 -2 -18 -23q-38 -54 -116.5 -142t-181.5 -177q-76 -64 -145 -113q12 -8 52 -35.5t73 -48.5zM661 764h680v452h-652q-3 -3 -5 -4
q-24 -26 -24 -68v-135h681v-45h-681zM1246 489q88 57 152.5 105.5t110.5 105.5q27 34 45 11q5 -9 34 -50t35 -50q12 -27 -27 -25q-46 0 -123 -37.5t-164 -82.5q110 -42 202 -86t132 -86q48 -54 46 -95.5t-11 -61.5q-8 -17 -21.5 -32.5t-39.5 0.5q-42 24 -58.5 61t-121.5 109
q-73 49 -242.5 145t-361.5 168q-25 9 -20.5 21.5t26.5 8.5q54 -11 168 -47.5t239 -81.5zM924 1562q47 -18 104.5 -54t63.5 -89q4 -45 -6.5 -70.5t-19.5 -38.5q-29 -43 -62 4q-16 22 -18.5 63t-29.5 86q-25 39 -40 54.5t-23 24.5q-17 18 -2 22t33 -2z" />
    <glyph glyph-name="bar" unicode="|" 
d="M398 1733l7.5 -30t7.5 -41h611q-24 23 -31 47q-14 41 -12.5 61t-32.5 66q-20 25 -40.5 43t-26.5 22q-16 10 -10.5 16t20.5 5q24 -2 66.5 -12.5t92.5 -34.5q95 -48 95 -114q0 -56 -48 -99h523q15 13 30.5 28.5t26.5 25.5q15 12 28.5 25t34.5 -2q20 -16 70.5 -64t59.5 -54
q8 -7 8 -18t-20 -11q-63 -4 -131 -45t-166 -118q-25 -19 -37.5 -15t2.5 27q24 36 58.5 87.5t60.5 93.5h-1228q1 -15 -1 -47q-9 -117 -45 -157q-34 -39 -57.5 -48.5t-56.5 -12.5q-14 -3 -40 3.5t-40 25.5q-14 18 -4 41.5t28 33.5q45 27 89 71.5t63 98.5q10 30 12 65t4 42
q2 18 14 11.5t15 -16.5zM860 1198q139 -104 210 -260q88 39 226.5 164t174.5 176q25 35 47 14q12 -14 48 -48t48 -53q17 -30 -8 -31q-12 -1 -39 -2.5t-54 -19.5q-20 -14 -109 -67t-182 -102q48 -188 201 -329.5t375 -204.5q56 -16 34 -26.5t-40 -13.5q-40 -9 -65 -20.5
t-55 -47.5q-25 -32 -53 -13q-164 105 -272 257t-167 376q-66 -33 -96 -44q39 -105 54 -234q19 -185 -24 -319q-48 -151 -204 -215q-33 -14 -38 -8t-9 32q-7 46 -59 84t-98 56q-33 12 -34 24.5t36 3.5q20 -6 77 -19.5t110 -13.5q48 -1 67 13t36 56q33 81 33 178t-9 196
q-101 -108 -299.5 -256t-465.5 -224q-34 -10 -45 -1.5t29 26.5q231 102 433.5 263t325.5 350q-16 58 -47 117q-90 -102 -247 -222.5t-390 -208.5q-33 -13 -44.5 -4.5t28.5 29.5q147 74 270 170q102 80 187 172t127 165q-20 25 -54 59q-96 -80 -227.5 -158.5t-302.5 -136.5
q-33 -12 -44.5 -3.5t28.5 28.5q162 80 332 209t252 243q-74 0 -134 -0.5t-94 -0.5q-62 0 -91 -5l-35 -7q-21 -3 -30 12q-6 8 -11.5 16t-10.5 17q-11 16 7 16h789q26 0 46 17l13 13l14 14q41 41 86 2q12 -11 28 -25t28 -24q21 -18 26 -30.5t-34 -12.5q-40 0 -173.5 -0.5
t-280.5 -0.5q-64 -80 -151 -157z" />
    <glyph glyph-name="trademark" unicode="&#x2122;" 
d="M328 839l620 3v132t1 132q0 26 28 22q27 -6 55 -14t45 -13q21 -6 5 -26q-10 -12 -15 -19t-5 -34v-180l362 2q26 0 45 17q7 6 14 13t14 13q40 40 85 3q12 -11 28.5 -25t28.5 -24q20 -18 25.5 -30.5t-33.5 -12.5q-37 0 -205.5 -1.5t-363.5 -2.5v-421q0 -44 -2.5 -87
t-25.5 -73q-25 -35 -78 -69q-68 -42 -78 11q-11 47 -63.5 83.5t-111.5 48.5q-51 9 -55 22.5t50 8.5q37 -4 74.5 -9t64.5 -5q63 -1 86 8t23 79q0 100 0.5 200.5t0.5 201.5q-152 -2 -276.5 -3t-170.5 -1q-62 0 -91 -5l-35 -6q-21 -4 -30 11q-3 4 -22 34q-11 14 6 16zM1179 678
q84 -21 207.5 -72.5t207.5 -110.5q32 -24 62.5 -59t30.5 -92q-2 -93 -39.5 -91.5t-63.5 42.5q-29 43 -69.5 87t-54.5 58q-45 40 -134.5 104.5t-157.5 102.5q-24 12 -20 24.5t31 6.5zM219 221q81 80 193 209.5t190 249.5q27 41 47 25q8 -7 49.5 -40t50.5 -41q26 -27 -9 -32
q-19 -3 -33 -9.5t-57 -45.5q-60 -54 -150 -139t-265 -204q-16 -11 -26.5 -2.5t10.5 29.5zM1884 1029q57 -10 41.5 -20t-42.5 -11q-31 -2 -67.5 -13t-62.5 -38q-25 -26 -54 -16q-118 36 -332.5 154.5t-349.5 338.5q-12 -10 -29 -31q-147 -168 -346 -298q-223 -147 -493 -238
q-18 -6 -26.5 3t11.5 20q231 120 450 274t358 382q19 31 47 19q62 -31 110 -61q22 -16 -13 -29q-32 -14 -39 -18q122 -162 350 -269t487 -149zM723 1922q25 -8 70.5 -24t61.5 -22q31 -13 4 -33q-24 -18 -36 -33.5t-12 -54.5v-66h431l1 199q0 36 9.5 36.5t20.5 -2.5
q25 -8 70.5 -24t61.5 -22q30 -13 5 -33q-24 -18 -36.5 -33.5t-12.5 -54.5v-66h290q25 0 46 18q9 8 27 26q40 40 85 2q30 -25 57 -48q50 -43 -8 -43q-27 0 -167.5 -0.5t-329.5 -0.5v-131q0 -19 -3 -27t-27 -19q-12 -5 -26 -11t-34 -12q-30 -9 -30 32l1 167q-108 0 -218 -0.5
t-213 -0.5l-1 -147q0 -19 -2.5 -27t-26.5 -19q-12 -5 -26 -10.5t-34 -11.5q-30 -10 -30 31l1 184q-141 0 -245 -0.5t-138 -0.5q-61 0 -90 -5l-35 -6q-21 -4 -31 11q-18 26 -22 33q-11 16 7 16h554l1 199q0 36 9.5 36.5t20.5 -2.5z" />
    <glyph glyph-name="radical" unicode="&#x221a;" 
d="M177 1221h779v568q0 32 32 22q36 -14 80.5 -30t75.5 -31q37 -18 18 -32.5t-33 -28.5q-38 -34 -38 -82v-386h553q26 0 45 17q15 13 27 27q41 40 86 2q12 -11 28.5 -25t28.5 -24q20 -18 25.5 -30.5t-33.5 -12.5q-37 0 -265.5 -0.5t-494.5 -0.5l1 -876h437q26 0 46 17l13 13
l14 14q41 40 86 2q12 -11 28 -25t28 -24q50 -43 -8 -43q-36 0 -214.5 -0.5t-389.5 -1.5t-400 -1h-246q-62 0 -91 -5l-35 -7q-21 -3 -30 12q-11 15 -22 33q-11 16 7 16h640l1 875q-214 0 -387 -0.5t-221 -0.5q-55 0 -91 -5l-35 -7q-21 -3 -30 12q-6 8 -11.5 16t-10.5 17
q-11 16 7 16z" />
    <glyph glyph-name="semicolon" unicode=";" 
d="M1219 511q0 -78 1 -87q8 -93 29 -103t100 -13q45 -2 154.5 -1.5t130.5 3.5q70 9 92.5 53.5t34.5 106.5q17 94 19 170q0 45 14 51t14 -61q-2 -120 17.5 -188.5t41.5 -88.5q40 -37 27 -58q-43 -67 -90 -92.5t-154 -25.5q-48 -1 -194.5 -1.5t-158.5 -0.5q-126 3 -162 32.5
t-39 205.5l1 280q-179 -104 -338 -163q-18 -6 -29.5 1.5t7.5 19.5q57 31 159 95t201 132l1 532q-2 55 33 43q33 -14 58.5 -28.5t57.5 -30.5q34 -19 10 -40q-38 -34 -36 -101l-1 -285q45 37 56 46q99 88 198 189t123 137q30 45 52 16q15 -22 44.5 -60.5t38.5 -47.5
q7 -9 6 -25t-26 -16q-14 -1 -37.5 -7.5t-54.5 -35.5q-43 -41 -151 -123.5t-249 -172.5zM187 649q141 147 276.5 337.5t192.5 312.5q9 21 20 38t32 -7t49.5 -61t35.5 -43q7 -7 7.5 -25t-14.5 -21q-3 -1 -22 -7t-31 -20q-65 -79 -130 -155q40 -31 65 -52q23 -21 9 -40
q-19 -27 -27 -48t-8 -61v-277v-324q0 -25 -2.5 -31t-27.5 -15q-20 -8 -65 -23q-31 -10 -31 32q0 164 1 367.5t1 377.5q-28 -30 -43 -45q-136 -139 -267 -240q-39 -30 -37.5 -8t16.5 38zM727 1921q22 -8 66.5 -22.5t59.5 -21.5q29 -14 11 -38q-21 -26 -29.5 -47t-8.5 -61
q1 -32 1 -82h429q1 79 0 235q0 36 7.5 38.5t18.5 -1.5q22 -8 66.5 -22.5t59.5 -21.5q29 -14 11 -38q-21 -26 -29.5 -47t-8.5 -61v-44v-38h302q26 0 46 17l13 13l14 14q40 40 86 2q12 -11 28 -25t28 -24q50 -43 -8 -43q-27 0 -170.5 -0.5t-338.5 -0.5v-67.5v-91.5
q0 -25 -2.5 -31t-27.5 -15q-23 -10 -66 -23q-30 -10 -30 32v113.5t1 82.5q-108 0 -217.5 -0.5t-212.5 -0.5v-67v-91q0 -25 -2.5 -31t-27.5 -15q-23 -10 -66 -23q-30 -10 -30 32v112.5t1 82.5q-146 -1 -252.5 -1h-140.5q-24 -1 -46.5 -2t-43.5 -4l-35 -6q-22 -4 -31 11
q-12 18 -22 34q-11 16 7 16h564q0 44 0.5 96t0.5 139q0 36 7 38.5t18 -1.5z" />
    <glyph glyph-name="less" unicode="&#x3c;" 
d="M1617 1824q11 12 27 32t29 36q16 18 33 2t42.5 -36.5t46.5 -39.5q27 -28 1 -51q-16 -15 -26 -26t-10 -40q-4 -297 -2.5 -638.5t4.5 -638.5q0 -57 -1.5 -119t-40.5 -95q-29 -23 -86 -47q-69 -27 -72.5 -9t-38.5 72q-34 51 -81.5 72.5t-83.5 34.5q-33 11 -35 22.5t36 5.5
q25 -4 59 -12t67 -11q48 -6 97.5 -1.5t49.5 84.5v458h-479q-18 -201 -91 -379.5t-255 -310.5q-38 -27 -52.5 -22t28.5 58q157 192 210 400t53 465l1 776q0 31 30 15q6 -4 41.5 -22t61.5 -35h437zM1632 927v401h-469v-212q0 -96 -6 -189h475zM1632 1375v401h-443
q-24 -26 -24 -65l-1 -336h468zM353 686h350l1 460h-350zM703 638h-350v-113q0 -27 -9 -34t-15 -11q-21 -14 -68 -22q-23 -6 -23 23l1 1269q0 40 27 26q23 -13 53 -32.5t58 -34.5h302q14 17 31.5 38.5t25.5 31.5q18 22 44 3q13 -11 45.5 -41.5t44.5 -41.5q16 -19 3 -32
q-12 -12 -27.5 -27t-15.5 -33q0 -15 -0.5 -177.5t-1 -354t-0.5 -352.5v-171q0 -39 -27 -50q-38 -13 -59 -17q-40 -9 -40 24zM354 1193h350l1 468h-332q-13 -13 -16 -33.5t-3 -35.5v-399z" />
    </font>
</defs>
</svg>
